<svg width="1920" height="1080" viewBox="0 0 1920 1080" fill="none" xmlns="http://www.w3.org/2000/svg">
<g clip-path="url(#clip0_69_190)">
<rect width="1920" height="1080" fill="white"/>
<rect y="74" width="1920" height="1085" fill="white"/>
<path d="M2376 617C2376 1152.72 1941.72 1587 1406 1587C870.284 1587 436 1152.72 436 617C436 81.2838 870.284 -353 1406 -353C1941.72 -353 2376 81.2838 2376 617Z" fill="#567550"/>
<path d="M2352.75 617C2352.75 1152.58 1918.58 1586.75 1383 1586.75C847.422 1586.75 413.25 1152.58 413.25 617C413.25 81.4218 847.422 -352.75 1383 -352.75C1918.58 -352.75 2352.75 81.4218 2352.75 617Z" stroke="#A5AFA5" stroke-width="0.5"/>
<path d="M2334.75 617C2334.75 1152.58 1900.58 1586.75 1365 1586.75C829.422 1586.75 395.25 1152.58 395.25 617C395.25 81.4218 829.422 -352.75 1365 -352.75C1900.58 -352.75 2334.75 81.4218 2334.75 617Z" stroke="#A5AFA5" stroke-width="0.5"/>
<path d="M2310.75 617C2310.75 1152.58 1876.58 1586.75 1341 1586.75C805.422 1586.75 371.25 1152.58 371.25 617C371.25 81.4218 805.422 -352.75 1341 -352.75C1876.58 -352.75 2310.75 81.4218 2310.75 617Z" stroke="#A5AFA5" stroke-width="0.5"/>
</g>
<defs>
<clipPath id="clip0_69_190">
<rect width="1920" height="1080" fill="white"/>
</clipPath>
</defs>
</svg>
