<svg id="Layer_1" data-name="Layer 1" xmlns="http://www.w3.org/2000/svg" viewBox="0 0 36.45 35.9"><defs><style>.cls-1{fill:#f55;}.cls-2{fill:#42270b;}.cls-3{fill:#269b00;}</style></defs><path class="cls-1" d="M42.37,29.7c-2.16,7.75-9.49,13.81-17.51,13.82-6.88,0-13.25-4.44-16.29-10.85-.46-1-4.28-10.94.52-17.11,2.93-3.76,8.39-3.8,11.49-1.68A13.63,13.63,0,0,1,24.52,19c2-4.8,5.88-7.71,9.74-7.41,3.68.28,6,3.36,6.44,4C44.68,21,42.68,28.58,42.37,29.7Z" transform="translate(-6.69 -7.62)"/><path class="cls-2" d="M23.36,8.24l.76,11.63a.55.55,0,0,0,1.1.09L27.7,8.79a.58.58,0,0,0-.46-.71L24,7.62A.57.57,0,0,0,23.36,8.24Z" transform="translate(-6.69 -7.62)"/><ellipse class="cls-3" cx="30.99" cy="14.43" rx="8.54" ry="2.73" transform="translate(-7.82 18.53) rotate(-45)"/></svg>