<svg xmlns="http://www.w3.org/2000/svg" viewBox="0 0 853.02 267.91"><defs><style>.cls-1{fill:#22661f;}.cls-2{fill:#174714;}</style></defs><g id="Layer_2" data-name="Layer 2"><g id="Layer_1-2" data-name="Layer 1"><ellipse class="cls-1" cx="150.31" cy="172.64" rx="10.19" ry="24.45"/><ellipse class="cls-1" cx="160.5" cy="172.64" rx="10.19" ry="24.45"/><ellipse class="cls-1" cx="99.35" cy="159.06" rx="10.19" ry="24.45"/><ellipse class="cls-1" cx="119.73" cy="159.06" rx="10.19" ry="24.45"/><ellipse class="cls-1" cx="170.68" cy="187.59" rx="10.19" ry="24.45"/><ellipse class="cls-1" cx="114.64" cy="176.04" rx="10.19" ry="24.45"/><ellipse class="cls-1" cx="73.88" cy="154.3" rx="10.19" ry="24.45"/><ellipse class="cls-1" cx="124.83" cy="176.04" rx="10.19" ry="24.45"/><ellipse class="cls-1" cx="63.69" cy="162.46" rx="10.19" ry="24.45"/><ellipse class="cls-1" cx="84.06" cy="162.46" rx="10.19" ry="24.45"/><ellipse class="cls-1" cx="135.02" cy="190.98" rx="10.19" ry="24.45"/><ellipse class="cls-1" cx="96.81" cy="185.21" rx="10.19" ry="24.45"/><ellipse class="cls-1" cx="56.04" cy="163.47" rx="10.19" ry="24.45"/><ellipse class="cls-1" cx="107" cy="185.21" rx="10.19" ry="24.45"/><ellipse class="cls-1" cx="45.85" cy="171.62" rx="10.19" ry="24.45"/><ellipse class="cls-1" cx="66.23" cy="171.62" rx="10.19" ry="24.45"/><ellipse class="cls-1" cx="117.19" cy="200.15" rx="10.19" ry="24.45"/><ellipse class="cls-1" cx="61.14" cy="188.61" rx="10.19" ry="24.45"/><ellipse class="cls-1" cx="20.38" cy="166.87" rx="10.19" ry="24.45"/><ellipse class="cls-1" cx="71.33" cy="188.61" rx="10.19" ry="24.45"/><ellipse class="cls-1" cx="10.19" cy="175.02" rx="10.19" ry="24.45"/><ellipse class="cls-1" cx="30.57" cy="175.02" rx="10.19" ry="24.45"/><ellipse class="cls-1" cx="81.52" cy="203.55" rx="10.19" ry="24.45"/><ellipse class="cls-1" cx="822.45" cy="212.55" rx="10.19" ry="24.45"/><ellipse class="cls-1" cx="832.64" cy="212.55" rx="10.19" ry="24.45"/><ellipse class="cls-1" cx="771.5" cy="198.96" rx="10.19" ry="24.45"/><ellipse class="cls-1" cx="791.88" cy="198.96" rx="10.19" ry="24.45"/><ellipse class="cls-1" cx="842.83" cy="227.49" rx="10.19" ry="24.45"/><ellipse class="cls-1" cx="786.79" cy="215.94" rx="10.19" ry="24.45"/><ellipse class="cls-1" cx="746.02" cy="194.21" rx="10.19" ry="24.45"/><ellipse class="cls-1" cx="796.98" cy="215.94" rx="10.19" ry="24.45"/><ellipse class="cls-1" cx="735.83" cy="202.36" rx="10.19" ry="24.45"/><ellipse class="cls-1" cx="756.21" cy="202.36" rx="10.19" ry="24.45"/><ellipse class="cls-1" cx="807.16" cy="230.89" rx="10.19" ry="24.45"/><ellipse class="cls-1" cx="768.95" cy="225.11" rx="10.19" ry="24.45"/><ellipse class="cls-1" cx="728.19" cy="203.38" rx="10.19" ry="24.45"/><ellipse class="cls-1" cx="779.14" cy="225.11" rx="10.19" ry="24.45"/><ellipse class="cls-1" cx="718" cy="211.53" rx="10.19" ry="24.45"/><ellipse class="cls-1" cx="738.38" cy="211.53" rx="10.19" ry="24.45"/><ellipse class="cls-1" cx="789.33" cy="240.06" rx="10.19" ry="24.45"/><ellipse class="cls-1" cx="733.29" cy="228.51" rx="10.19" ry="24.45"/><ellipse class="cls-1" cx="692.52" cy="206.78" rx="10.19" ry="24.45"/><ellipse class="cls-1" cx="743.48" cy="228.51" rx="10.19" ry="24.45"/><ellipse class="cls-1" cx="682.33" cy="214.93" rx="10.19" ry="24.45"/><ellipse class="cls-1" cx="702.71" cy="214.93" rx="10.19" ry="24.45"/><ellipse class="cls-1" cx="753.67" cy="243.45" rx="10.19" ry="24.45"/><ellipse class="cls-1" cx="531.39" cy="62.66" rx="10.19" ry="24.45"/><ellipse class="cls-1" cx="541.58" cy="62.66" rx="10.19" ry="24.45"/><ellipse class="cls-1" cx="480.44" cy="49.07" rx="10.19" ry="24.45"/><ellipse class="cls-1" cx="500.81" cy="49.07" rx="10.19" ry="24.45"/><ellipse class="cls-1" cx="551.77" cy="77.6" rx="10.19" ry="24.45"/><ellipse class="cls-1" cx="495.72" cy="66.06" rx="10.19" ry="24.45"/><ellipse class="cls-1" cx="454.96" cy="44.32" rx="10.19" ry="24.45"/><ellipse class="cls-1" cx="505.91" cy="66.06" rx="10.19" ry="24.45"/><ellipse class="cls-1" cx="444.77" cy="52.47" rx="10.19" ry="24.45"/><ellipse class="cls-1" cx="465.15" cy="52.47" rx="10.19" ry="24.45"/><ellipse class="cls-1" cx="516.1" cy="81" rx="10.19" ry="24.45"/><ellipse class="cls-1" cx="477.89" cy="75.23" rx="10.19" ry="24.45"/><ellipse class="cls-1" cx="437.13" cy="53.49" rx="10.19" ry="24.45"/><ellipse class="cls-1" cx="488.08" cy="75.23" rx="10.19" ry="24.45"/><ellipse class="cls-1" cx="426.94" cy="61.64" rx="10.19" ry="24.45"/><ellipse class="cls-1" cx="447.31" cy="61.64" rx="10.19" ry="24.45"/><ellipse class="cls-1" cx="498.27" cy="90.17" rx="10.19" ry="24.45"/><ellipse class="cls-1" cx="442.23" cy="78.62" rx="10.19" ry="24.45"/><ellipse class="cls-1" cx="401.46" cy="56.89" rx="10.19" ry="24.45"/><ellipse class="cls-1" cx="452.41" cy="78.62" rx="10.19" ry="24.45"/><ellipse class="cls-1" cx="391.27" cy="65.04" rx="10.19" ry="24.45"/><ellipse class="cls-1" cx="411.65" cy="65.04" rx="10.19" ry="24.45"/><ellipse class="cls-1" cx="462.6" cy="93.56" rx="10.19" ry="24.45"/><ellipse class="cls-2" cx="440.95" cy="89.49" rx="10.19" ry="24.45"/><ellipse class="cls-2" cx="451.14" cy="89.49" rx="10.19" ry="24.45"/><ellipse class="cls-2" cx="390" cy="75.9" rx="10.19" ry="24.45"/><ellipse class="cls-2" cx="410.38" cy="75.9" rx="10.19" ry="24.45"/><ellipse class="cls-2" cx="461.33" cy="104.43" rx="10.19" ry="24.45"/><ellipse class="cls-2" cx="405.29" cy="92.89" rx="10.19" ry="24.45"/><ellipse class="cls-2" cx="364.52" cy="71.15" rx="10.19" ry="24.45"/><ellipse class="cls-2" cx="415.48" cy="92.89" rx="10.19" ry="24.45"/><ellipse class="cls-2" cx="354.33" cy="79.3" rx="10.19" ry="24.45"/><ellipse class="cls-2" cx="374.71" cy="79.3" rx="10.19" ry="24.45"/><ellipse class="cls-2" cx="425.67" cy="107.83" rx="10.19" ry="24.45"/><ellipse class="cls-2" cx="387.46" cy="102.05" rx="10.19" ry="24.45"/><ellipse class="cls-2" cx="346.69" cy="80.32" rx="10.19" ry="24.45"/><ellipse class="cls-2" cx="397.64" cy="102.05" rx="10.19" ry="24.45"/><ellipse class="cls-2" cx="336.5" cy="88.47" rx="10.19" ry="24.45"/><ellipse class="cls-2" cx="356.88" cy="88.47" rx="10.19" ry="24.45"/><ellipse class="cls-2" cx="407.83" cy="117" rx="10.19" ry="24.45"/><ellipse class="cls-2" cx="351.79" cy="105.45" rx="10.19" ry="24.45"/><ellipse class="cls-2" cx="311.02" cy="83.72" rx="10.19" ry="24.45"/><ellipse class="cls-2" cx="361.98" cy="105.45" rx="10.19" ry="24.45"/><ellipse class="cls-2" cx="300.83" cy="91.87" rx="10.19" ry="24.45"/><ellipse class="cls-2" cx="321.21" cy="91.87" rx="10.19" ry="24.45"/><ellipse class="cls-2" cx="372.17" cy="120.39" rx="10.19" ry="24.45"/><ellipse class="cls-2" cx="518.65" cy="125.66" rx="10.19" ry="24.45"/><ellipse class="cls-2" cx="528.83" cy="125.66" rx="10.19" ry="24.45"/><ellipse class="cls-2" cx="467.69" cy="112.07" rx="10.19" ry="24.45"/><ellipse class="cls-2" cx="488.07" cy="112.07" rx="10.19" ry="24.45"/><ellipse class="cls-2" cx="539.02" cy="140.6" rx="10.19" ry="24.45"/><ellipse class="cls-2" cx="482.98" cy="129.05" rx="10.19" ry="24.45"/><ellipse class="cls-2" cx="442.21" cy="107.32" rx="10.19" ry="24.45"/><ellipse class="cls-2" cx="493.17" cy="129.05" rx="10.19" ry="24.45"/><ellipse class="cls-2" cx="432.03" cy="115.47" rx="10.19" ry="24.45"/><ellipse class="cls-2" cx="452.4" cy="115.47" rx="10.19" ry="24.45"/><ellipse class="cls-2" cx="503.36" cy="144" rx="10.19" ry="24.45"/><ellipse class="cls-2" cx="465.15" cy="138.22" rx="10.19" ry="24.45"/><ellipse class="cls-2" cx="424.38" cy="116.49" rx="10.19" ry="24.45"/><ellipse class="cls-2" cx="475.34" cy="138.22" rx="10.19" ry="24.45"/><ellipse class="cls-2" cx="414.19" cy="124.64" rx="10.19" ry="24.45"/><ellipse class="cls-2" cx="434.57" cy="124.64" rx="10.19" ry="24.45"/><ellipse class="cls-2" cx="485.52" cy="153.17" rx="10.19" ry="24.45"/><ellipse class="cls-2" cx="429.48" cy="141.62" rx="10.19" ry="24.45"/><ellipse class="cls-2" cx="388.72" cy="119.88" rx="10.19" ry="24.45"/><ellipse class="cls-2" cx="439.67" cy="141.62" rx="10.19" ry="24.45"/><ellipse class="cls-2" cx="378.53" cy="128.04" rx="10.19" ry="24.45"/><ellipse class="cls-2" cx="398.9" cy="128.04" rx="10.19" ry="24.45"/><ellipse class="cls-2" cx="449.86" cy="156.56" rx="10.19" ry="24.45"/><ellipse class="cls-1" cx="677.99" cy="154.3" rx="10.19" ry="24.45"/><ellipse class="cls-1" cx="688.18" cy="154.3" rx="10.19" ry="24.45"/><ellipse class="cls-1" cx="627.03" cy="140.72" rx="10.19" ry="24.45"/><ellipse class="cls-1" cx="647.41" cy="140.72" rx="10.19" ry="24.45"/><ellipse class="cls-1" cx="698.37" cy="169.25" rx="10.19" ry="24.45"/><ellipse class="cls-1" cx="642.32" cy="157.7" rx="10.19" ry="24.45"/><ellipse class="cls-1" cx="601.56" cy="135.97" rx="10.19" ry="24.45"/><ellipse class="cls-1" cx="652.51" cy="157.7" rx="10.19" ry="24.45"/><ellipse class="cls-1" cx="591.37" cy="144.12" rx="10.19" ry="24.45"/><ellipse class="cls-1" cx="611.75" cy="144.12" rx="10.19" ry="24.45"/><ellipse class="cls-1" cx="662.7" cy="172.64" rx="10.19" ry="24.45"/><ellipse class="cls-1" cx="624.49" cy="166.87" rx="10.19" ry="24.45"/><ellipse class="cls-1" cx="583.72" cy="145.13" rx="10.19" ry="24.45"/><ellipse class="cls-1" cx="634.68" cy="166.87" rx="10.19" ry="24.45"/><ellipse class="cls-1" cx="573.54" cy="153.29" rx="10.19" ry="24.45"/><ellipse class="cls-1" cx="593.91" cy="153.29" rx="10.19" ry="24.45"/><ellipse class="cls-1" cx="644.87" cy="181.81" rx="10.19" ry="24.45"/><ellipse class="cls-1" cx="588.82" cy="170.27" rx="10.19" ry="24.45"/><ellipse class="cls-1" cx="548.06" cy="148.53" rx="10.19" ry="24.45"/><ellipse class="cls-1" cx="599.01" cy="170.27" rx="10.19" ry="24.45"/><ellipse class="cls-1" cx="537.87" cy="156.68" rx="10.19" ry="24.45"/><ellipse class="cls-1" cx="558.25" cy="156.68" rx="10.19" ry="24.45"/><ellipse class="cls-1" cx="609.2" cy="185.21" rx="10.19" ry="24.45"/><ellipse class="cls-1" cx="617.38" cy="126.59" rx="10.19" ry="24.45"/><ellipse class="cls-1" cx="576.61" cy="104.86" rx="10.19" ry="24.45"/><ellipse class="cls-1" cx="625.43" cy="126.59" rx="10.19" ry="24.45"/><ellipse class="cls-1" cx="566.42" cy="113.01" rx="10.19" ry="24.45"/><ellipse class="cls-1" cx="586.8" cy="113.01" rx="10.19" ry="24.45"/><ellipse class="cls-1" cx="637.75" cy="141.54" rx="10.19" ry="24.45"/><ellipse class="cls-1" cx="581.71" cy="129.99" rx="10.19" ry="24.45"/><ellipse class="cls-1" cx="540.94" cy="108.25" rx="10.19" ry="24.45"/><ellipse class="cls-1" cx="591.9" cy="129.99" rx="10.19" ry="24.45"/><ellipse class="cls-1" cx="530.75" cy="116.4" rx="10.19" ry="24.45"/><ellipse class="cls-1" cx="551.13" cy="116.4" rx="10.19" ry="24.45"/><ellipse class="cls-1" cx="602.09" cy="144.93" rx="10.19" ry="24.45"/><ellipse class="cls-1" cx="563.88" cy="139.16" rx="10.19" ry="24.45"/><ellipse class="cls-1" cx="523.11" cy="117.42" rx="10.19" ry="24.45"/><ellipse class="cls-1" cx="574.06" cy="139.16" rx="10.19" ry="24.45"/><ellipse class="cls-1" cx="512.92" cy="125.57" rx="10.19" ry="24.45"/><ellipse class="cls-1" cx="533.3" cy="125.57" rx="10.19" ry="24.45"/><ellipse class="cls-1" cx="584.25" cy="154.1" rx="10.19" ry="24.45"/><ellipse class="cls-1" cx="528.21" cy="142.55" rx="10.19" ry="24.45"/><ellipse class="cls-1" cx="487.44" cy="120.82" rx="10.19" ry="24.45"/><ellipse class="cls-1" cx="538.4" cy="142.55" rx="10.19" ry="24.45"/><ellipse class="cls-1" cx="477.26" cy="128.97" rx="10.19" ry="24.45"/><ellipse class="cls-1" cx="497.63" cy="128.97" rx="10.19" ry="24.45"/><ellipse class="cls-1" cx="548.59" cy="157.5" rx="10.19" ry="24.45"/><ellipse class="cls-1" cx="499.54" cy="170.99" rx="10.19" ry="24.45"/><ellipse class="cls-1" cx="509.73" cy="170.99" rx="10.19" ry="24.45"/><ellipse class="cls-1" cx="448.59" cy="157.41" rx="10.19" ry="24.45"/><ellipse class="cls-1" cx="468.96" cy="157.41" rx="10.19" ry="24.45"/><ellipse class="cls-1" cx="519.92" cy="185.93" rx="10.19" ry="24.45"/><ellipse class="cls-1" cx="463.88" cy="174.39" rx="10.19" ry="24.45"/><ellipse class="cls-1" cx="423.11" cy="152.65" rx="10.19" ry="24.45"/><ellipse class="cls-1" cx="474.06" cy="174.39" rx="10.19" ry="24.45"/><ellipse class="cls-1" cx="412.92" cy="160.8" rx="10.19" ry="24.45"/><ellipse class="cls-1" cx="433.3" cy="160.8" rx="10.19" ry="24.45"/><ellipse class="cls-1" cx="484.25" cy="189.33" rx="10.19" ry="24.45"/><ellipse class="cls-1" cx="446.04" cy="183.56" rx="10.19" ry="24.45"/><ellipse class="cls-1" cx="405.28" cy="161.82" rx="10.19" ry="24.45"/><ellipse class="cls-1" cx="456.23" cy="183.56" rx="10.19" ry="24.45"/><ellipse class="cls-1" cx="395.09" cy="169.97" rx="10.19" ry="24.45"/><ellipse class="cls-1" cx="415.46" cy="169.97" rx="10.19" ry="24.45"/><ellipse class="cls-1" cx="466.42" cy="198.5" rx="10.19" ry="24.45"/><ellipse class="cls-1" cx="410.38" cy="186.95" rx="10.19" ry="24.45"/><ellipse class="cls-1" cx="369.61" cy="165.22" rx="10.19" ry="24.45"/><ellipse class="cls-1" cx="420.57" cy="186.95" rx="10.19" ry="24.45"/><ellipse class="cls-1" cx="359.42" cy="173.37" rx="10.19" ry="24.45"/><ellipse class="cls-1" cx="379.8" cy="173.37" rx="10.19" ry="24.45"/><ellipse class="cls-1" cx="430.75" cy="201.9" rx="10.19" ry="24.45"/><ellipse class="cls-1" cx="414.84" cy="138.61" rx="10.19" ry="24.45"/><ellipse class="cls-1" cx="425.03" cy="138.61" rx="10.19" ry="24.45"/><ellipse class="cls-1" cx="435.22" cy="153.55" rx="10.19" ry="24.45"/><ellipse class="cls-1" cx="379.17" cy="142" rx="10.19" ry="24.45"/><ellipse class="cls-1" cx="389.36" cy="142" rx="10.19" ry="24.45"/><ellipse class="cls-1" cx="399.55" cy="156.95" rx="10.19" ry="24.45"/><ellipse class="cls-1" cx="361.34" cy="151.17" rx="10.19" ry="24.45"/><ellipse class="cls-1" cx="371.53" cy="151.17" rx="10.19" ry="24.45"/><ellipse class="cls-2" cx="324.4" cy="133.44" rx="10.19" ry="24.45"/><ellipse class="cls-2" cx="334.59" cy="133.44" rx="10.19" ry="24.45"/><ellipse class="cls-2" cx="273.45" cy="119.86" rx="10.19" ry="24.45"/><ellipse class="cls-2" cx="293.83" cy="119.86" rx="10.19" ry="24.45"/><ellipse class="cls-2" cx="344.78" cy="148.39" rx="10.19" ry="24.45"/><ellipse class="cls-2" cx="288.74" cy="136.84" rx="10.19" ry="24.45"/><ellipse class="cls-2" cx="247.97" cy="115.1" rx="10.19" ry="24.45"/><ellipse class="cls-2" cx="298.93" cy="136.84" rx="10.19" ry="24.45"/><ellipse class="cls-2" cx="237.78" cy="123.25" rx="10.19" ry="24.45"/><ellipse class="cls-2" cx="258.16" cy="123.25" rx="10.19" ry="24.45"/><ellipse class="cls-2" cx="309.12" cy="151.78" rx="10.19" ry="24.45"/><ellipse class="cls-2" cx="270.91" cy="146.01" rx="10.19" ry="24.45"/><ellipse class="cls-2" cx="230.14" cy="124.27" rx="10.19" ry="24.45"/><ellipse class="cls-2" cx="281.09" cy="146.01" rx="10.19" ry="24.45"/><ellipse class="cls-2" cx="219.95" cy="132.42" rx="10.19" ry="24.45"/><ellipse class="cls-2" cx="240.33" cy="132.42" rx="10.19" ry="24.45"/><ellipse class="cls-2" cx="291.28" cy="160.95" rx="10.19" ry="24.45"/><ellipse class="cls-2" cx="235.24" cy="149.4" rx="10.19" ry="24.45"/><ellipse class="cls-2" cx="194.47" cy="127.67" rx="10.19" ry="24.45"/><ellipse class="cls-2" cx="245.43" cy="149.4" rx="10.19" ry="24.45"/><ellipse class="cls-2" cx="184.29" cy="135.82" rx="10.19" ry="24.45"/><ellipse class="cls-2" cx="204.66" cy="135.82" rx="10.19" ry="24.45"/><ellipse class="cls-2" cx="255.62" cy="164.35" rx="10.19" ry="24.45"/><ellipse class="cls-2" cx="432.04" cy="171.77" rx="10.19" ry="24.45"/><ellipse class="cls-2" cx="442.23" cy="171.77" rx="10.19" ry="24.45"/><ellipse class="cls-2" cx="381.08" cy="158.19" rx="10.19" ry="24.45"/><ellipse class="cls-2" cx="401.46" cy="158.19" rx="10.19" ry="24.45"/><ellipse class="cls-2" cx="452.41" cy="186.72" rx="10.19" ry="24.45"/><ellipse class="cls-2" cx="396.37" cy="175.17" rx="10.19" ry="24.45"/><ellipse class="cls-2" cx="355.61" cy="153.43" rx="10.19" ry="24.45"/><ellipse class="cls-2" cx="406.56" cy="175.17" rx="10.19" ry="24.45"/><ellipse class="cls-2" cx="345.42" cy="161.59" rx="10.19" ry="24.45"/><ellipse class="cls-2" cx="365.79" cy="161.59" rx="10.19" ry="24.45"/><ellipse class="cls-2" cx="416.75" cy="190.11" rx="10.19" ry="24.45"/><ellipse class="cls-2" cx="378.54" cy="184.34" rx="10.19" ry="24.45"/><ellipse class="cls-2" cx="337.77" cy="162.6" rx="10.19" ry="24.45"/><ellipse class="cls-2" cx="388.73" cy="184.34" rx="10.19" ry="24.45"/><ellipse class="cls-2" cx="327.58" cy="170.76" rx="10.19" ry="24.45"/><ellipse class="cls-2" cx="347.96" cy="170.76" rx="10.19" ry="24.45"/><ellipse class="cls-2" cx="398.92" cy="199.28" rx="10.19" ry="24.45"/><ellipse class="cls-2" cx="342.87" cy="187.74" rx="10.19" ry="24.45"/><ellipse class="cls-2" cx="302.11" cy="166" rx="10.19" ry="24.45"/><ellipse class="cls-2" cx="353.06" cy="187.74" rx="10.19" ry="24.45"/><ellipse class="cls-2" cx="291.92" cy="174.15" rx="10.19" ry="24.45"/><ellipse class="cls-2" cx="312.3" cy="174.15" rx="10.19" ry="24.45"/><ellipse class="cls-2" cx="363.25" cy="202.68" rx="10.19" ry="24.45"/><ellipse class="cls-2" cx="194.89" cy="158.6" rx="10.19" ry="24.45"/><ellipse class="cls-2" cx="205.08" cy="158.6" rx="10.19" ry="24.45"/><ellipse class="cls-2" cx="143.94" cy="145.01" rx="10.19" ry="24.45"/><ellipse class="cls-2" cx="164.31" cy="145.01" rx="10.19" ry="24.45"/><ellipse class="cls-2" cx="215.27" cy="173.54" rx="10.19" ry="24.45"/><ellipse class="cls-2" cx="159.22" cy="161.99" rx="10.19" ry="24.45"/><ellipse class="cls-2" cx="118.46" cy="140.26" rx="10.19" ry="24.45"/><ellipse class="cls-2" cx="169.41" cy="161.99" rx="10.19" ry="24.45"/><ellipse class="cls-2" cx="108.27" cy="148.41" rx="10.19" ry="24.45"/><ellipse class="cls-2" cx="128.65" cy="148.41" rx="10.19" ry="24.45"/><ellipse class="cls-2" cx="179.6" cy="176.93" rx="10.19" ry="24.45"/><ellipse class="cls-2" cx="141.39" cy="171.16" rx="10.19" ry="24.45"/><ellipse class="cls-2" cx="100.63" cy="149.43" rx="10.19" ry="24.45"/><ellipse class="cls-2" cx="151.58" cy="171.16" rx="10.19" ry="24.45"/><ellipse class="cls-2" cx="90.44" cy="157.58" rx="10.19" ry="24.45"/><ellipse class="cls-2" cx="110.81" cy="157.58" rx="10.19" ry="24.45"/><ellipse class="cls-2" cx="161.77" cy="186.1" rx="10.19" ry="24.45"/><ellipse class="cls-2" cx="105.73" cy="174.56" rx="10.19" ry="24.45"/><ellipse class="cls-2" cx="64.96" cy="152.82" rx="10.19" ry="24.45"/><ellipse class="cls-2" cx="115.91" cy="174.56" rx="10.19" ry="24.45"/><ellipse class="cls-2" cx="54.77" cy="160.97" rx="10.19" ry="24.45"/><ellipse class="cls-2" cx="75.15" cy="160.97" rx="10.19" ry="24.45"/><ellipse class="cls-2" cx="126.1" cy="189.5" rx="10.19" ry="24.45"/><ellipse class="cls-1" cx="254.76" cy="200.49" rx="10.19" ry="24.45"/><ellipse class="cls-1" cx="264.95" cy="200.49" rx="10.19" ry="24.45"/><ellipse class="cls-1" cx="203.81" cy="186.91" rx="10.19" ry="24.45"/><ellipse class="cls-1" cx="224.18" cy="186.91" rx="10.19" ry="24.45"/><ellipse class="cls-1" cx="275.14" cy="215.44" rx="10.19" ry="24.45"/><ellipse class="cls-1" cx="219.1" cy="203.89" rx="10.19" ry="24.45"/><ellipse class="cls-1" cx="178.33" cy="182.15" rx="10.19" ry="24.45"/><ellipse class="cls-1" cx="229.28" cy="203.89" rx="10.19" ry="24.45"/><ellipse class="cls-1" cx="168.14" cy="190.3" rx="10.19" ry="24.45"/><ellipse class="cls-1" cx="188.52" cy="190.3" rx="10.19" ry="24.45"/><ellipse class="cls-1" cx="239.47" cy="218.83" rx="10.19" ry="24.45"/><ellipse class="cls-1" cx="201.26" cy="213.06" rx="10.19" ry="24.45"/><ellipse class="cls-1" cx="160.5" cy="191.32" rx="10.19" ry="24.45"/><ellipse class="cls-1" cx="211.45" cy="213.06" rx="10.19" ry="24.45"/><ellipse class="cls-1" cx="150.31" cy="199.47" rx="10.19" ry="24.45"/><ellipse class="cls-1" cx="170.68" cy="199.47" rx="10.19" ry="24.45"/><ellipse class="cls-1" cx="221.64" cy="228" rx="10.19" ry="24.45"/><ellipse class="cls-1" cx="165.6" cy="216.45" rx="10.19" ry="24.45"/><ellipse class="cls-1" cx="124.83" cy="194.72" rx="10.19" ry="24.45"/><ellipse class="cls-1" cx="175.78" cy="216.45" rx="10.19" ry="24.45"/><ellipse class="cls-1" cx="114.64" cy="202.87" rx="10.19" ry="24.45"/><ellipse class="cls-1" cx="135.02" cy="202.87" rx="10.19" ry="24.45"/><ellipse class="cls-1" cx="185.97" cy="231.4" rx="10.19" ry="24.45"/><ellipse class="cls-2" cx="636.62" cy="174.66" rx="10.19" ry="24.45"/><ellipse class="cls-2" cx="646.81" cy="174.66" rx="10.19" ry="24.45"/><ellipse class="cls-2" cx="585.67" cy="161.08" rx="10.19" ry="24.45"/><ellipse class="cls-2" cx="606.05" cy="161.08" rx="10.19" ry="24.45"/><ellipse class="cls-2" cx="657" cy="189.6" rx="10.19" ry="24.45"/><ellipse class="cls-2" cx="600.96" cy="178.06" rx="10.19" ry="24.45"/><ellipse class="cls-2" cx="560.19" cy="156.32" rx="10.19" ry="24.45"/><ellipse class="cls-2" cx="611.15" cy="178.06" rx="10.19" ry="24.45"/><ellipse class="cls-2" cx="550" cy="164.47" rx="10.19" ry="24.45"/><ellipse class="cls-2" cx="570.38" cy="164.47" rx="10.19" ry="24.45"/><ellipse class="cls-2" cx="621.34" cy="193" rx="10.19" ry="24.45"/><ellipse class="cls-2" cx="583.13" cy="187.23" rx="10.19" ry="24.45"/><ellipse class="cls-2" cx="542.36" cy="165.49" rx="10.19" ry="24.45"/><ellipse class="cls-2" cx="593.31" cy="187.23" rx="10.19" ry="24.45"/><ellipse class="cls-2" cx="532.17" cy="173.64" rx="10.19" ry="24.45"/><ellipse class="cls-2" cx="552.55" cy="173.64" rx="10.19" ry="24.45"/><ellipse class="cls-2" cx="603.5" cy="202.17" rx="10.19" ry="24.45"/><ellipse class="cls-2" cx="547.46" cy="190.62" rx="10.19" ry="24.45"/><ellipse class="cls-2" cx="506.69" cy="168.89" rx="10.19" ry="24.45"/><ellipse class="cls-2" cx="557.65" cy="190.62" rx="10.19" ry="24.45"/><ellipse class="cls-2" cx="496.51" cy="177.04" rx="10.19" ry="24.45"/><ellipse class="cls-2" cx="516.88" cy="177.04" rx="10.19" ry="24.45"/><ellipse class="cls-2" cx="567.84" cy="205.57" rx="10.19" ry="24.45"/><ellipse class="cls-1" cx="412.93" cy="113.05" rx="10.19" ry="24.45"/><ellipse class="cls-1" cx="423.12" cy="113.05" rx="10.19" ry="24.45"/><ellipse class="cls-1" cx="361.98" cy="99.47" rx="10.19" ry="24.45"/><ellipse class="cls-1" cx="382.36" cy="99.47" rx="10.19" ry="24.45"/><ellipse class="cls-1" cx="433.31" cy="127.99" rx="10.19" ry="24.45"/><ellipse class="cls-1" cx="377.27" cy="116.45" rx="10.19" ry="24.45"/><ellipse class="cls-1" cx="336.5" cy="94.71" rx="10.19" ry="24.45"/><ellipse class="cls-1" cx="387.46" cy="116.45" rx="10.19" ry="24.45"/><ellipse class="cls-1" cx="326.31" cy="102.86" rx="10.19" ry="24.45"/><ellipse class="cls-1" cx="346.69" cy="102.86" rx="10.19" ry="24.45"/><ellipse class="cls-1" cx="397.64" cy="131.39" rx="10.19" ry="24.45"/><ellipse class="cls-1" cx="359.43" cy="125.62" rx="10.19" ry="24.45"/><ellipse class="cls-1" cx="318.67" cy="103.88" rx="10.19" ry="24.45"/><ellipse class="cls-1" cx="369.62" cy="125.62" rx="10.19" ry="24.45"/><ellipse class="cls-1" cx="308.48" cy="112.03" rx="10.19" ry="24.45"/><ellipse class="cls-1" cx="328.86" cy="112.03" rx="10.19" ry="24.45"/><ellipse class="cls-1" cx="379.81" cy="140.56" rx="10.19" ry="24.45"/><ellipse class="cls-1" cx="323.77" cy="129.01" rx="10.19" ry="24.45"/><ellipse class="cls-1" cx="283" cy="107.28" rx="10.19" ry="24.45"/><ellipse class="cls-1" cx="333.96" cy="129.01" rx="10.19" ry="24.45"/><ellipse class="cls-1" cx="272.81" cy="115.43" rx="10.19" ry="24.45"/><ellipse class="cls-1" cx="293.19" cy="115.43" rx="10.19" ry="24.45"/><ellipse class="cls-1" cx="344.15" cy="143.96" rx="10.19" ry="24.45"/><ellipse class="cls-1" cx="484.26" cy="42.79" rx="10.19" ry="24.45"/><ellipse class="cls-1" cx="494.45" cy="42.79" rx="10.19" ry="24.45"/><ellipse class="cls-1" cx="433.31" cy="29.21" rx="10.19" ry="24.45"/><ellipse class="cls-1" cx="453.69" cy="29.21" rx="10.19" ry="24.45"/><ellipse class="cls-1" cx="504.64" cy="57.73" rx="10.19" ry="24.45"/><ellipse class="cls-1" cx="448.6" cy="46.19" rx="10.19" ry="24.45"/><ellipse class="cls-1" cx="407.83" cy="24.45" rx="10.19" ry="24.45"/><ellipse class="cls-1" cx="458.79" cy="46.19" rx="10.19" ry="24.45"/><ellipse class="cls-1" cx="397.64" cy="32.6" rx="10.19" ry="24.45"/><ellipse class="cls-1" cx="418.02" cy="32.6" rx="10.19" ry="24.45"/><ellipse class="cls-1" cx="468.98" cy="61.13" rx="10.19" ry="24.45"/><ellipse class="cls-1" cx="430.77" cy="55.36" rx="10.19" ry="24.45"/><ellipse class="cls-1" cx="390" cy="33.62" rx="10.19" ry="24.45"/><ellipse class="cls-1" cx="440.95" cy="55.36" rx="10.19" ry="24.45"/><ellipse class="cls-1" cx="379.81" cy="41.77" rx="10.19" ry="24.45"/><ellipse class="cls-1" cx="400.19" cy="41.77" rx="10.19" ry="24.45"/><ellipse class="cls-1" cx="451.14" cy="70.3" rx="10.19" ry="24.45"/><ellipse class="cls-1" cx="395.1" cy="58.75" rx="10.19" ry="24.45"/><ellipse class="cls-1" cx="354.33" cy="37.02" rx="10.19" ry="24.45"/><ellipse class="cls-1" cx="405.29" cy="58.75" rx="10.19" ry="24.45"/><ellipse class="cls-1" cx="344.15" cy="45.17" rx="10.19" ry="24.45"/><ellipse class="cls-1" cx="364.52" cy="45.17" rx="10.19" ry="24.45"/><ellipse class="cls-1" cx="415.48" cy="73.7" rx="10.19" ry="24.45"/><ellipse class="cls-1" cx="404.02" cy="206.78" rx="10.19" ry="24.45"/><ellipse class="cls-1" cx="414.2" cy="206.78" rx="10.19" ry="24.45"/><ellipse class="cls-1" cx="353.06" cy="193.19" rx="10.19" ry="24.45"/><ellipse class="cls-1" cx="373.44" cy="193.19" rx="10.19" ry="24.45"/><ellipse class="cls-1" cx="424.39" cy="221.72" rx="10.19" ry="24.45"/><ellipse class="cls-1" cx="368.35" cy="210.17" rx="10.19" ry="24.45"/><ellipse class="cls-1" cx="327.58" cy="188.44" rx="10.19" ry="24.45"/><ellipse class="cls-1" cx="378.54" cy="210.17" rx="10.19" ry="24.45"/><ellipse class="cls-1" cx="317.4" cy="196.59" rx="10.19" ry="24.45"/><ellipse class="cls-1" cx="337.77" cy="196.59" rx="10.19" ry="24.45"/><ellipse class="cls-1" cx="388.73" cy="225.11" rx="10.19" ry="24.45"/><ellipse class="cls-1" cx="350.52" cy="219.34" rx="10.19" ry="24.45"/><ellipse class="cls-1" cx="309.75" cy="197.61" rx="10.19" ry="24.45"/><ellipse class="cls-1" cx="360.71" cy="219.34" rx="10.19" ry="24.45"/><ellipse class="cls-1" cx="299.56" cy="205.76" rx="10.19" ry="24.45"/><ellipse class="cls-1" cx="319.94" cy="205.76" rx="10.19" ry="24.45"/><ellipse class="cls-1" cx="370.89" cy="234.28" rx="10.19" ry="24.45"/><ellipse class="cls-1" cx="314.85" cy="222.74" rx="10.19" ry="24.45"/><ellipse class="cls-1" cx="274.09" cy="201" rx="10.19" ry="24.45"/><ellipse class="cls-1" cx="325.04" cy="222.74" rx="10.19" ry="24.45"/><ellipse class="cls-1" cx="263.9" cy="209.15" rx="10.19" ry="24.45"/><ellipse class="cls-1" cx="284.27" cy="209.15" rx="10.19" ry="24.45"/><ellipse class="cls-1" cx="335.23" cy="237.68" rx="10.19" ry="24.45"/></g></g></svg>