<svg xmlns="http://www.w3.org/2000/svg" viewBox="0 0 1257.16 635.03"><defs><style>.cls-1{fill:#84CE7C;}.cls-2{fill:#667566;}</style></defs><g id="Layer_2" data-name="Layer 2"><g id="Layer_1-2" data-name="Layer 1"><ellipse class="cls-1" cx="338.58" cy="172.64" rx="10.19" ry="24.45"/><ellipse class="cls-1" cx="348.76" cy="172.64" rx="10.19" ry="24.45"/><ellipse class="cls-1" cx="287.62" cy="159.06" rx="10.19" ry="24.45"/><ellipse class="cls-1" cx="308" cy="159.06" rx="10.19" ry="24.45"/><ellipse class="cls-1" cx="358.95" cy="187.59" rx="10.19" ry="24.45"/><ellipse class="cls-1" cx="302.91" cy="176.04" rx="10.19" ry="24.45"/><ellipse class="cls-1" cx="262.14" cy="154.3" rx="10.19" ry="24.45"/><ellipse class="cls-1" cx="313.1" cy="176.04" rx="10.19" ry="24.45"/><ellipse class="cls-1" cx="251.96" cy="162.46" rx="10.19" ry="24.45"/><ellipse class="cls-1" cx="272.33" cy="162.46" rx="10.19" ry="24.45"/><ellipse class="cls-1" cx="323.29" cy="190.98" rx="10.19" ry="24.45"/><ellipse class="cls-1" cx="285.08" cy="185.21" rx="10.19" ry="24.45"/><ellipse class="cls-1" cx="244.31" cy="163.47" rx="10.19" ry="24.45"/><ellipse class="cls-1" cx="295.27" cy="185.21" rx="10.19" ry="24.45"/><ellipse class="cls-1" cx="234.12" cy="171.62" rx="10.19" ry="24.45"/><ellipse class="cls-1" cx="254.5" cy="171.62" rx="10.19" ry="24.45"/><ellipse class="cls-1" cx="305.45" cy="200.15" rx="10.19" ry="24.45"/><ellipse class="cls-1" cx="249.41" cy="188.61" rx="10.19" ry="24.45"/><ellipse class="cls-1" cx="208.65" cy="166.87" rx="10.19" ry="24.45"/><ellipse class="cls-1" cx="259.6" cy="188.61" rx="10.19" ry="24.45"/><ellipse class="cls-1" cx="198.46" cy="175.02" rx="10.19" ry="24.45"/><ellipse class="cls-1" cx="218.83" cy="175.02" rx="10.19" ry="24.45"/><ellipse class="cls-1" cx="269.79" cy="203.55" rx="10.19" ry="24.45"/><ellipse class="cls-1" cx="804.56" cy="461.03" rx="10.19" ry="24.45"/><ellipse class="cls-1" cx="814.74" cy="461.03" rx="10.19" ry="24.45"/><ellipse class="cls-1" cx="753.6" cy="447.45" rx="10.19" ry="24.45"/><ellipse class="cls-1" cx="773.98" cy="447.45" rx="10.19" ry="24.45"/><ellipse class="cls-1" cx="824.93" cy="475.98" rx="10.19" ry="24.45"/><ellipse class="cls-1" cx="768.89" cy="464.43" rx="10.19" ry="24.45"/><ellipse class="cls-1" cx="728.12" cy="442.69" rx="10.19" ry="24.45"/><ellipse class="cls-1" cx="779.08" cy="464.43" rx="10.19" ry="24.45"/><ellipse class="cls-1" cx="717.94" cy="450.85" rx="10.19" ry="24.45"/><ellipse class="cls-1" cx="738.31" cy="450.85" rx="10.19" ry="24.45"/><ellipse class="cls-1" cx="789.27" cy="479.37" rx="10.19" ry="24.45"/><ellipse class="cls-1" cx="751.06" cy="473.6" rx="10.19" ry="24.45"/><ellipse class="cls-1" cx="710.29" cy="451.86" rx="10.19" ry="24.45"/><ellipse class="cls-1" cx="761.25" cy="473.6" rx="10.19" ry="24.45"/><ellipse class="cls-1" cx="700.1" cy="460.02" rx="10.19" ry="24.45"/><ellipse class="cls-1" cx="720.48" cy="460.02" rx="10.19" ry="24.45"/><ellipse class="cls-1" cx="771.43" cy="488.54" rx="10.19" ry="24.45"/><ellipse class="cls-1" cx="715.39" cy="477" rx="10.19" ry="24.45"/><ellipse class="cls-1" cx="674.63" cy="455.26" rx="10.19" ry="24.45"/><ellipse class="cls-1" cx="725.58" cy="477" rx="10.19" ry="24.45"/><ellipse class="cls-1" cx="664.44" cy="463.41" rx="10.19" ry="24.45"/><ellipse class="cls-1" cx="684.81" cy="463.41" rx="10.19" ry="24.45"/><ellipse class="cls-1" cx="735.77" cy="491.94" rx="10.19" ry="24.45"/><ellipse class="cls-1" cx="596.29" cy="467.56" rx="10.19" ry="24.45"/><ellipse class="cls-1" cx="606.47" cy="467.56" rx="10.19" ry="24.45"/><ellipse class="cls-1" cx="545.33" cy="453.98" rx="10.19" ry="24.45"/><ellipse class="cls-1" cx="565.71" cy="453.98" rx="10.19" ry="24.45"/><ellipse class="cls-1" cx="616.66" cy="482.5" rx="10.19" ry="24.45"/><ellipse class="cls-1" cx="560.62" cy="470.96" rx="10.19" ry="24.45"/><ellipse class="cls-1" cx="519.85" cy="449.22" rx="10.19" ry="24.45"/><ellipse class="cls-1" cx="570.81" cy="470.96" rx="10.19" ry="24.45"/><ellipse class="cls-1" cx="509.67" cy="457.37" rx="10.19" ry="24.45"/><ellipse class="cls-1" cx="530.04" cy="457.37" rx="10.19" ry="24.45"/><ellipse class="cls-1" cx="581" cy="485.9" rx="10.19" ry="24.45"/><ellipse class="cls-1" cx="542.79" cy="480.13" rx="10.19" ry="24.45"/><ellipse class="cls-1" cx="502.02" cy="458.39" rx="10.19" ry="24.45"/><ellipse class="cls-1" cx="552.98" cy="480.13" rx="10.19" ry="24.45"/><ellipse class="cls-1" cx="491.83" cy="466.54" rx="10.19" ry="24.45"/><ellipse class="cls-1" cx="512.21" cy="466.54" rx="10.19" ry="24.45"/><ellipse class="cls-1" cx="563.16" cy="495.07" rx="10.19" ry="24.45"/><ellipse class="cls-1" cx="507.12" cy="483.52" rx="10.19" ry="24.45"/><ellipse class="cls-1" cx="466.35" cy="461.79" rx="10.19" ry="24.45"/><ellipse class="cls-1" cx="517.31" cy="483.52" rx="10.19" ry="24.45"/><ellipse class="cls-1" cx="456.17" cy="469.94" rx="10.19" ry="24.45"/><ellipse class="cls-1" cx="476.54" cy="469.94" rx="10.19" ry="24.45"/><ellipse class="cls-1" cx="527.5" cy="498.47" rx="10.19" ry="24.45"/><ellipse class="cls-1" cx="956.69" cy="214.54" rx="10.19" ry="24.45"/><ellipse class="cls-1" cx="966.88" cy="214.54" rx="10.19" ry="24.45"/><ellipse class="cls-1" cx="905.74" cy="200.96" rx="10.19" ry="24.45"/><ellipse class="cls-1" cx="926.12" cy="200.96" rx="10.19" ry="24.45"/><ellipse class="cls-1" cx="977.07" cy="229.48" rx="10.19" ry="24.45"/><ellipse class="cls-1" cx="921.03" cy="217.94" rx="10.19" ry="24.45"/><ellipse class="cls-1" cx="880.26" cy="196.2" rx="10.19" ry="24.45"/><ellipse class="cls-1" cx="931.22" cy="217.94" rx="10.19" ry="24.45"/><ellipse class="cls-1" cx="870.07" cy="204.35" rx="10.19" ry="24.45"/><ellipse class="cls-1" cx="890.45" cy="204.35" rx="10.19" ry="24.45"/><ellipse class="cls-1" cx="941.41" cy="232.88" rx="10.19" ry="24.45"/><ellipse class="cls-1" cx="903.2" cy="227.11" rx="10.19" ry="24.45"/><ellipse class="cls-1" cx="862.43" cy="205.37" rx="10.19" ry="24.45"/><ellipse class="cls-1" cx="913.38" cy="227.11" rx="10.19" ry="24.45"/><ellipse class="cls-1" cx="852.24" cy="213.52" rx="10.19" ry="24.45"/><ellipse class="cls-1" cx="872.62" cy="213.52" rx="10.19" ry="24.45"/><ellipse class="cls-1" cx="923.57" cy="242.05" rx="10.19" ry="24.45"/><ellipse class="cls-1" cx="867.53" cy="230.5" rx="10.19" ry="24.45"/><ellipse class="cls-1" cx="826.76" cy="208.77" rx="10.19" ry="24.45"/><ellipse class="cls-1" cx="877.72" cy="230.5" rx="10.19" ry="24.45"/><ellipse class="cls-1" cx="816.58" cy="216.92" rx="10.19" ry="24.45"/><ellipse class="cls-1" cx="836.95" cy="216.92" rx="10.19" ry="24.45"/><ellipse class="cls-1" cx="887.91" cy="245.45" rx="10.19" ry="24.45"/><ellipse class="cls-1" cx="719.66" cy="62.66" rx="10.19" ry="24.45"/><ellipse class="cls-1" cx="713.66" cy="236.75" rx="10.19" ry="24.45"/><ellipse class="cls-1" cx="729.85" cy="62.66" rx="10.19" ry="24.45"/><ellipse class="cls-1" cx="668.7" cy="49.07" rx="10.19" ry="24.45"/><ellipse class="cls-1" cx="689.08" cy="49.07" rx="10.19" ry="24.45"/><ellipse class="cls-1" cx="740.04" cy="77.6" rx="10.19" ry="24.45"/><ellipse class="cls-1" cx="683.99" cy="66.06" rx="10.19" ry="24.45"/><ellipse class="cls-1" cx="643.23" cy="44.32" rx="10.19" ry="24.45"/><ellipse class="cls-1" cx="694.18" cy="66.06" rx="10.19" ry="24.45"/><ellipse class="cls-1" cx="633.04" cy="52.47" rx="10.19" ry="24.45"/><ellipse class="cls-1" cx="653.42" cy="52.47" rx="10.19" ry="24.45"/><ellipse class="cls-1" cx="704.37" cy="81" rx="10.19" ry="24.45"/><ellipse class="cls-1" cx="666.16" cy="75.23" rx="10.19" ry="24.45"/><ellipse class="cls-1" cx="625.39" cy="53.49" rx="10.19" ry="24.45"/><ellipse class="cls-1" cx="676.35" cy="75.23" rx="10.19" ry="24.45"/><ellipse class="cls-1" cx="615.21" cy="61.64" rx="10.19" ry="24.45"/><ellipse class="cls-1" cx="635.58" cy="61.64" rx="10.19" ry="24.45"/><ellipse class="cls-1" cx="686.54" cy="90.17" rx="10.19" ry="24.45"/><ellipse class="cls-1" cx="630.49" cy="78.62" rx="10.19" ry="24.45"/><ellipse class="cls-1" cx="589.73" cy="56.89" rx="10.19" ry="24.45"/><ellipse class="cls-1" cx="640.68" cy="78.62" rx="10.19" ry="24.45"/><ellipse class="cls-1" cx="579.54" cy="65.04" rx="10.19" ry="24.45"/><ellipse class="cls-1" cx="599.92" cy="65.04" rx="10.19" ry="24.45"/><ellipse class="cls-1" cx="650.87" cy="93.56" rx="10.19" ry="24.45"/><ellipse class="cls-1" cx="629.22" cy="89.49" rx="10.19" ry="24.45"/><ellipse class="cls-1" cx="639.41" cy="89.49" rx="10.19" ry="24.45"/><ellipse class="cls-1" cx="578.27" cy="75.9" rx="10.19" ry="24.45"/><ellipse class="cls-1" cx="598.65" cy="75.9" rx="10.19" ry="24.45"/><ellipse class="cls-1" cx="649.6" cy="104.43" rx="10.19" ry="24.45"/><ellipse class="cls-1" cx="593.56" cy="92.89" rx="10.19" ry="24.45"/><ellipse class="cls-1" cx="552.79" cy="71.15" rx="10.19" ry="24.45"/><ellipse class="cls-1" cx="603.75" cy="92.89" rx="10.19" ry="24.45"/><ellipse class="cls-1" cx="542.6" cy="79.3" rx="10.19" ry="24.45"/><ellipse class="cls-1" cx="562.98" cy="79.3" rx="10.19" ry="24.45"/><ellipse class="cls-1" cx="613.93" cy="107.83" rx="10.19" ry="24.45"/><ellipse class="cls-1" cx="575.72" cy="102.05" rx="10.19" ry="24.45"/><ellipse class="cls-1" cx="534.96" cy="80.32" rx="10.19" ry="24.45"/><ellipse class="cls-1" cx="585.91" cy="102.05" rx="10.19" ry="24.45"/><ellipse class="cls-1" cx="524.77" cy="88.47" rx="10.19" ry="24.45"/><ellipse class="cls-1" cx="545.15" cy="88.47" rx="10.19" ry="24.45"/><ellipse class="cls-1" cx="596.1" cy="117" rx="10.19" ry="24.45"/><ellipse class="cls-1" cx="540.06" cy="105.45" rx="10.19" ry="24.45"/><ellipse class="cls-1" cx="499.29" cy="83.72" rx="10.19" ry="24.45"/><ellipse class="cls-1" cx="550.25" cy="105.45" rx="10.19" ry="24.45"/><ellipse class="cls-1" cx="489.1" cy="91.87" rx="10.19" ry="24.45"/><ellipse class="cls-1" cx="509.48" cy="91.87" rx="10.19" ry="24.45"/><ellipse class="cls-1" cx="560.44" cy="120.39" rx="10.19" ry="24.45"/><ellipse class="cls-1" cx="706.91" cy="125.66" rx="10.19" ry="24.45"/><ellipse class="cls-1" cx="717.1" cy="125.66" rx="10.19" ry="24.45"/><ellipse class="cls-1" cx="655.96" cy="112.07" rx="10.19" ry="24.45"/><ellipse class="cls-1" cx="676.34" cy="112.07" rx="10.19" ry="24.45"/><ellipse class="cls-1" cx="727.29" cy="140.6" rx="10.19" ry="24.45"/><ellipse class="cls-1" cx="671.25" cy="129.05" rx="10.19" ry="24.45"/><ellipse class="cls-1" cx="630.48" cy="107.32" rx="10.19" ry="24.45"/><ellipse class="cls-1" cx="681.44" cy="129.05" rx="10.19" ry="24.45"/><ellipse class="cls-1" cx="620.29" cy="115.47" rx="10.19" ry="24.45"/><ellipse class="cls-1" cx="640.67" cy="115.47" rx="10.19" ry="24.45"/><ellipse class="cls-1" cx="691.63" cy="144" rx="10.19" ry="24.45"/><ellipse class="cls-1" cx="653.42" cy="138.22" rx="10.19" ry="24.45"/><ellipse class="cls-1" cx="612.65" cy="116.49" rx="10.19" ry="24.45"/><ellipse class="cls-1" cx="663.6" cy="138.22" rx="10.19" ry="24.45"/><ellipse class="cls-1" cx="602.46" cy="124.64" rx="10.19" ry="24.45"/><ellipse class="cls-1" cx="622.84" cy="124.64" rx="10.19" ry="24.45"/><ellipse class="cls-1" cx="673.79" cy="153.17" rx="10.19" ry="24.45"/><ellipse class="cls-1" cx="617.75" cy="141.62" rx="10.19" ry="24.45"/><ellipse class="cls-1" cx="576.98" cy="119.88" rx="10.19" ry="24.45"/><ellipse class="cls-1" cx="627.94" cy="141.62" rx="10.19" ry="24.45"/><ellipse class="cls-1" cx="566.8" cy="128.04" rx="10.19" ry="24.45"/><ellipse class="cls-1" cx="587.17" cy="128.04" rx="10.19" ry="24.45"/><ellipse class="cls-1" cx="638.13" cy="156.56" rx="10.19" ry="24.45"/><ellipse class="cls-1" cx="866.26" cy="154.3" rx="10.19" ry="24.45"/><ellipse class="cls-1" cx="876.45" cy="154.3" rx="10.19" ry="24.45"/><ellipse class="cls-1" cx="815.3" cy="140.72" rx="10.19" ry="24.45"/><ellipse class="cls-1" cx="835.68" cy="140.72" rx="10.19" ry="24.45"/><ellipse class="cls-1" cx="886.63" cy="169.25" rx="10.19" ry="24.45"/><ellipse class="cls-1" cx="830.59" cy="157.7" rx="10.19" ry="24.45"/><ellipse class="cls-1" cx="789.83" cy="135.97" rx="10.19" ry="24.45"/><ellipse class="cls-1" cx="840.78" cy="157.7" rx="10.19" ry="24.45"/><ellipse class="cls-1" cx="779.64" cy="144.12" rx="10.19" ry="24.45"/><ellipse class="cls-1" cx="800.01" cy="144.12" rx="10.19" ry="24.45"/><ellipse class="cls-1" cx="850.97" cy="172.64" rx="10.19" ry="24.45"/><ellipse class="cls-1" cx="812.76" cy="166.87" rx="10.19" ry="24.45"/><ellipse class="cls-1" cx="771.99" cy="145.13" rx="10.19" ry="24.45"/><ellipse class="cls-1" cx="822.95" cy="166.87" rx="10.19" ry="24.45"/><ellipse class="cls-1" cx="761.8" cy="153.29" rx="10.19" ry="24.45"/><ellipse class="cls-1" cx="782.18" cy="153.29" rx="10.19" ry="24.45"/><ellipse class="cls-1" cx="833.14" cy="181.81" rx="10.19" ry="24.45"/><ellipse class="cls-1" cx="777.09" cy="170.27" rx="10.19" ry="24.45"/><ellipse class="cls-1" cx="736.33" cy="148.53" rx="10.19" ry="24.45"/><ellipse class="cls-1" cx="787.28" cy="170.27" rx="10.19" ry="24.45"/><ellipse class="cls-1" cx="726.14" cy="156.68" rx="10.19" ry="24.45"/><ellipse class="cls-1" cx="746.52" cy="156.68" rx="10.19" ry="24.45"/><ellipse class="cls-1" cx="797.47" cy="185.21" rx="10.19" ry="24.45"/><ellipse class="cls-1" cx="805.64" cy="126.59" rx="10.19" ry="24.45"/><ellipse class="cls-1" cx="764.88" cy="104.86" rx="10.19" ry="24.45"/><ellipse class="cls-1" cx="813.7" cy="126.59" rx="10.19" ry="24.45"/><ellipse class="cls-1" cx="754.69" cy="113.01" rx="10.19" ry="24.45"/><ellipse class="cls-1" cx="775.07" cy="113.01" rx="10.19" ry="24.45"/><ellipse class="cls-1" cx="826.02" cy="141.54" rx="10.19" ry="24.45"/><ellipse class="cls-1" cx="769.98" cy="129.99" rx="10.19" ry="24.45"/><ellipse class="cls-1" cx="729.21" cy="108.25" rx="10.19" ry="24.45"/><ellipse class="cls-1" cx="780.17" cy="129.99" rx="10.19" ry="24.45"/><ellipse class="cls-1" cx="719.02" cy="116.4" rx="10.19" ry="24.45"/><ellipse class="cls-1" cx="739.4" cy="116.4" rx="10.19" ry="24.45"/><ellipse class="cls-1" cx="790.35" cy="144.93" rx="10.19" ry="24.45"/><ellipse class="cls-1" cx="752.14" cy="139.16" rx="10.19" ry="24.45"/><ellipse class="cls-1" cx="711.38" cy="117.42" rx="10.19" ry="24.45"/><ellipse class="cls-1" cx="762.33" cy="139.16" rx="10.19" ry="24.45"/><ellipse class="cls-1" cx="701.19" cy="125.57" rx="10.19" ry="24.45"/><ellipse class="cls-1" cx="721.57" cy="125.57" rx="10.19" ry="24.45"/><ellipse class="cls-1" cx="772.52" cy="154.1" rx="10.19" ry="24.45"/><ellipse class="cls-1" cx="716.48" cy="142.55" rx="10.19" ry="24.45"/><ellipse class="cls-1" cx="675.71" cy="120.82" rx="10.19" ry="24.45"/><ellipse class="cls-1" cx="726.67" cy="142.55" rx="10.19" ry="24.45"/><ellipse class="cls-1" cx="665.52" cy="128.97" rx="10.19" ry="24.45"/><ellipse class="cls-1" cx="685.9" cy="128.97" rx="10.19" ry="24.45"/><ellipse class="cls-1" cx="736.86" cy="157.5" rx="10.19" ry="24.45"/><ellipse class="cls-1" cx="687.81" cy="170.99" rx="10.19" ry="24.45"/><ellipse class="cls-1" cx="698" cy="170.99" rx="10.19" ry="24.45"/><ellipse class="cls-1" cx="636.85" cy="157.41" rx="10.19" ry="24.45"/><ellipse class="cls-1" cx="657.23" cy="157.41" rx="10.19" ry="24.45"/><ellipse class="cls-1" cx="708.19" cy="185.93" rx="10.19" ry="24.45"/><ellipse class="cls-1" cx="652.14" cy="174.39" rx="10.19" ry="24.45"/><ellipse class="cls-1" cx="611.38" cy="152.65" rx="10.19" ry="24.45"/><ellipse class="cls-1" cx="662.33" cy="174.39" rx="10.19" ry="24.45"/><ellipse class="cls-1" cx="601.19" cy="160.8" rx="10.19" ry="24.45"/><ellipse class="cls-1" cx="621.57" cy="160.8" rx="10.19" ry="24.45"/><ellipse class="cls-1" cx="672.52" cy="189.33" rx="10.19" ry="24.45"/><ellipse class="cls-1" cx="634.31" cy="183.56" rx="10.19" ry="24.45"/><ellipse class="cls-1" cx="593.54" cy="161.82" rx="10.19" ry="24.45"/><ellipse class="cls-1" cx="644.5" cy="183.56" rx="10.19" ry="24.45"/><ellipse class="cls-1" cx="583.36" cy="169.97" rx="10.19" ry="24.45"/><ellipse class="cls-1" cx="603.73" cy="169.97" rx="10.19" ry="24.45"/><ellipse class="cls-1" cx="654.69" cy="198.5" rx="10.19" ry="24.45"/><ellipse class="cls-1" cx="598.65" cy="186.95" rx="10.19" ry="24.45"/><ellipse class="cls-1" cx="557.88" cy="165.22" rx="10.19" ry="24.45"/><ellipse class="cls-1" cx="608.83" cy="186.95" rx="10.19" ry="24.45"/><ellipse class="cls-1" cx="547.69" cy="173.37" rx="10.19" ry="24.45"/><ellipse class="cls-1" cx="568.07" cy="173.37" rx="10.19" ry="24.45"/><ellipse class="cls-1" cx="619.02" cy="201.9" rx="10.19" ry="24.45"/><ellipse class="cls-1" cx="603.11" cy="138.61" rx="10.19" ry="24.45"/><ellipse class="cls-1" cx="613.3" cy="138.61" rx="10.19" ry="24.45"/><ellipse class="cls-1" cx="623.49" cy="153.55" rx="10.19" ry="24.45"/><ellipse class="cls-1" cx="567.44" cy="142" rx="10.19" ry="24.45"/><ellipse class="cls-1" cx="577.63" cy="142" rx="10.19" ry="24.45"/><ellipse class="cls-1" cx="587.82" cy="156.95" rx="10.19" ry="24.45"/><ellipse class="cls-1" cx="549.61" cy="151.17" rx="10.19" ry="24.45"/><ellipse class="cls-1" cx="559.8" cy="151.17" rx="10.19" ry="24.45"/><ellipse class="cls-1" cx="569.99" cy="166.12" rx="10.19" ry="24.45"/><ellipse class="cls-1" cx="534.32" cy="169.51" rx="10.19" ry="24.45"/><ellipse class="cls-1" cx="512.67" cy="133.44" rx="10.19" ry="24.45"/><ellipse class="cls-1" cx="522.86" cy="133.44" rx="10.19" ry="24.45"/><ellipse class="cls-1" cx="461.72" cy="119.86" rx="10.19" ry="24.45"/><ellipse class="cls-1" cx="482.1" cy="119.86" rx="10.19" ry="24.45"/><ellipse class="cls-1" cx="533.05" cy="148.39" rx="10.19" ry="24.45"/><ellipse class="cls-1" cx="477.01" cy="136.84" rx="10.19" ry="24.45"/><ellipse class="cls-1" cx="436.24" cy="115.1" rx="10.19" ry="24.45"/><ellipse class="cls-1" cx="487.2" cy="136.84" rx="10.19" ry="24.45"/><ellipse class="cls-1" cx="426.05" cy="123.25" rx="10.19" ry="24.45"/><ellipse class="cls-1" cx="446.43" cy="123.25" rx="10.19" ry="24.45"/><ellipse class="cls-1" cx="497.38" cy="151.78" rx="10.19" ry="24.45"/><ellipse class="cls-1" cx="459.17" cy="146.01" rx="10.19" ry="24.45"/><ellipse class="cls-1" cx="418.41" cy="124.27" rx="10.19" ry="24.45"/><ellipse class="cls-1" cx="469.36" cy="146.01" rx="10.19" ry="24.45"/><ellipse class="cls-1" cx="408.22" cy="132.42" rx="10.19" ry="24.45"/><ellipse class="cls-1" cx="428.6" cy="132.42" rx="10.19" ry="24.45"/><ellipse class="cls-1" cx="479.55" cy="160.95" rx="10.19" ry="24.45"/><ellipse class="cls-1" cx="423.51" cy="149.4" rx="10.19" ry="24.45"/><ellipse class="cls-1" cx="382.74" cy="127.67" rx="10.19" ry="24.45"/><ellipse class="cls-1" cx="433.7" cy="149.4" rx="10.19" ry="24.45"/><ellipse class="cls-1" cx="372.55" cy="135.82" rx="10.19" ry="24.45"/><ellipse class="cls-1" cx="392.93" cy="135.82" rx="10.19" ry="24.45"/><ellipse class="cls-1" cx="443.89" cy="164.35" rx="10.19" ry="24.45"/><ellipse class="cls-1" cx="620.31" cy="171.77" rx="10.19" ry="24.45"/><ellipse class="cls-1" cx="630.49" cy="171.77" rx="10.19" ry="24.45"/><ellipse class="cls-1" cx="569.35" cy="158.19" rx="10.19" ry="24.45"/><ellipse class="cls-1" cx="589.73" cy="158.19" rx="10.19" ry="24.45"/><ellipse class="cls-1" cx="640.68" cy="186.72" rx="10.19" ry="24.45"/><ellipse class="cls-1" cx="584.64" cy="175.17" rx="10.19" ry="24.45"/><ellipse class="cls-1" cx="543.87" cy="153.43" rx="10.19" ry="24.45"/><ellipse class="cls-1" cx="594.83" cy="175.17" rx="10.19" ry="24.45"/><ellipse class="cls-1" cx="533.69" cy="161.59" rx="10.19" ry="24.45"/><ellipse class="cls-1" cx="554.06" cy="161.59" rx="10.19" ry="24.45"/><ellipse class="cls-1" cx="605.02" cy="190.11" rx="10.19" ry="24.45"/><ellipse class="cls-1" cx="566.81" cy="184.34" rx="10.19" ry="24.45"/><ellipse class="cls-1" cx="526.04" cy="162.6" rx="10.19" ry="24.45"/><ellipse class="cls-1" cx="577" cy="184.34" rx="10.19" ry="24.45"/><ellipse class="cls-1" cx="515.85" cy="170.76" rx="10.19" ry="24.45"/><ellipse class="cls-1" cx="536.23" cy="170.76" rx="10.19" ry="24.45"/><ellipse class="cls-1" cx="587.18" cy="199.28" rx="10.19" ry="24.45"/><ellipse class="cls-1" cx="531.14" cy="187.74" rx="10.19" ry="24.45"/><ellipse class="cls-1" cx="490.38" cy="166" rx="10.19" ry="24.45"/><ellipse class="cls-1" cx="541.33" cy="187.74" rx="10.19" ry="24.45"/><ellipse class="cls-1" cx="480.19" cy="174.15" rx="10.19" ry="24.45"/><ellipse class="cls-1" cx="500.56" cy="174.15" rx="10.19" ry="24.45"/><ellipse class="cls-1" cx="551.52" cy="202.68" rx="10.19" ry="24.45"/><ellipse class="cls-1" cx="498.66" cy="178.93" rx="10.19" ry="24.45"/><ellipse class="cls-1" cx="508.84" cy="178.93" rx="10.19" ry="24.45"/><ellipse class="cls-1" cx="447.7" cy="165.34" rx="10.19" ry="24.45"/><ellipse class="cls-1" cx="468.08" cy="165.34" rx="10.19" ry="24.45"/><ellipse class="cls-1" cx="519.03" cy="193.87" rx="10.19" ry="24.45"/><ellipse class="cls-1" cx="462.99" cy="182.32" rx="10.19" ry="24.45"/><ellipse class="cls-1" cx="422.22" cy="160.59" rx="10.19" ry="24.45"/><ellipse class="cls-1" cx="473.18" cy="182.32" rx="10.19" ry="24.45"/><ellipse class="cls-1" cx="412.04" cy="168.74" rx="10.19" ry="24.45"/><ellipse class="cls-1" cx="432.41" cy="168.74" rx="10.19" ry="24.45"/><ellipse class="cls-1" cx="483.37" cy="197.27" rx="10.19" ry="24.45"/><ellipse class="cls-1" cx="445.16" cy="191.49" rx="10.19" ry="24.45"/><ellipse class="cls-1" cx="404.39" cy="169.76" rx="10.19" ry="24.45"/><ellipse class="cls-1" cx="455.35" cy="191.49" rx="10.19" ry="24.45"/><ellipse class="cls-1" cx="394.2" cy="177.91" rx="10.19" ry="24.45"/><ellipse class="cls-1" cx="414.58" cy="177.91" rx="10.19" ry="24.45"/><ellipse class="cls-1" cx="465.53" cy="206.44" rx="10.19" ry="24.45"/><ellipse class="cls-1" cx="409.49" cy="194.89" rx="10.19" ry="24.45"/><ellipse class="cls-1" cx="368.73" cy="173.15" rx="10.19" ry="24.45"/><ellipse class="cls-1" cx="419.68" cy="194.89" rx="10.19" ry="24.45"/><ellipse class="cls-1" cx="358.54" cy="181.3" rx="10.19" ry="24.45"/><ellipse class="cls-1" cx="378.91" cy="181.3" rx="10.19" ry="24.45"/><ellipse class="cls-1" cx="429.87" cy="209.83" rx="10.19" ry="24.45"/><ellipse class="cls-1" cx="383.16" cy="158.6" rx="10.19" ry="24.45"/><ellipse class="cls-1" cx="393.35" cy="158.6" rx="10.19" ry="24.45"/><ellipse class="cls-1" cx="332.2" cy="145.01" rx="10.19" ry="24.45"/><ellipse class="cls-1" cx="352.58" cy="145.01" rx="10.19" ry="24.45"/><ellipse class="cls-1" cx="403.54" cy="173.54" rx="10.19" ry="24.45"/><ellipse class="cls-1" cx="347.49" cy="161.99" rx="10.19" ry="24.45"/><ellipse class="cls-1" cx="306.73" cy="140.26" rx="10.19" ry="24.45"/><ellipse class="cls-1" cx="357.68" cy="161.99" rx="10.19" ry="24.45"/><ellipse class="cls-1" cx="296.54" cy="148.41" rx="10.19" ry="24.45"/><ellipse class="cls-1" cx="316.92" cy="148.41" rx="10.19" ry="24.45"/><ellipse class="cls-1" cx="367.87" cy="176.93" rx="10.19" ry="24.45"/><ellipse class="cls-1" cx="329.66" cy="171.16" rx="10.19" ry="24.45"/><ellipse class="cls-1" cx="288.89" cy="149.43" rx="10.19" ry="24.45"/><ellipse class="cls-1" cx="339.85" cy="171.16" rx="10.19" ry="24.45"/><ellipse class="cls-1" cx="278.71" cy="157.58" rx="10.19" ry="24.45"/><ellipse class="cls-1" cx="299.08" cy="157.58" rx="10.19" ry="24.45"/><ellipse class="cls-1" cx="350.04" cy="186.1" rx="10.19" ry="24.45"/><ellipse class="cls-1" cx="293.99" cy="174.56" rx="10.19" ry="24.45"/><ellipse class="cls-1" cx="253.23" cy="152.82" rx="10.19" ry="24.45"/><ellipse class="cls-1" cx="304.18" cy="174.56" rx="10.19" ry="24.45"/><ellipse class="cls-1" cx="243.04" cy="160.97" rx="10.19" ry="24.45"/><ellipse class="cls-1" cx="263.42" cy="160.97" rx="10.19" ry="24.45"/><ellipse class="cls-1" cx="314.37" cy="189.5" rx="10.19" ry="24.45"/><ellipse class="cls-1" cx="792.63" cy="211.36" rx="10.19" ry="24.45"/><ellipse class="cls-1" cx="802.82" cy="211.36" rx="10.19" ry="24.45"/><ellipse class="cls-1" cx="741.68" cy="197.78" rx="10.19" ry="24.45"/><ellipse class="cls-1" cx="762.06" cy="197.78" rx="10.19" ry="24.45"/><ellipse class="cls-1" cx="813.01" cy="226.3" rx="10.19" ry="24.45"/><ellipse class="cls-1" cx="756.97" cy="214.76" rx="10.19" ry="24.45"/><ellipse class="cls-1" cx="716.2" cy="193.02" rx="10.19" ry="24.45"/><ellipse class="cls-1" cx="767.16" cy="214.76" rx="10.19" ry="24.45"/><ellipse class="cls-1" cx="706.01" cy="201.17" rx="10.19" ry="24.45"/><ellipse class="cls-1" cx="726.39" cy="201.17" rx="10.19" ry="24.45"/><ellipse class="cls-1" cx="777.35" cy="229.7" rx="10.19" ry="24.45"/><ellipse class="cls-1" cx="739.14" cy="223.93" rx="10.19" ry="24.45"/><ellipse class="cls-1" cx="698.37" cy="202.19" rx="10.19" ry="24.45"/><ellipse class="cls-1" cx="749.32" cy="223.93" rx="10.19" ry="24.45"/><ellipse class="cls-1" cx="688.18" cy="210.34" rx="10.19" ry="24.45"/><ellipse class="cls-1" cx="708.56" cy="210.34" rx="10.19" ry="24.45"/><ellipse class="cls-1" cx="759.51" cy="238.87" rx="10.19" ry="24.45"/><ellipse class="cls-1" cx="703.47" cy="227.32" rx="10.19" ry="24.45"/><ellipse class="cls-1" cx="662.7" cy="205.59" rx="10.19" ry="24.45"/><ellipse class="cls-1" cx="713.66" cy="227.32" rx="10.19" ry="24.45"/><ellipse class="cls-1" cx="652.52" cy="213.74" rx="10.19" ry="24.45"/><ellipse class="cls-1" cx="672.89" cy="213.74" rx="10.19" ry="24.45"/><ellipse class="cls-1" cx="723.85" cy="242.27" rx="10.19" ry="24.45"/><ellipse class="cls-1" cx="915.94" cy="205.4" rx="10.19" ry="24.45"/><ellipse class="cls-1" cx="926.13" cy="205.4" rx="10.19" ry="24.45"/><ellipse class="cls-1" cx="864.99" cy="191.81" rx="10.19" ry="24.45"/><ellipse class="cls-1" cx="885.36" cy="191.81" rx="10.19" ry="24.45"/><ellipse class="cls-1" cx="936.32" cy="220.34" rx="10.19" ry="24.45"/><ellipse class="cls-1" cx="880.27" cy="208.79" rx="10.19" ry="24.45"/><ellipse class="cls-1" cx="839.51" cy="187.06" rx="10.19" ry="24.45"/><ellipse class="cls-1" cx="890.46" cy="208.79" rx="10.19" ry="24.45"/><ellipse class="cls-1" cx="829.32" cy="195.21" rx="10.19" ry="24.45"/><ellipse class="cls-1" cx="849.7" cy="195.21" rx="10.19" ry="24.45"/><ellipse class="cls-1" cx="900.65" cy="223.74" rx="10.19" ry="24.45"/><ellipse class="cls-1" cx="862.44" cy="217.96" rx="10.19" ry="24.45"/><ellipse class="cls-1" cx="821.68" cy="196.23" rx="10.19" ry="24.45"/><ellipse class="cls-1" cx="872.63" cy="217.96" rx="10.19" ry="24.45"/><ellipse class="cls-1" cx="811.49" cy="204.38" rx="10.19" ry="24.45"/><ellipse class="cls-1" cx="831.86" cy="204.38" rx="10.19" ry="24.45"/><ellipse class="cls-1" cx="882.82" cy="232.91" rx="10.19" ry="24.45"/><ellipse class="cls-1" cx="826.78" cy="221.36" rx="10.19" ry="24.45"/><ellipse class="cls-1" cx="786.01" cy="199.62" rx="10.19" ry="24.45"/><ellipse class="cls-1" cx="836.96" cy="221.36" rx="10.19" ry="24.45"/><ellipse class="cls-1" cx="775.82" cy="207.77" rx="10.19" ry="24.45"/><ellipse class="cls-1" cx="796.2" cy="207.77" rx="10.19" ry="24.45"/><ellipse class="cls-1" cx="847.15" cy="236.3" rx="10.19" ry="24.45"/><ellipse class="cls-1" cx="443.03" cy="200.49" rx="10.19" ry="24.45"/><ellipse class="cls-1" cx="453.22" cy="200.49" rx="10.19" ry="24.45"/><ellipse class="cls-1" cx="392.07" cy="186.91" rx="10.19" ry="24.45"/><ellipse class="cls-1" cx="412.45" cy="186.91" rx="10.19" ry="24.45"/><ellipse class="cls-1" cx="463.41" cy="215.44" rx="10.19" ry="24.45"/><ellipse class="cls-1" cx="407.36" cy="203.89" rx="10.19" ry="24.45"/><ellipse class="cls-1" cx="366.6" cy="182.15" rx="10.19" ry="24.45"/><ellipse class="cls-1" cx="417.55" cy="203.89" rx="10.19" ry="24.45"/><ellipse class="cls-1" cx="356.41" cy="190.3" rx="10.19" ry="24.45"/><ellipse class="cls-1" cx="376.79" cy="190.3" rx="10.19" ry="24.45"/><ellipse class="cls-1" cx="427.74" cy="218.83" rx="10.19" ry="24.45"/><ellipse class="cls-1" cx="389.53" cy="213.06" rx="10.19" ry="24.45"/><ellipse class="cls-1" cx="348.76" cy="191.32" rx="10.19" ry="24.45"/><ellipse class="cls-1" cx="399.72" cy="213.06" rx="10.19" ry="24.45"/><ellipse class="cls-1" cx="338.58" cy="199.47" rx="10.19" ry="24.45"/><ellipse class="cls-1" cx="358.95" cy="199.47" rx="10.19" ry="24.45"/><ellipse class="cls-1" cx="409.91" cy="228" rx="10.19" ry="24.45"/><ellipse class="cls-1" cx="353.86" cy="216.45" rx="10.19" ry="24.45"/><ellipse class="cls-1" cx="313.1" cy="194.72" rx="10.19" ry="24.45"/><ellipse class="cls-1" cx="364.05" cy="216.45" rx="10.19" ry="24.45"/><ellipse class="cls-1" cx="302.91" cy="202.87" rx="10.19" ry="24.45"/><ellipse class="cls-1" cx="323.29" cy="202.87" rx="10.19" ry="24.45"/><ellipse class="cls-1" cx="374.24" cy="231.4" rx="10.19" ry="24.45"/><ellipse class="cls-1" cx="492.3" cy="513.49" rx="10.19" ry="24.45"/><ellipse class="cls-1" cx="502.48" cy="513.49" rx="10.19" ry="24.45"/><ellipse class="cls-1" cx="441.34" cy="499.91" rx="10.19" ry="24.45"/><ellipse class="cls-1" cx="461.72" cy="499.91" rx="10.19" ry="24.45"/><ellipse class="cls-1" cx="512.67" cy="528.44" rx="10.19" ry="24.45"/><ellipse class="cls-1" cx="456.63" cy="516.89" rx="10.19" ry="24.45"/><ellipse class="cls-1" cx="415.86" cy="495.16" rx="10.19" ry="24.45"/><ellipse class="cls-1" cx="466.82" cy="516.89" rx="10.19" ry="24.45"/><ellipse class="cls-1" cx="405.68" cy="503.31" rx="10.19" ry="24.45"/><ellipse class="cls-1" cx="426.05" cy="503.31" rx="10.19" ry="24.45"/><ellipse class="cls-1" cx="477.01" cy="531.83" rx="10.19" ry="24.45"/><ellipse class="cls-1" cx="438.8" cy="526.06" rx="10.19" ry="24.45"/><ellipse class="cls-1" cx="398.03" cy="504.32" rx="10.19" ry="24.45"/><ellipse class="cls-1" cx="448.99" cy="526.06" rx="10.19" ry="24.45"/><ellipse class="cls-1" cx="387.84" cy="512.48" rx="10.19" ry="24.45"/><ellipse class="cls-1" cx="408.22" cy="512.48" rx="10.19" ry="24.45"/><ellipse class="cls-1" cx="459.17" cy="541" rx="10.19" ry="24.45"/><ellipse class="cls-1" cx="403.13" cy="529.46" rx="10.19" ry="24.45"/><ellipse class="cls-1" cx="362.37" cy="507.72" rx="10.19" ry="24.45"/><ellipse class="cls-1" cx="413.32" cy="529.46" rx="10.19" ry="24.45"/><ellipse class="cls-1" cx="352.18" cy="515.87" rx="10.19" ry="24.45"/><ellipse class="cls-1" cx="372.55" cy="515.87" rx="10.19" ry="24.45"/><ellipse class="cls-1" cx="423.51" cy="544.4" rx="10.19" ry="24.45"/><ellipse class="cls-1" cx="639.41" cy="496.15" rx="10.19" ry="24.45"/><ellipse class="cls-1" cx="649.6" cy="496.15" rx="10.19" ry="24.45"/><ellipse class="cls-1" cx="588.46" cy="482.56" rx="10.19" ry="24.45"/><ellipse class="cls-1" cx="608.83" cy="482.56" rx="10.19" ry="24.45"/><ellipse class="cls-1" cx="659.79" cy="511.09" rx="10.19" ry="24.45"/><ellipse class="cls-1" cx="603.75" cy="499.54" rx="10.19" ry="24.45"/><ellipse class="cls-1" cx="562.98" cy="477.81" rx="10.19" ry="24.45"/><ellipse class="cls-1" cx="613.93" cy="499.54" rx="10.19" ry="24.45"/><ellipse class="cls-1" cx="552.79" cy="485.96" rx="10.19" ry="24.45"/><ellipse class="cls-1" cx="573.17" cy="485.96" rx="10.19" ry="24.45"/><ellipse class="cls-1" cx="624.12" cy="514.48" rx="10.19" ry="24.45"/><ellipse class="cls-1" cx="585.91" cy="508.71" rx="10.19" ry="24.45"/><ellipse class="cls-1" cx="545.15" cy="486.98" rx="10.19" ry="24.45"/><ellipse class="cls-1" cx="596.1" cy="508.71" rx="10.19" ry="24.45"/><ellipse class="cls-1" cx="534.96" cy="495.13" rx="10.19" ry="24.45"/><ellipse class="cls-1" cx="555.33" cy="495.13" rx="10.19" ry="24.45"/><ellipse class="cls-1" cx="606.29" cy="523.65" rx="10.19" ry="24.45"/><ellipse class="cls-1" cx="550.25" cy="512.11" rx="10.19" ry="24.45"/><ellipse class="cls-1" cx="509.48" cy="490.37" rx="10.19" ry="24.45"/><ellipse class="cls-1" cx="560.44" cy="512.11" rx="10.19" ry="24.45"/><ellipse class="cls-1" cx="499.29" cy="498.52" rx="10.19" ry="24.45"/><ellipse class="cls-1" cx="519.67" cy="498.52" rx="10.19" ry="24.45"/><ellipse class="cls-1" cx="570.62" cy="527.05" rx="10.19" ry="24.45"/><ellipse class="cls-1" cx="539.42" cy="515.36" rx="10.19" ry="24.45"/><ellipse class="cls-1" cx="549.61" cy="515.36" rx="10.19" ry="24.45"/><ellipse class="cls-1" cx="488.47" cy="501.77" rx="10.19" ry="24.45"/><ellipse class="cls-1" cx="508.84" cy="501.77" rx="10.19" ry="24.45"/><ellipse class="cls-1" cx="559.8" cy="530.3" rx="10.19" ry="24.45"/><ellipse class="cls-1" cx="503.76" cy="518.76" rx="10.19" ry="24.45"/><ellipse class="cls-1" cx="462.99" cy="497.02" rx="10.19" ry="24.45"/><ellipse class="cls-1" cx="513.94" cy="518.76" rx="10.19" ry="24.45"/><ellipse class="cls-1" cx="452.8" cy="505.17" rx="10.19" ry="24.45"/><ellipse class="cls-1" cx="473.18" cy="505.17" rx="10.19" ry="24.45"/><ellipse class="cls-1" cx="524.13" cy="533.7" rx="10.19" ry="24.45"/><ellipse class="cls-1" cx="485.92" cy="527.92" rx="10.19" ry="24.45"/><ellipse class="cls-1" cx="445.16" cy="506.19" rx="10.19" ry="24.45"/><ellipse class="cls-1" cx="496.11" cy="527.92" rx="10.19" ry="24.45"/><ellipse class="cls-1" cx="434.97" cy="514.34" rx="10.19" ry="24.45"/><ellipse class="cls-1" cx="455.35" cy="514.34" rx="10.19" ry="24.45"/><ellipse class="cls-1" cx="506.3" cy="542.87" rx="10.19" ry="24.45"/><ellipse class="cls-1" cx="450.26" cy="531.32" rx="10.19" ry="24.45"/><ellipse class="cls-1" cx="409.49" cy="509.59" rx="10.19" ry="24.45"/><ellipse class="cls-1" cx="460.45" cy="531.32" rx="10.19" ry="24.45"/><ellipse class="cls-1" cx="399.3" cy="517.74" rx="10.19" ry="24.45"/><ellipse class="cls-1" cx="419.68" cy="517.74" rx="10.19" ry="24.45"/><ellipse class="cls-1" cx="470.63" cy="546.26" rx="10.19" ry="24.45"/><ellipse class="cls-1" cx="462.99" cy="472.15" rx="10.19" ry="24.45"/><ellipse class="cls-1" cx="473.18" cy="472.15" rx="10.19" ry="24.45"/><ellipse class="cls-1" cx="412.04" cy="458.56" rx="10.19" ry="24.45"/><ellipse class="cls-1" cx="432.41" cy="458.56" rx="10.19" ry="24.45"/><ellipse class="cls-1" cx="483.37" cy="487.09" rx="10.19" ry="24.45"/><ellipse class="cls-1" cx="427.32" cy="475.54" rx="10.19" ry="24.45"/><ellipse class="cls-1" cx="386.56" cy="453.81" rx="10.19" ry="24.45"/><ellipse class="cls-1" cx="437.51" cy="475.54" rx="10.19" ry="24.45"/><ellipse class="cls-1" cx="376.37" cy="461.96" rx="10.19" ry="24.45"/><ellipse class="cls-1" cx="396.75" cy="461.96" rx="10.19" ry="24.45"/><ellipse class="cls-1" cx="447.7" cy="490.49" rx="10.19" ry="24.45"/><ellipse class="cls-1" cx="409.49" cy="484.71" rx="10.19" ry="24.45"/><ellipse class="cls-1" cx="368.73" cy="462.98" rx="10.19" ry="24.45"/><ellipse class="cls-1" cx="419.68" cy="484.71" rx="10.19" ry="24.45"/><ellipse class="cls-1" cx="358.54" cy="471.13" rx="10.19" ry="24.45"/><ellipse class="cls-1" cx="378.91" cy="471.13" rx="10.19" ry="24.45"/><ellipse class="cls-1" cx="429.87" cy="499.66" rx="10.19" ry="24.45"/><ellipse class="cls-1" cx="373.83" cy="488.11" rx="10.19" ry="24.45"/><ellipse class="cls-1" cx="333.06" cy="466.37" rx="10.19" ry="24.45"/><ellipse class="cls-1" cx="384.01" cy="488.11" rx="10.19" ry="24.45"/><ellipse class="cls-1" cx="322.87" cy="474.52" rx="10.19" ry="24.45"/><ellipse class="cls-1" cx="343.25" cy="474.52" rx="10.19" ry="24.45"/><ellipse class="cls-1" cx="394.2" cy="503.05" rx="10.19" ry="24.45"/><ellipse class="cls-1" cx="763.34" cy="492.62" rx="10.19" ry="24.45"/><ellipse class="cls-1" cx="773.53" cy="492.62" rx="10.19" ry="24.45"/><ellipse class="cls-1" cx="712.39" cy="479.04" rx="10.19" ry="24.45"/><ellipse class="cls-1" cx="732.76" cy="479.04" rx="10.19" ry="24.45"/><ellipse class="cls-1" cx="783.72" cy="507.56" rx="10.19" ry="24.45"/><ellipse class="cls-1" cx="727.68" cy="496.02" rx="10.19" ry="24.45"/><ellipse class="cls-1" cx="686.91" cy="474.28" rx="10.19" ry="24.45"/><ellipse class="cls-1" cx="737.86" cy="496.02" rx="10.19" ry="24.45"/><ellipse class="cls-1" cx="676.72" cy="482.43" rx="10.19" ry="24.45"/><ellipse class="cls-1" cx="697.1" cy="482.43" rx="10.19" ry="24.45"/><ellipse class="cls-1" cx="748.05" cy="510.96" rx="10.19" ry="24.45"/><ellipse class="cls-1" cx="709.84" cy="505.19" rx="10.19" ry="24.45"/><ellipse class="cls-1" cx="669.08" cy="483.45" rx="10.19" ry="24.45"/><ellipse class="cls-1" cx="720.03" cy="505.19" rx="10.19" ry="24.45"/><ellipse class="cls-1" cx="658.89" cy="491.6" rx="10.19" ry="24.45"/><ellipse class="cls-1" cx="679.26" cy="491.6" rx="10.19" ry="24.45"/><ellipse class="cls-1" cx="730.22" cy="520.13" rx="10.19" ry="24.45"/><ellipse class="cls-1" cx="674.18" cy="508.58" rx="10.19" ry="24.45"/><ellipse class="cls-1" cx="633.41" cy="486.85" rx="10.19" ry="24.45"/><ellipse class="cls-1" cx="684.36" cy="508.58" rx="10.19" ry="24.45"/><ellipse class="cls-1" cx="623.22" cy="495" rx="10.19" ry="24.45"/><ellipse class="cls-1" cx="643.6" cy="495" rx="10.19" ry="24.45"/><ellipse class="cls-1" cx="694.55" cy="523.53" rx="10.19" ry="24.45"/><ellipse class="cls-1" cx="442.61" cy="548.98" rx="10.19" ry="24.45"/><ellipse class="cls-1" cx="452.8" cy="548.98" rx="10.19" ry="24.45"/><ellipse class="cls-1" cx="391.66" cy="535.4" rx="10.19" ry="24.45"/><ellipse class="cls-1" cx="412.04" cy="535.4" rx="10.19" ry="24.45"/><ellipse class="cls-1" cx="462.99" cy="563.92" rx="10.19" ry="24.45"/><ellipse class="cls-1" cx="406.95" cy="552.38" rx="10.19" ry="24.45"/><ellipse class="cls-1" cx="366.18" cy="530.64" rx="10.19" ry="24.45"/><ellipse class="cls-1" cx="417.14" cy="552.38" rx="10.19" ry="24.45"/><ellipse class="cls-1" cx="355.99" cy="538.79" rx="10.19" ry="24.45"/><ellipse class="cls-1" cx="376.37" cy="538.79" rx="10.19" ry="24.45"/><ellipse class="cls-1" cx="427.32" cy="567.32" rx="10.19" ry="24.45"/><ellipse class="cls-1" cx="389.11" cy="561.55" rx="10.19" ry="24.45"/><ellipse class="cls-1" cx="348.35" cy="539.81" rx="10.19" ry="24.45"/><ellipse class="cls-1" cx="399.3" cy="561.55" rx="10.19" ry="24.45"/><ellipse class="cls-1" cx="338.16" cy="547.96" rx="10.19" ry="24.45"/><ellipse class="cls-1" cx="358.54" cy="547.96" rx="10.19" ry="24.45"/><ellipse class="cls-1" cx="409.49" cy="576.49" rx="10.19" ry="24.45"/><ellipse class="cls-1" cx="353.45" cy="564.94" rx="10.19" ry="24.45"/><ellipse class="cls-1" cx="312.68" cy="543.21" rx="10.19" ry="24.45"/><ellipse class="cls-1" cx="363.64" cy="564.94" rx="10.19" ry="24.45"/><ellipse class="cls-1" cx="302.49" cy="551.36" rx="10.19" ry="24.45"/><ellipse class="cls-1" cx="322.87" cy="551.36" rx="10.19" ry="24.45"/><ellipse class="cls-1" cx="373.83" cy="579.89" rx="10.19" ry="24.45"/><ellipse class="cls-1" cx="189.65" cy="533.21" rx="10.19" ry="24.45"/><ellipse class="cls-1" cx="199.83" cy="533.21" rx="10.19" ry="24.45"/><ellipse class="cls-1" cx="138.69" cy="519.62" rx="10.19" ry="24.45"/><ellipse class="cls-1" cx="159.07" cy="519.62" rx="10.19" ry="24.45"/><ellipse class="cls-1" cx="210.02" cy="548.15" rx="10.19" ry="24.45"/><ellipse class="cls-1" cx="153.98" cy="536.6" rx="10.19" ry="24.45"/><ellipse class="cls-1" cx="113.21" cy="514.87" rx="10.19" ry="24.45"/><ellipse class="cls-1" cx="164.17" cy="536.6" rx="10.19" ry="24.45"/><ellipse class="cls-1" cx="103.03" cy="523.02" rx="10.19" ry="24.45"/><ellipse class="cls-1" cx="123.4" cy="523.02" rx="10.19" ry="24.45"/><ellipse class="cls-1" cx="174.36" cy="551.54" rx="10.19" ry="24.45"/><ellipse class="cls-1" cx="136.15" cy="545.77" rx="10.19" ry="24.45"/><ellipse class="cls-1" cx="95.38" cy="524.04" rx="10.19" ry="24.45"/><ellipse class="cls-1" cx="146.34" cy="545.77" rx="10.19" ry="24.45"/><ellipse class="cls-1" cx="85.19" cy="532.19" rx="10.19" ry="24.45"/><ellipse class="cls-1" cx="105.57" cy="532.19" rx="10.19" ry="24.45"/><ellipse class="cls-1" cx="156.52" cy="560.71" rx="10.19" ry="24.45"/><ellipse class="cls-1" cx="100.48" cy="549.17" rx="10.19" ry="24.45"/><ellipse class="cls-1" cx="59.72" cy="527.43" rx="10.19" ry="24.45"/><ellipse class="cls-1" cx="110.67" cy="549.17" rx="10.19" ry="24.45"/><ellipse class="cls-1" cx="49.53" cy="535.58" rx="10.19" ry="24.45"/><ellipse class="cls-1" cx="69.9" cy="535.58" rx="10.19" ry="24.45"/><ellipse class="cls-1" cx="120.86" cy="564.11" rx="10.19" ry="24.45"/><ellipse class="cls-1" cx="249.52" cy="562.57" rx="10.19" ry="24.45"/><ellipse class="cls-1" cx="259.71" cy="562.57" rx="10.19" ry="24.45"/><ellipse class="cls-1" cx="198.56" cy="548.98" rx="10.19" ry="24.45"/><ellipse class="cls-1" cx="218.94" cy="548.98" rx="10.19" ry="24.45"/><ellipse class="cls-1" cx="269.89" cy="577.51" rx="10.19" ry="24.45"/><ellipse class="cls-1" cx="213.85" cy="565.97" rx="10.19" ry="24.45"/><ellipse class="cls-1" cx="173.08" cy="544.23" rx="10.19" ry="24.45"/><ellipse class="cls-1" cx="224.04" cy="565.97" rx="10.19" ry="24.45"/><ellipse class="cls-1" cx="162.9" cy="552.38" rx="10.19" ry="24.45"/><ellipse class="cls-1" cx="183.27" cy="552.38" rx="10.19" ry="24.45"/><ellipse class="cls-1" cx="234.23" cy="580.91" rx="10.19" ry="24.45"/><ellipse class="cls-1" cx="196.02" cy="575.14" rx="10.19" ry="24.45"/><ellipse class="cls-1" cx="155.25" cy="553.4" rx="10.19" ry="24.45"/><ellipse class="cls-1" cx="206.21" cy="575.14" rx="10.19" ry="24.45"/><ellipse class="cls-1" cx="145.06" cy="561.55" rx="10.19" ry="24.45"/><ellipse class="cls-1" cx="165.44" cy="561.55" rx="10.19" ry="24.45"/><ellipse class="cls-1" cx="216.4" cy="590.08" rx="10.19" ry="24.45"/><ellipse class="cls-1" cx="160.35" cy="578.53" rx="10.19" ry="24.45"/><ellipse class="cls-1" cx="119.59" cy="556.8" rx="10.19" ry="24.45"/><ellipse class="cls-1" cx="170.54" cy="578.53" rx="10.19" ry="24.45"/><ellipse class="cls-1" cx="109.4" cy="564.95" rx="10.19" ry="24.45"/><ellipse class="cls-1" cx="129.77" cy="564.95" rx="10.19" ry="24.45"/><ellipse class="cls-1" cx="180.73" cy="593.47" rx="10.19" ry="24.45"/><ellipse class="cls-1" cx="356.41" cy="508.58" rx="10.19" ry="24.45"/><ellipse class="cls-1" cx="366.6" cy="508.58" rx="10.19" ry="24.45"/><ellipse class="cls-1" cx="305.45" cy="495" rx="10.19" ry="24.45"/><ellipse class="cls-1" cx="325.83" cy="495" rx="10.19" ry="24.45"/><ellipse class="cls-1" cx="376.79" cy="523.53" rx="10.19" ry="24.45"/><ellipse class="cls-1" cx="320.74" cy="511.98" rx="10.19" ry="24.45"/><ellipse class="cls-1" cx="279.98" cy="490.24" rx="10.19" ry="24.45"/><ellipse class="cls-1" cx="330.93" cy="511.98" rx="10.19" ry="24.45"/><ellipse class="cls-1" cx="269.79" cy="498.39" rx="10.19" ry="24.45"/><ellipse class="cls-1" cx="290.17" cy="498.39" rx="10.19" ry="24.45"/><ellipse class="cls-1" cx="341.12" cy="526.92" rx="10.19" ry="24.45"/><ellipse class="cls-1" cx="302.91" cy="521.15" rx="10.19" ry="24.45"/><ellipse class="cls-1" cx="262.14" cy="499.41" rx="10.19" ry="24.45"/><ellipse class="cls-1" cx="313.1" cy="521.15" rx="10.19" ry="24.45"/><ellipse class="cls-1" cx="251.96" cy="507.56" rx="10.19" ry="24.45"/><ellipse class="cls-1" cx="272.33" cy="507.56" rx="10.19" ry="24.45"/><ellipse class="cls-1" cx="323.29" cy="536.09" rx="10.19" ry="24.45"/><ellipse class="cls-1" cx="267.24" cy="524.54" rx="10.19" ry="24.45"/><ellipse class="cls-1" cx="226.48" cy="502.81" rx="10.19" ry="24.45"/><ellipse class="cls-1" cx="277.43" cy="524.54" rx="10.19" ry="24.45"/><ellipse class="cls-1" cx="216.29" cy="510.96" rx="10.19" ry="24.45"/><ellipse class="cls-1" cx="236.67" cy="510.96" rx="10.19" ry="24.45"/><ellipse class="cls-1" cx="287.62" cy="539.49" rx="10.19" ry="24.45"/><ellipse class="cls-1" cx="1016.21" cy="577.95" rx="10.19" ry="24.45"/><ellipse class="cls-1" cx="1026.4" cy="577.95" rx="10.19" ry="24.45"/><ellipse class="cls-1" cx="965.25" cy="564.36" rx="10.19" ry="24.45"/><ellipse class="cls-1" cx="985.63" cy="564.36" rx="10.19" ry="24.45"/><ellipse class="cls-1" cx="1036.58" cy="592.89" rx="10.19" ry="24.45"/><ellipse class="cls-1" cx="980.54" cy="581.34" rx="10.19" ry="24.45"/><ellipse class="cls-1" cx="939.78" cy="559.61" rx="10.19" ry="24.45"/><ellipse class="cls-1" cx="990.73" cy="581.34" rx="10.19" ry="24.45"/><ellipse class="cls-1" cx="929.59" cy="567.76" rx="10.19" ry="24.45"/><ellipse class="cls-1" cx="949.96" cy="567.76" rx="10.19" ry="24.45"/><ellipse class="cls-1" cx="1000.92" cy="596.29" rx="10.19" ry="24.45"/><ellipse class="cls-1" cx="962.71" cy="590.51" rx="10.19" ry="24.45"/><ellipse class="cls-1" cx="921.94" cy="568.78" rx="10.19" ry="24.45"/><ellipse class="cls-1" cx="972.9" cy="590.51" rx="10.19" ry="24.45"/><ellipse class="cls-1" cx="911.75" cy="576.93" rx="10.19" ry="24.45"/><ellipse class="cls-1" cx="932.13" cy="576.93" rx="10.19" ry="24.45"/><ellipse class="cls-1" cx="983.09" cy="605.46" rx="10.19" ry="24.45"/><ellipse class="cls-1" cx="927.04" cy="593.91" rx="10.19" ry="24.45"/><ellipse class="cls-1" cx="886.28" cy="572.17" rx="10.19" ry="24.45"/><ellipse class="cls-1" cx="937.23" cy="593.91" rx="10.19" ry="24.45"/><ellipse class="cls-1" cx="876.09" cy="580.32" rx="10.19" ry="24.45"/><ellipse class="cls-1" cx="896.46" cy="580.32" rx="10.19" ry="24.45"/><ellipse class="cls-1" cx="947.42" cy="608.85" rx="10.19" ry="24.45"/><ellipse class="cls-1" cx="1086.61" cy="519.39" rx="10.19" ry="24.45"/><ellipse class="cls-1" cx="1096.8" cy="519.39" rx="10.19" ry="24.45"/><ellipse class="cls-1" cx="1035.66" cy="505.8" rx="10.19" ry="24.45"/><ellipse class="cls-1" cx="1056.04" cy="505.8" rx="10.19" ry="24.45"/><ellipse class="cls-1" cx="1106.99" cy="534.33" rx="10.19" ry="24.45"/><ellipse class="cls-1" cx="1050.95" cy="522.78" rx="10.19" ry="24.45"/><ellipse class="cls-1" cx="1010.18" cy="501.05" rx="10.19" ry="24.45"/><ellipse class="cls-1" cx="1061.14" cy="522.78" rx="10.19" ry="24.45"/><ellipse class="cls-1" cx="999.99" cy="509.2" rx="10.19" ry="24.45"/><ellipse class="cls-1" cx="1020.37" cy="509.2" rx="10.19" ry="24.45"/><ellipse class="cls-1" cx="1071.32" cy="537.73" rx="10.19" ry="24.45"/><ellipse class="cls-1" cx="1033.11" cy="531.95" rx="10.19" ry="24.45"/><ellipse class="cls-1" cx="992.35" cy="510.22" rx="10.19" ry="24.45"/><ellipse class="cls-1" cx="1043.3" cy="531.95" rx="10.19" ry="24.45"/><ellipse class="cls-1" cx="982.16" cy="518.37" rx="10.19" ry="24.45"/><ellipse class="cls-1" cx="1002.54" cy="518.37" rx="10.19" ry="24.45"/><ellipse class="cls-1" cx="1053.49" cy="546.9" rx="10.19" ry="24.45"/><ellipse class="cls-1" cx="997.45" cy="535.35" rx="10.19" ry="24.45"/><ellipse class="cls-1" cx="956.68" cy="513.62" rx="10.19" ry="24.45"/><ellipse class="cls-1" cx="1007.64" cy="535.35" rx="10.19" ry="24.45"/><ellipse class="cls-1" cx="946.49" cy="521.77" rx="10.19" ry="24.45"/><ellipse class="cls-1" cx="966.87" cy="521.77" rx="10.19" ry="24.45"/><ellipse class="cls-1" cx="1017.83" cy="550.29" rx="10.19" ry="24.45"/><ellipse class="cls-1" cx="1195.9" cy="552.51" rx="10.19" ry="24.45"/><ellipse class="cls-1" cx="1206.09" cy="552.51" rx="10.19" ry="24.45"/><ellipse class="cls-1" cx="1144.94" cy="538.92" rx="10.19" ry="24.45"/><ellipse class="cls-1" cx="1165.32" cy="538.92" rx="10.19" ry="24.45"/><ellipse class="cls-1" cx="1216.28" cy="567.45" rx="10.19" ry="24.45"/><ellipse class="cls-1" cx="1160.23" cy="555.9" rx="10.19" ry="24.45"/><ellipse class="cls-1" cx="1119.47" cy="534.17" rx="10.19" ry="24.45"/><ellipse class="cls-1" cx="1170.42" cy="555.9" rx="10.19" ry="24.45"/><ellipse class="cls-1" cx="1109.28" cy="542.32" rx="10.19" ry="24.45"/><ellipse class="cls-1" cx="1129.66" cy="542.32" rx="10.19" ry="24.45"/><ellipse class="cls-1" cx="1180.61" cy="570.85" rx="10.19" ry="24.45"/><ellipse class="cls-1" cx="1142.4" cy="565.07" rx="10.19" ry="24.45"/><ellipse class="cls-1" cx="1101.63" cy="543.34" rx="10.19" ry="24.45"/><ellipse class="cls-1" cx="1152.59" cy="565.07" rx="10.19" ry="24.45"/><ellipse class="cls-1" cx="1091.45" cy="551.49" rx="10.19" ry="24.45"/><ellipse class="cls-1" cx="1111.82" cy="551.49" rx="10.19" ry="24.45"/><ellipse class="cls-1" cx="1162.78" cy="580.01" rx="10.19" ry="24.45"/><ellipse class="cls-1" cx="1106.73" cy="568.47" rx="10.19" ry="24.45"/><ellipse class="cls-1" cx="1065.97" cy="546.73" rx="10.19" ry="24.45"/><ellipse class="cls-1" cx="1116.92" cy="568.47" rx="10.19" ry="24.45"/><ellipse class="cls-1" cx="1055.78" cy="554.88" rx="10.19" ry="24.45"/><ellipse class="cls-1" cx="1076.16" cy="554.88" rx="10.19" ry="24.45"/><ellipse class="cls-1" cx="1127.11" cy="583.41" rx="10.19" ry="24.45"/><ellipse class="cls-1" cx="905.74" cy="529.29" rx="10.19" ry="24.45"/><ellipse class="cls-1" cx="915.93" cy="529.29" rx="10.19" ry="24.45"/><ellipse class="cls-1" cx="854.79" cy="515.7" rx="10.19" ry="24.45"/><ellipse class="cls-1" cx="875.16" cy="515.7" rx="10.19" ry="24.45"/><ellipse class="cls-1" cx="926.12" cy="544.23" rx="10.19" ry="24.45"/><ellipse class="cls-1" cx="870.07" cy="532.68" rx="10.19" ry="24.45"/><ellipse class="cls-1" cx="829.31" cy="510.95" rx="10.19" ry="24.45"/><ellipse class="cls-1" cx="880.26" cy="532.68" rx="10.19" ry="24.45"/><ellipse class="cls-1" cx="819.12" cy="519.1" rx="10.19" ry="24.45"/><ellipse class="cls-1" cx="839.5" cy="519.1" rx="10.19" ry="24.45"/><ellipse class="cls-1" cx="890.45" cy="547.63" rx="10.19" ry="24.45"/><ellipse class="cls-1" cx="852.24" cy="541.85" rx="10.19" ry="24.45"/><ellipse class="cls-1" cx="811.47" cy="520.12" rx="10.19" ry="24.45"/><ellipse class="cls-1" cx="862.43" cy="541.85" rx="10.19" ry="24.45"/><ellipse class="cls-1" cx="801.29" cy="528.27" rx="10.19" ry="24.45"/><ellipse class="cls-1" cx="821.66" cy="528.27" rx="10.19" ry="24.45"/><ellipse class="cls-1" cx="872.62" cy="556.8" rx="10.19" ry="24.45"/><ellipse class="cls-1" cx="816.58" cy="545.25" rx="10.19" ry="24.45"/><ellipse class="cls-1" cx="775.81" cy="523.51" rx="10.19" ry="24.45"/><ellipse class="cls-1" cx="826.76" cy="545.25" rx="10.19" ry="24.45"/><ellipse class="cls-1" cx="765.62" cy="531.66" rx="10.19" ry="24.45"/><ellipse class="cls-1" cx="786" cy="531.66" rx="10.19" ry="24.45"/><ellipse class="cls-1" cx="836.95" cy="560.19" rx="10.19" ry="24.45"/><ellipse class="cls-1" cx="922.12" cy="505.99" rx="10.19" ry="24.45"/><ellipse class="cls-1" cx="932.31" cy="505.99" rx="10.19" ry="24.45"/><ellipse class="cls-1" cx="871.16" cy="492.41" rx="10.19" ry="24.45"/><ellipse class="cls-1" cx="891.54" cy="492.41" rx="10.19" ry="24.45"/><ellipse class="cls-1" cx="942.49" cy="520.94" rx="10.19" ry="24.45"/><ellipse class="cls-1" cx="886.45" cy="509.39" rx="10.19" ry="24.45"/><ellipse class="cls-1" cx="845.69" cy="487.66" rx="10.19" ry="24.45"/><ellipse class="cls-1" cx="896.64" cy="509.39" rx="10.19" ry="24.45"/><ellipse class="cls-1" cx="835.5" cy="495.81" rx="10.19" ry="24.45"/><ellipse class="cls-1" cx="855.87" cy="495.81" rx="10.19" ry="24.45"/><ellipse class="cls-1" cx="906.83" cy="524.33" rx="10.19" ry="24.45"/><ellipse class="cls-1" cx="868.62" cy="518.56" rx="10.19" ry="24.45"/><ellipse class="cls-1" cx="827.85" cy="496.82" rx="10.19" ry="24.45"/><ellipse class="cls-1" cx="878.81" cy="518.56" rx="10.19" ry="24.45"/><ellipse class="cls-1" cx="817.66" cy="504.98" rx="10.19" ry="24.45"/><ellipse class="cls-1" cx="838.04" cy="504.98" rx="10.19" ry="24.45"/><ellipse class="cls-1" cx="889" cy="533.5" rx="10.19" ry="24.45"/><ellipse class="cls-1" cx="832.95" cy="521.96" rx="10.19" ry="24.45"/><ellipse class="cls-1" cx="792.19" cy="500.22" rx="10.19" ry="24.45"/><ellipse class="cls-1" cx="843.14" cy="521.96" rx="10.19" ry="24.45"/><ellipse class="cls-1" cx="782" cy="508.37" rx="10.19" ry="24.45"/><ellipse class="cls-1" cx="802.38" cy="508.37" rx="10.19" ry="24.45"/><ellipse class="cls-1" cx="853.33" cy="536.9" rx="10.19" ry="24.45"/><ellipse class="cls-1" cx="855.33" cy="558.66" rx="10.19" ry="24.45"/><ellipse class="cls-1" cx="865.51" cy="558.66" rx="10.19" ry="24.45"/><ellipse class="cls-1" cx="804.37" cy="545.08" rx="10.19" ry="24.45"/><ellipse class="cls-1" cx="824.75" cy="545.08" rx="10.19" ry="24.45"/><ellipse class="cls-1" cx="875.7" cy="573.6" rx="10.19" ry="24.45"/><ellipse class="cls-1" cx="819.66" cy="562.06" rx="10.19" ry="24.45"/><ellipse class="cls-1" cx="778.89" cy="540.32" rx="10.19" ry="24.45"/><ellipse class="cls-1" cx="829.85" cy="562.06" rx="10.19" ry="24.45"/><ellipse class="cls-1" cx="768.71" cy="548.47" rx="10.19" ry="24.45"/><ellipse class="cls-1" cx="789.08" cy="548.47" rx="10.19" ry="24.45"/><ellipse class="cls-1" cx="840.04" cy="577" rx="10.19" ry="24.45"/><ellipse class="cls-1" cx="801.83" cy="571.23" rx="10.19" ry="24.45"/><ellipse class="cls-1" cx="761.06" cy="549.49" rx="10.19" ry="24.45"/><ellipse class="cls-1" cx="812.02" cy="571.23" rx="10.19" ry="24.45"/><ellipse class="cls-1" cx="750.87" cy="557.64" rx="10.19" ry="24.45"/><ellipse class="cls-1" cx="771.25" cy="557.64" rx="10.19" ry="24.45"/><ellipse class="cls-1" cx="822.2" cy="586.17" rx="10.19" ry="24.45"/><ellipse class="cls-1" cx="766.16" cy="574.62" rx="10.19" ry="24.45"/><ellipse class="cls-1" cx="725.4" cy="552.89" rx="10.19" ry="24.45"/><ellipse class="cls-1" cx="776.35" cy="574.62" rx="10.19" ry="24.45"/><ellipse class="cls-1" cx="715.21" cy="561.04" rx="10.19" ry="24.45"/><ellipse class="cls-1" cx="735.58" cy="561.04" rx="10.19" ry="24.45"/><ellipse class="cls-1" cx="786.54" cy="589.57" rx="10.19" ry="24.45"/><path class="cls-2" d="M31.13,537.2A9.13,9.13,0,0,1,28,538.6c-.08,0-.26.08.52-.51,3.18-2.41,4.43-3.3,4.93-3.66l.1-.08c10-10.14,20.24-19.91,30.54-29.71,17.92-15.28,46.39-17.39,38,16.28-7.85,31.39-11.17,55.59-47.54,49.88A359.76,359.76,0,0,0,3,568.42a2.93,2.93,0,0,1-2.07-.48c-1.28-1.07-1.1-2,.12-4.29.39-.71,1.11-1.71,1.59-1.72A51,51,0,0,0,9,561.31C13.63,552.58,23.43,544.51,31.13,537.2Zm.78,20.95c4.16-.45,6.4-.66,11.18-1,7.46-.47,20.36-7.36,24.32-23.12,4.13-16.46-5.95-15.55-8.53-14-4.92,2.92-7.2,4.33-11.28,6.89C42.59,537.08,34.42,546.44,31.91,558.15Z"/><path class="cls-2" d="M149.4,569.46c-22.3,4.94-49.08-5.42-45-33.1,3.36-23.05,17.24-48.29,38.42-60,4.61-2.19,6.89-3.21,11.33-5,22.65-7.51,27.32,25.07,28.81,39.13,0,1.36,0,2,0,3.39a1.6,1.6,0,0,1-1.39,1.8c-16.3,3.68-31.79,8-47.74,13-.46,14.14,7,16.65,13.19,15l6.41-1.68c5.68-1.48,10.13-4.38,13-14.31.24-.62.49-1,.68-1.1,5.8-1.42,8.64-2,14.69-3.29.57-.13.76,1.52.72,2.08-1.56,17.26-6.46,38.18-25.9,42.63C153.73,568.58,152.28,568.88,149.4,569.46ZM156,506.11c-.84-5.32-2.6-10.8-8.14-8.73C140.62,500.06,138,506.64,136,513,144.11,510,148.16,508.55,156,506.11Z"/><path class="cls-2" d="M194.58,558.87c-.4.1-1.28-1.22-1.53-2-2.74-8.71-3.49-13.45-4.43-23.22-.11-1.07.29-1.9.62-2,8.93-2,13.42-3,22.29-5,.26-.06.8.7,1.12,1.69,1.47,5.15,7.27,6.62,11.88,5.43,2.63-.68,3.94-1,6.54-1.71s5.1-2.68,4.42-7.54c-.72-5.19-3.6-5.21-4.42-5s-17.27,1.32-18.75,1.44c-16.55,1.46-24.76-15.87-24.1-30.29.67-14.79,9.76-30,26.14-31,3-.25,4.58-.37,7.63-.59,4.3-.32,10.42,2,13.52,5.69,0-1.44.1-3.19.13-4.76,0-.63.08-1.57.51-1.6,6.48-.44,9.72-.64,16.12-1.11.36,0,1,1.09,1.18,2.42.8,7.49,1,11.45,1.33,19.45,0,.78-.41,1.8-.77,1.86-7.25,1.11-10.95,1.64-18.41,2.71-.24,0-.44-.27-.78-1.06-.76-2.26-2.37-5.93-8-5.22l-8,1c-4,.51-5.59,2.12-5.51,7.45s2.51,5.29,5.35,5.24c1.68,0,18.27-1.34,20.93-1.61,1.05-.11,16.79-.7,19.83,23.28,1.77,14-4.71,28.67-18.76,33.35-4,1.27-6,1.89-10.13,3.13S218.6,550,216.29,548c-.58,1.85-1,3-1.28,4.23-.23.9-.53,1.33-1,1.45C206.31,555.87,202.4,556.9,194.58,558.87Z"/><path class="cls-2" d="M302.69,502.18c.33-.11.55.62.56,1.28a103.7,103.7,0,0,0,1.33,16.79c.15,1,0,1.27-.26,1.39-10.67,4.64-19.08,8.66-36,14.82-.33.12-.94-1-1.15-1.67a92.3,92.3,0,0,1-3.78-18.39c-.12-.9.21-1.61.5-1.69,4.06-1.14,6.05-1.72,9.93-2.87-1.41-13.13-1.29-20.29-1.8-33.78-3.9.7-5.89,1-9.91,1.69-.64.1-1.07-.3-1.12-1.37-.34-7.72-.51-11.54-1.27-18.77-.19-1.74,0-2.76.63-2.81,13.69-1.14,20.42-1.78,33.05-4,.43-.08.76.51.82,1.15,1.15,17,.34,34,1,50.94C298.44,503.74,299.93,503.15,302.69,502.18Zm-18-73.17a1.9,1.9,0,0,1,1.85,1.29c2.61,5.18,3.43,8.23,4.59,14.8.13.71,0,1.59-.52,1.67-7.13,1.05-10.79,1.42-18.23,2.05-.46,0-.77-.07-.95-1-1.46-7.62-2.47-11.16-5.7-17.12-.22-.4-.21-.89.33-.9C273.61,429.75,277.35,429.63,284.73,429Z"/><path class="cls-2" d="M342.84,440.71c10.28-1.8,22.56-1.61,29.67,4,6.78-7.32,13.39-9.14,20.59-9.66s7.84,6.39,6.6,11.66c-.69,2.92-4.85,12.06-11.91,13-8.09,1.06-7-9.84-6.63-11.67a32.55,32.55,0,0,0-6.53,5.12,11.76,11.76,0,0,1-.23,3.21c-2.92,13-21.82,22.91-29.66,24.65a209.31,209.31,0,0,0-25,6.77,15.17,15.17,0,0,0-1.1,4.72c-.19,2.69,2,2.58,2.76,2.33,14.32-4.71,29.06-7.71,43.79-10.8,9.69-1.91,24.43-1.83,19.95,13-4.41,14.58-20.67,22.51-23.4,23.32-15.31,4.78-30.76,9.36-45.32,16.2-2,.93-6.17-2.32-7.48-7.6s.28-8.62,1.28-11c-.66-1.22-4.26-3.37-4.47-11.75s4.78-16.73,6.58-20c-1-.59-6-5.23-5.54-14,.75-15.38,12.94-26.16,27.33-29.7C337.51,441.68,339.26,441.34,342.84,440.71Zm-27.13,77.67a6.55,6.55,0,0,0-.42,4.35c.41,2.33,1.51,2.7,3.23,2,9.54-3.91,15.39-5.81,28.23-9.56,5.78-1.68,8.69-2.53,9.09-5.75.46-3.68-9.33-1.05-12.74-.1C330.7,512.79,324.88,514.66,315.71,518.38Zm13.7-54.47c-.5,4.84,2.34,5.25,7.54,4.06s8.76-2.8,9.53-7.83c.9-5.95-3.49-6.4-8-5.46C332.73,455.89,330,458.27,329.41,463.91Z"/><path class="cls-2" d="M458.07,429.43c4.72-.82,13.38,6.36,15.58,16a103.8,103.8,0,0,1,2.7,17.92c4.27-.73,6.48-1.09,11-1.79.66-.1,1,.52,1,.9a94.11,94.11,0,0,1,1,12.09c0,.8-.4,1.06-1.24,1.21-15.76,3.07-31.45,6.26-47.09,9.95-.77.17-.86-.36-.58-1.36,1.4-5,2.08-7.66,3.29-13,.16-.73.57-1.33,1-1.42,3.34-.7,5-1,8.09-1.77.31-2.11.45-3.18.7-5.3,1.7-14.47,1.27-17.23-6.29-15.93-8,1.38-11,13.08-13.45,22.18-.35,1.27-.53,1.91-.89,3.17,3.29-.62,4.91-.94,8.06-1.58.47-.09.61.49.48,1-1.37,5.66-2.13,8.46-3.69,13.77a1.42,1.42,0,0,1-1.13,1.18c-16,3.45-31.94,6.85-47.9,10.3-.39.08-.41-.63-.17-1.41,1.81-5.78,2.8-8.85,4.75-15.07a2.19,2.19,0,0,1,1.24-1.36l11.24-2c3.41-10.51,5.17-16.07,7.85-26.43l-10.81,1.19c-.74.08-1.18-.22-1-1,1.51-5.92,2.18-8.82,3.2-14.26.24-1.31.76-2.07,1.43-2.12,15.46-1,22.79-1.3,33.79-2.3.38,0,.58.42.54.89-.29,3.56-.52,5.43-1.1,9.27l.15,0c1.24-2.58,5.76-10.51,11.38-11.45C454.51,430.32,455.16,429.94,458.07,429.43Z"/><path class="cls-2" d="M540.2,467c-17.65,3-43.92,4.79-50.15-16.71-5.2-18,12.23-23.24,26.33-23.14l14.49,0c15.48.39,40.07.82,50.68,14.24.18.46.26.69.42,1.15s-.26.55-1.42.66c-19.08,1.69-38.18,3.2-57.26,4.89,2.83,6.37,10.82,7.61,18,6.78l7.41-.86c6.58-.76,12.07-2.18,14.73-6a1.32,1.32,0,0,1,.73-.43c7-.68,10.5-1,17.27-1.71a.79.79,0,0,1,.9.72c-6.38,12.64-20.83,16.9-34.19,19.12Zm5.54-27.12c-2.68-2-7.1-4.17-14-3.9-8.93.36-9.86,2.75-10.25,5.35C531,440.72,536,440.45,545.74,439.88Z"/><path class="cls-2" d="M632.17,421.88c2.37-.77,12.67-.69,16.33,1.88,3.43,2.4.7,4.87-3,6.11a14.11,14.11,0,0,1-8.33,0,11.54,11.54,0,0,0-5.29,0c-2.35.54-5.85,3.18-4.23,6.73a15.35,15.35,0,0,1,1.66,6.18c4.54-1.05,6.6-1.6,10.3-2.73a.53.53,0,0,1,.72.37,12.07,12.07,0,0,1-1.08,7.1,2.16,2.16,0,0,1-1.15.9c-16.46,5.37-33.51,8.09-50.54,10.87a.52.52,0,0,1-.57-.66,23,23,0,0,0,.8-8.73c0-.39.43-.71.78-.75,5-.61,7.42-.92,12.15-1.54-.26-5.63-1.28-8.43-4.27-13.28-4.73.34-7.18.5-12.19.8-.8,0-1.41-.1-1.66-.5a32.21,32.21,0,0,0-5.24-6.57c-.57-.57-.4-.9.34-.91,17-.3,25.33-.43,38.71-2.06a2.06,2.06,0,0,1,1.27.26,27.32,27.32,0,0,1,4.25,3.42c.41-2.32,3.18-5,7.71-6.13C630.73,422.32,631.24,422.18,632.17,421.88Z"/><ellipse class="cls-1" cx="824.89" cy="174.66" rx="10.19" ry="24.45"/><ellipse class="cls-1" cx="835.08" cy="174.66" rx="10.19" ry="24.45"/><ellipse class="cls-1" cx="773.94" cy="161.08" rx="10.19" ry="24.45"/><ellipse class="cls-1" cx="794.32" cy="161.08" rx="10.19" ry="24.45"/><ellipse class="cls-1" cx="845.27" cy="189.6" rx="10.19" ry="24.45"/><ellipse class="cls-1" cx="789.23" cy="178.06" rx="10.19" ry="24.45"/><ellipse class="cls-1" cx="748.46" cy="156.32" rx="10.19" ry="24.45"/><ellipse class="cls-1" cx="799.42" cy="178.06" rx="10.19" ry="24.45"/><ellipse class="cls-1" cx="738.27" cy="164.47" rx="10.19" ry="24.45"/><ellipse class="cls-1" cx="758.65" cy="164.47" rx="10.19" ry="24.45"/><ellipse class="cls-1" cx="809.6" cy="193" rx="10.19" ry="24.45"/><ellipse class="cls-1" cx="771.39" cy="187.23" rx="10.19" ry="24.45"/><ellipse class="cls-1" cx="730.63" cy="165.49" rx="10.19" ry="24.45"/><ellipse class="cls-1" cx="781.58" cy="187.23" rx="10.19" ry="24.45"/><ellipse class="cls-1" cx="720.44" cy="173.64" rx="10.19" ry="24.45"/><ellipse class="cls-1" cx="740.82" cy="173.64" rx="10.19" ry="24.45"/><ellipse class="cls-1" cx="791.77" cy="202.17" rx="10.19" ry="24.45"/><ellipse class="cls-1" cx="735.73" cy="190.62" rx="10.19" ry="24.45"/><ellipse class="cls-1" cx="694.96" cy="168.89" rx="10.19" ry="24.45"/><ellipse class="cls-1" cx="745.92" cy="190.62" rx="10.19" ry="24.45"/><ellipse class="cls-1" cx="684.77" cy="177.04" rx="10.19" ry="24.45"/><ellipse class="cls-1" cx="705.15" cy="177.04" rx="10.19" ry="24.45"/><ellipse class="cls-1" cx="756.11" cy="205.57" rx="10.19" ry="24.45"/><ellipse class="cls-1" cx="693.55" cy="254.45" rx="10.19" ry="24.45"/><ellipse class="cls-1" cx="703.73" cy="254.45" rx="10.19" ry="24.45"/><ellipse class="cls-1" cx="642.59" cy="240.86" rx="10.19" ry="24.45"/><ellipse class="cls-1" cx="662.97" cy="240.86" rx="10.19" ry="24.45"/><ellipse class="cls-1" cx="713.92" cy="269.39" rx="10.19" ry="24.45"/><ellipse class="cls-1" cx="657.88" cy="257.84" rx="10.19" ry="24.45"/><ellipse class="cls-1" cx="617.11" cy="236.11" rx="10.19" ry="24.45"/><ellipse class="cls-1" cx="668.07" cy="257.84" rx="10.19" ry="24.45"/><ellipse class="cls-1" cx="606.93" cy="244.26" rx="10.19" ry="24.45"/><ellipse class="cls-1" cx="627.3" cy="244.26" rx="10.19" ry="24.45"/><ellipse class="cls-1" cx="678.26" cy="272.79" rx="10.19" ry="24.45"/><ellipse class="cls-1" cx="640.05" cy="267.01" rx="10.19" ry="24.45"/><ellipse class="cls-1" cx="599.28" cy="245.28" rx="10.19" ry="24.45"/><ellipse class="cls-1" cx="650.24" cy="267.01" rx="10.19" ry="24.45"/><ellipse class="cls-1" cx="589.09" cy="253.43" rx="10.19" ry="24.45"/><ellipse class="cls-1" cx="609.47" cy="253.43" rx="10.19" ry="24.45"/><ellipse class="cls-1" cx="660.42" cy="281.95" rx="10.19" ry="24.45"/><ellipse class="cls-1" cx="604.38" cy="270.41" rx="10.19" ry="24.45"/><ellipse class="cls-1" cx="563.62" cy="248.67" rx="10.19" ry="24.45"/><ellipse class="cls-1" cx="614.57" cy="270.41" rx="10.19" ry="24.45"/><ellipse class="cls-1" cx="553.43" cy="256.82" rx="10.19" ry="24.45"/><ellipse class="cls-1" cx="573.8" cy="256.82" rx="10.19" ry="24.45"/><ellipse class="cls-1" cx="624.76" cy="285.35" rx="10.19" ry="24.45"/><ellipse class="cls-1" cx="601.2" cy="113.05" rx="10.19" ry="24.45"/><ellipse class="cls-1" cx="611.39" cy="113.05" rx="10.19" ry="24.45"/><ellipse class="cls-1" cx="550.25" cy="99.47" rx="10.19" ry="24.45"/><ellipse class="cls-1" cx="570.62" cy="99.47" rx="10.19" ry="24.45"/><ellipse class="cls-1" cx="621.58" cy="127.99" rx="10.19" ry="24.45"/><ellipse class="cls-1" cx="565.54" cy="116.45" rx="10.19" ry="24.45"/><ellipse class="cls-1" cx="524.77" cy="94.71" rx="10.19" ry="24.45"/><ellipse class="cls-1" cx="575.72" cy="116.45" rx="10.19" ry="24.45"/><ellipse class="cls-1" cx="514.58" cy="102.86" rx="10.19" ry="24.45"/><ellipse class="cls-1" cx="534.96" cy="102.86" rx="10.19" ry="24.45"/><ellipse class="cls-1" cx="585.91" cy="131.39" rx="10.19" ry="24.45"/><ellipse class="cls-1" cx="547.7" cy="125.62" rx="10.19" ry="24.45"/><ellipse class="cls-1" cx="506.94" cy="103.88" rx="10.19" ry="24.45"/><ellipse class="cls-1" cx="557.89" cy="125.62" rx="10.19" ry="24.45"/><ellipse class="cls-1" cx="496.75" cy="112.03" rx="10.19" ry="24.45"/><ellipse class="cls-1" cx="517.12" cy="112.03" rx="10.19" ry="24.45"/><ellipse class="cls-1" cx="568.08" cy="140.56" rx="10.19" ry="24.45"/><ellipse class="cls-1" cx="512.04" cy="129.01" rx="10.19" ry="24.45"/><ellipse class="cls-1" cx="471.27" cy="107.28" rx="10.19" ry="24.45"/><ellipse class="cls-1" cx="522.23" cy="129.01" rx="10.19" ry="24.45"/><ellipse class="cls-1" cx="461.08" cy="115.43" rx="10.19" ry="24.45"/><ellipse class="cls-1" cx="481.46" cy="115.43" rx="10.19" ry="24.45"/><ellipse class="cls-1" cx="532.41" cy="143.96" rx="10.19" ry="24.45"/><ellipse class="cls-1" cx="672.53" cy="42.79" rx="10.19" ry="24.45"/><ellipse class="cls-1" cx="682.72" cy="42.79" rx="10.19" ry="24.45"/><ellipse class="cls-1" cx="621.58" cy="29.21" rx="10.19" ry="24.45"/><ellipse class="cls-1" cx="641.96" cy="29.21" rx="10.19" ry="24.45"/><ellipse class="cls-1" cx="692.91" cy="57.73" rx="10.19" ry="24.45"/><ellipse class="cls-1" cx="636.87" cy="46.19" rx="10.19" ry="24.45"/><ellipse class="cls-1" cx="596.1" cy="24.45" rx="10.19" ry="24.45"/><ellipse class="cls-1" cx="647.06" cy="46.19" rx="10.19" ry="24.45"/><ellipse class="cls-1" cx="585.91" cy="32.6" rx="10.19" ry="24.45"/><ellipse class="cls-1" cx="606.29" cy="32.6" rx="10.19" ry="24.45"/><ellipse class="cls-1" cx="657.24" cy="61.13" rx="10.19" ry="24.45"/><ellipse class="cls-1" cx="619.03" cy="55.36" rx="10.19" ry="24.45"/><ellipse class="cls-1" cx="578.27" cy="33.62" rx="10.19" ry="24.45"/><ellipse class="cls-1" cx="629.22" cy="55.36" rx="10.19" ry="24.45"/><ellipse class="cls-1" cx="568.08" cy="41.77" rx="10.19" ry="24.45"/><ellipse class="cls-1" cx="588.46" cy="41.77" rx="10.19" ry="24.45"/><ellipse class="cls-1" cx="639.41" cy="70.3" rx="10.19" ry="24.45"/><ellipse class="cls-1" cx="583.37" cy="58.75" rx="10.19" ry="24.45"/><ellipse class="cls-1" cx="542.6" cy="37.02" rx="10.19" ry="24.45"/><ellipse class="cls-1" cx="593.56" cy="58.75" rx="10.19" ry="24.45"/><ellipse class="cls-1" cx="532.41" cy="45.17" rx="10.19" ry="24.45"/><ellipse class="cls-1" cx="552.79" cy="45.17" rx="10.19" ry="24.45"/><ellipse class="cls-1" cx="603.75" cy="73.7" rx="10.19" ry="24.45"/><ellipse class="cls-1" cx="592.28" cy="206.78" rx="10.19" ry="24.45"/><ellipse class="cls-1" cx="602.47" cy="206.78" rx="10.19" ry="24.45"/><ellipse class="cls-1" cx="541.33" cy="193.19" rx="10.19" ry="24.45"/><ellipse class="cls-1" cx="561.71" cy="193.19" rx="10.19" ry="24.45"/><ellipse class="cls-1" cx="612.66" cy="221.72" rx="10.19" ry="24.45"/><ellipse class="cls-1" cx="556.62" cy="210.17" rx="10.19" ry="24.45"/><ellipse class="cls-1" cx="515.85" cy="188.44" rx="10.19" ry="24.45"/><ellipse class="cls-1" cx="566.81" cy="210.17" rx="10.19" ry="24.45"/><ellipse class="cls-1" cx="505.66" cy="196.59" rx="10.19" ry="24.45"/><ellipse class="cls-1" cx="526.04" cy="196.59" rx="10.19" ry="24.45"/><ellipse class="cls-1" cx="577" cy="225.11" rx="10.19" ry="24.45"/><ellipse class="cls-1" cx="538.79" cy="219.34" rx="10.19" ry="24.45"/><ellipse class="cls-1" cx="498.02" cy="197.61" rx="10.19" ry="24.45"/><ellipse class="cls-1" cx="548.97" cy="219.34" rx="10.19" ry="24.45"/><ellipse class="cls-1" cx="487.83" cy="205.76" rx="10.19" ry="24.45"/><ellipse class="cls-1" cx="508.21" cy="205.76" rx="10.19" ry="24.45"/><ellipse class="cls-1" cx="559.16" cy="234.28" rx="10.19" ry="24.45"/><ellipse class="cls-1" cx="503.12" cy="222.74" rx="10.19" ry="24.45"/><ellipse class="cls-1" cx="462.35" cy="201" rx="10.19" ry="24.45"/><ellipse class="cls-1" cx="513.31" cy="222.74" rx="10.19" ry="24.45"/><ellipse class="cls-1" cx="452.17" cy="209.15" rx="10.19" ry="24.45"/><ellipse class="cls-1" cx="472.54" cy="209.15" rx="10.19" ry="24.45"/><ellipse class="cls-1" cx="523.5" cy="237.68" rx="10.19" ry="24.45"/><path class="cls-1" d="M580,190.08l43.5,80s9.28,172-7.68,239.34,60,27,60,27-35-215.56-28-242.51S773.94,171.76,773.94,171.76Z"/><ellipse class="cls-1" cx="708.19" cy="178.76" rx="10.19" ry="24.45"/><ellipse class="cls-1" cx="718.38" cy="178.76" rx="10.19" ry="24.45"/><ellipse class="cls-1" cx="657.23" cy="165.17" rx="10.19" ry="24.45"/><ellipse class="cls-1" cx="677.61" cy="165.17" rx="10.19" ry="24.45"/><ellipse class="cls-1" cx="728.56" cy="193.7" rx="10.19" ry="24.45"/><ellipse class="cls-1" cx="672.52" cy="182.15" rx="10.19" ry="24.45"/><ellipse class="cls-1" cx="631.75" cy="160.42" rx="10.19" ry="24.45"/><ellipse class="cls-1" cx="682.71" cy="182.15" rx="10.19" ry="24.45"/><ellipse class="cls-1" cx="621.57" cy="168.57" rx="10.19" ry="24.45"/><ellipse class="cls-1" cx="641.94" cy="168.57" rx="10.19" ry="24.45"/><ellipse class="cls-1" cx="692.9" cy="197.1" rx="10.19" ry="24.45"/><ellipse class="cls-1" cx="654.69" cy="191.32" rx="10.19" ry="24.45"/><ellipse class="cls-1" cx="613.92" cy="169.59" rx="10.19" ry="24.45"/><ellipse class="cls-1" cx="664.88" cy="191.32" rx="10.19" ry="24.45"/><ellipse class="cls-1" cx="603.73" cy="177.74" rx="10.19" ry="24.45"/><ellipse class="cls-1" cx="624.11" cy="177.74" rx="10.19" ry="24.45"/><ellipse class="cls-1" cx="675.06" cy="206.27" rx="10.19" ry="24.45"/><ellipse class="cls-1" cx="619.02" cy="194.72" rx="10.19" ry="24.45"/><ellipse class="cls-1" cx="578.26" cy="172.98" rx="10.19" ry="24.45"/><ellipse class="cls-1" cx="629.21" cy="194.72" rx="10.19" ry="24.45"/><ellipse class="cls-1" cx="568.07" cy="181.13" rx="10.19" ry="24.45"/><ellipse class="cls-1" cx="588.44" cy="181.13" rx="10.19" ry="24.45"/><ellipse class="cls-1" cx="639.4" cy="209.66" rx="10.19" ry="24.45"/><ellipse class="cls-1" cx="681.45" cy="536.09" rx="10.19" ry="24.45"/><ellipse class="cls-1" cx="691.64" cy="536.09" rx="10.19" ry="24.45"/><ellipse class="cls-1" cx="630.49" cy="522.51" rx="10.19" ry="24.45"/><ellipse class="cls-1" cx="650.87" cy="522.51" rx="10.19" ry="24.45"/><ellipse class="cls-1" cx="701.83" cy="551.03" rx="10.19" ry="24.45"/><ellipse class="cls-1" cx="645.78" cy="539.49" rx="10.19" ry="24.45"/><ellipse class="cls-1" cx="605.02" cy="517.75" rx="10.19" ry="24.45"/><ellipse class="cls-1" cx="655.97" cy="539.49" rx="10.19" ry="24.45"/><ellipse class="cls-1" cx="594.83" cy="525.9" rx="10.19" ry="24.45"/><ellipse class="cls-1" cx="615.21" cy="525.9" rx="10.19" ry="24.45"/><ellipse class="cls-1" cx="666.16" cy="554.43" rx="10.19" ry="24.45"/><ellipse class="cls-1" cx="627.95" cy="548.66" rx="10.19" ry="24.45"/><ellipse class="cls-1" cx="587.18" cy="526.92" rx="10.19" ry="24.45"/><ellipse class="cls-1" cx="638.14" cy="548.66" rx="10.19" ry="24.45"/><ellipse class="cls-1" cx="577" cy="535.07" rx="10.19" ry="24.45"/><ellipse class="cls-1" cx="597.37" cy="535.07" rx="10.19" ry="24.45"/><ellipse class="cls-1" cx="648.33" cy="563.6" rx="10.19" ry="24.45"/><ellipse class="cls-1" cx="592.28" cy="552.05" rx="10.19" ry="24.45"/><ellipse class="cls-1" cx="551.52" cy="530.32" rx="10.19" ry="24.45"/><ellipse class="cls-1" cx="602.47" cy="552.05" rx="10.19" ry="24.45"/><ellipse class="cls-1" cx="541.33" cy="538.47" rx="10.19" ry="24.45"/><ellipse class="cls-1" cx="561.71" cy="538.47" rx="10.19" ry="24.45"/><ellipse class="cls-1" cx="612.66" cy="567" rx="10.19" ry="24.45"/><path class="cls-2" d="M578.84,577.43l-2.84-.74c-7.32-1.91-10.8-2.69-11.61-5-.1-.27,0-.79.29-.72,1.41.3,2.18.44,3.87.72,4.39-10.59,18.86-16.16,28.1-21.33a5.33,5.33,0,0,1-1.87.07,7.39,7.39,0,0,1,1.61-.83c5.77-2.72,8.26-3.77,9-4.08l.09,0c.24-.16,3.15-2.13,12-7.66a1.07,1.07,0,0,1,1-.09c1.44,1.1.34,2.58-2.49,6.39,5.18-4.61,7.32-6.72,7.71-9.55a1.56,1.56,0,0,1,.59-1q15.38-9.48,31.06-18.42c.47-.26.91.25,1.14,1.19,1.45,6,.23,9.85-3,18.18-.51,1.31-1,1.77-1.4,1.85-3.64.68-5.41,1-8.85,1.8-7.66,14.28-18.61,29.68-17.94,46.57,4,1.41,6.13,2.18,10.46,3.89.49.2,1,1.08,1.6,3.36,2.07,7.66,5.79,11.17,13.2,18.46,1.23,1.21,1.39,1.48.64,1-12.86-8.24-25.72-16.17-39.63-22.56-.35-.16-1.39-.64-2.89-1.39-8-4-11.74-5.76-13.08-10.24-.17-.56.13-.86.48-.78,3,.66,4.62,1,7.95,1.87.45-14.6,13.11-26.24,21.59-36.9l-.09,0c-3.15,3.06-50.37,40.76-22,43.89.68.31,1,.46.63.3-1.18-.48-1.76-.71-2.89-1.15l-2.77-1.08c-25.32-11.84-16.69-19.7,2.43-34.11h0c-8.9,5.45-23.19,12.41-26.37,23.32l5.44.83c.32,0,.44.37.73,1,1.37,3.31,5.31,4.5,13.53,7.42l.86.3A168.69,168.69,0,0,0,578.84,577.43Z"/><path class="cls-2" d="M698,492.66c34.79-15.81,18,45.45,14,57.59-5.94,18.34-13,37.16-16.07,56.51-1.2,7.41.29,22.42-11,20.7-2.46-.7-3.66-1.07-6-1.86-13.3-5.11-29.23-19.39-35.25-32.14-4.8-10.15-2.74-22,1.37-32.12,4.19-10.35,10-19.93,15.57-29.58,7.24-12.76,15.43-27.89,28.88-35C692.9,495.11,694.59,494.28,698,492.66ZM666.72,559c-3.6,10-4.29,37.45,2.48,37.84,5.54.32,13.82-27.84,16.92-37.28,2.19-6.69,9-38,3.68-37.45C682.49,522.83,671,547.11,666.72,559Z"/><path class="cls-2" d="M765.63,470.89c29.76,5.24,19.35,59,15.6,76.71C777.09,567.2,771.84,587,768.5,607c-1.56,9.37-1.91,27.37-15.18,28-3,0-4.44,0-7.39,0-17.57-.61-31.89-20.68-35.76-36.08-3.83-15.23-.24-32.09,4.66-46.71s11.47-28.77,17.88-42.88c5-11.33,13-35,26.93-38.07A47.2,47.2,0,0,1,765.63,470.89ZM738.4,550.2c-3,10.62-5.18,48.15,1.87,47.89,6.41-.24,13.75-32.45,16.64-44.39,2.77-11.43,6.37-47.1,2.76-47.64C755,505.36,742,537.59,738.4,550.2Z"/><path class="cls-2" d="M824,481.29a5.21,5.21,0,0,1,1.57,2.22c10.08,27.74,9.05,56.4,10.94,85.49,2.6-16.88,6.23-33.65,8.14-50.62-3.17-.44-4.77-.67-8-1.13-.55-.08-.72-1.08-.57-2.61,1.18-11.71,1.41-17.31-.66-27.13-.4-1.91-.6-3.38-.36-3.31,10.07,2.63,15.14,4,25.28,6.26.64.14,1.41,2.26,1.73,3.71,1.91,8.44,1.82,13.26.94,23.37-.2,2.25-.66,3.1-1.12,3.05-3-.34-4.52-.53-7.56-.92-4.62,33.79-13.13,65-5.43,98.92.73,2.9,1,4.65.61,4.75-8.17,1.84-12.55,2.73-21.66,4.34-.26,0-.73-.07-1.32-1.14-17-31.85-19-61.14-19.37-96.84-4.19,21.26-8.42,42.06-9.28,63.76,3.72-.17,5.57-.27,9.23-.47.48,0,1,1,1.06,3,.11,9.82,3,20.23,5.84,29.56.85,2.87,1,4.26.52,4.33-9.61,1.46-19.34,2.63-29,3.46-.41,0-1.09-1.38-1.91-4-3.1-9.81-6.16-20.86-6.32-31.22-.06-1.7.15-3.85,1-3.87,3.55-.11,5.33-.17,8.86-.3,1.2-27.78,8.27-54.42,13.07-81.7-3.28-.4-4.92-.59-8.19-.94-.26,0-.49-.72,0-3.9,1.21-10.26,2.5-20.41.91-30.72-.27-1.79-.12-2.59.39-2.5C803.59,476.1,813.86,478.6,824,481.29Z"/><path class="cls-2" d="M883,614c-12.14-1.71-13.31-23.77-12.09-32.91,1.15-8.64,4-23.23,10-25.56,4-1.51,2.24,22.34,2.5,25.8.2,2.68,2.12,3.14,4.76,2.72,5.12-.79,8.16-12.68,10-19.3,4-14,8.17-28,11.52-42.16-3,.18-4.45.24-7.39.29-.22,0-.45-.47-.2-2,1.55-9.5,2-14,.69-21.72-.31-1.88-.2-2.69.57-2.67,12.26.28,24.36-1,36.63-.2.52,0,.86,1.19.9,2.63.21,7.29-.59,11.53-2.94,20.51-.38,1.48-.88,2.22-1.4,2.21-3.41-.09-5.08-.11-8.34-.08-4.32,16.93-10.73,33.32-16.23,49.88-3.6,11.14-5.25,31.41-14.73,38.87A88,88,0,0,0,883,614Z"/><path class="cls-2" d="M942.66,498.67c0-1.55.17-2.2.57-2.17,14.74,1.42,29.24,3.51,43.83,6.07a1,1,0,0,1,.87,1.1c-.53,7-1.78,11.16-5.14,20.1-.5,1.34-1,1.85-1.37,1.81-3.9-.51-5.86-.75-9.78-1.21-7.18,19.06-16.71,37.2-25.38,55.61,3.52,0,5.31,0,8.9,0,.4,0,.32.56-.17,1.54-4.39,8.84-5.73,13-9.68,21.2-.74,1.54-1.13,2.19-1.59,2.22-10.49.79-21,1.59-31.41,3-.46.06-.39-.9-.18-1.89,1.86-8.79,2.22-13.24,5.08-22.62.64-2.1,1.14-2.89,1.35-2.9,3.12-.19,4.72-.27,8-.4,7.42-19.33,16.18-38.25,22.47-58-3.72-.25-5.56-.35-9.17-.5-.45,0-.6-.62-.37-1.51C942,510.67,942.9,506.23,942.66,498.67Z"/><path class="cls-2" d="M1047.22,516.53c0-.69.18-.89.34-.86,2.28.46,3.26.64,4.8.86.27,0,.6,1.23.7,1.84,1,6.37.62,10.36-1.08,18.82-.16.81-.4,1.39-.59,1.38-3.09-.17-4.84-.32-8.65-.72-.12,0-.26,0-.12-.63,1.23-6.85-1.66-8.56-2.6-8.7-3.61-.55-5.58-.87-9.74-1.57-.84-.14-3.33-.37-5.65,5.36-2.46,6.09,1.79,6.53,3.19,6.7,2.64.44,3.92.65,6.39,1,3.25.37,9.46,3.37,10.49,5.05,4.58,7.4,1.35,19.62-2,27.17-6.82,15.58-21,29.32-39,30.33-4.59.09-6.86.14-11.34.25-4.68.11-6.7-3.71-7.17-7.59-1.8,2.75-2.74,4.1-4.69,6.79-.72.93-1.12,1.17-1.4,1.17-5.46.18-8.15.29-13.41.51-.27,0-.07-.46.53-1.43,5.24-8.44,9.54-17.39,14.7-25.89.39-.67,1.06-1.62,1.39-1.61l14.62.5c.32,0,.21.55-.25,1.46-4.33,8.61,2.08,9,2.53,9l14.74.16c.44,0,3.29-.63,5.6-4.63,2.65-4.61,1.24-6.1.69-6.11-4.45-.23-6.72-.35-11.3-.61-3.08-.11-10.92-3.75-12.26-7.33-3.35-8.89,1.41-21,5.57-29.7,6.39-13.44,12.48-19.23,15.24-21.9a14.85,14.85,0,0,1,14-3.57l8.27,1.88c3.83.85,6,4.24,7,6.65A28.18,28.18,0,0,0,1047.22,516.53Z"/><path class="cls-2" d="M1092.54,526.16a6.21,6.21,0,0,1,2.54,1.87c6.8,6.9,12,17.86,14,27.26.26,1.1.3,1.85-.13,1.79-5.91-.91-8.79-1.34-14.31-2.1-.28,0-.52-.07-.65-.88a65.66,65.66,0,0,0-3.67-14c-8.64-1.67-12.58-2.38-19.11-3.32a69.1,69.1,0,0,1,1.46,11c4.08.43,6.3.71,11,1.34.36.05.55.3.68,1.24a88.29,88.29,0,0,1,1,18.77c0,1-.53,1.16-1,1.12-5-.38-7.51-.54-12.23-.79-.57,4.95-1,7.42-1.92,12.15,9.54.31,14.56.56,24.79,1.15a85.31,85.31,0,0,0,.72-14c0-1.06.06-2.34.73-2.27,6.14.63,9.31,1,15.76,1.75.31,0,.55.62.64,2.18-.11,10.59-.18,20.87-4.71,30.74a1.93,1.93,0,0,1-1.67,1.3q-37.48-.32-75-.19c-.57,0-1.15.12-.33-1.16,4.33-6.75,5.65-10.27,9-17.69.48-1.06,1.13-2,1.46-2,3.38,0,5-.06,8.32-.07,5-14.57,9.29-30.24,9.33-45.78-1.58,0-2.15.07-3.88,0-.15,0-.28.22-.14-1.13.85-7.69.82-11.28-.73-17-.11-.42-.11-.74,0-.73C1067,516.93,1080.84,522.83,1092.54,526.16Z"/><path class="cls-2" d="M1139.75,539.7c17,4.83,46.53,13.52,51.28,32.92,4.84,19.8-23.53,30.19-39,30.29l-7.42-.07c-12,.84-20.11-6.56-24.34-16.83-2.83-6.86-4.53-17.41-5.61-23.8a166.13,166.13,0,0,1-2-19.26c-.39-7.05,2.38-10.27,17.83-5.88Zm1.72,26.55c2.18,10.73,5.53,21.37,12.11,21.86,7.42.55,13.59-8.74,12-16.72-1.87-9.4-10.35-18.3-19.42-20.71C1140.54,549.17,1139.41,556.12,1141.47,566.25Z"/><path class="cls-2" d="M1182.69,603.17c-.26,0,.1-.38.77-.9,5.21-4,6.72-6.3,8.87-11.06.27-.62,1.09-1.43,1.46-1.41,3.52.25,5.26.36,8.66.58,3.87-8.43,1.63-20.68-3.9-27.87-3.72-.68-5.63-1-9.54-1.8a1.91,1.91,0,0,1-1.07-.8,30.16,30.16,0,0,0-9.91-9.69c-.54-.35-.17-.28.14-.2,14.56,3.51,29.17,7.38,44.15,8.65,10.91.85,22.41,3.48,30.7,10.3,11.3,9.3-3.91,14.35-5.83,14.58-7,.81-11.22,1-21.26.7a16,16,0,0,1-1.76,7c4.2,0,6.17,0,9.86-.21.72,0,.57.62.3,1.14-2.12,4-3.81,5.85-9.41,9.09a6.79,6.79,0,0,1-2.71,1.08C1209,603.17,1195.91,603.25,1182.69,603.17Zm53.39-30.71c.55,0,2.4-.58.34-2.89a9.33,9.33,0,0,0-5.2-3c-4.38-.16-6.89-.37-12.42-1a28.08,28.08,0,0,1,4.24,6.26C1228.82,572.33,1231.45,572.45,1236.08,572.46Z"/></g></g></svg>