<svg xmlns="http://www.w3.org/2000/svg" viewBox="0 0 931.31 470.42"><defs><style>.cls-1{fill:#efea92;}.cls-2{fill:#8fd8d0;}.cls-3{fill:#e1998b;}.cls-4{fill:#22661f;}.cls-5{fill:#f9f69b;}.cls-6{fill:#5e6620;}.cls-7{fill:#d6bf5f;}.cls-8{fill:#e5b995;}.cls-9{fill:#efd516;}.cls-10{fill:#664820;}</style></defs><g id="Layer_2" data-name="Layer 2"><g id="Layer_1-2" data-name="Layer 1"><ellipse class="cls-1" cx="342.98" cy="349.76" rx="7.55" ry="18.11"/><ellipse class="cls-1" cx="350.52" cy="349.76" rx="7.55" ry="18.11"/><ellipse class="cls-1" cx="305.23" cy="339.7" rx="7.55" ry="18.11"/><ellipse class="cls-1" cx="320.33" cy="339.7" rx="7.55" ry="18.11"/><ellipse class="cls-1" cx="358.07" cy="360.83" rx="7.55" ry="18.11"/><ellipse class="cls-1" cx="316.56" cy="352.28" rx="7.55" ry="18.11"/><ellipse class="cls-1" cx="286.36" cy="336.17" rx="7.55" ry="18.11"/><ellipse class="cls-1" cx="324.1" cy="352.28" rx="7.55" ry="18.11"/><ellipse class="cls-1" cx="278.81" cy="342.21" rx="7.55" ry="18.11"/><ellipse class="cls-1" cx="293.9" cy="342.21" rx="7.55" ry="18.11"/><ellipse class="cls-1" cx="331.65" cy="363.34" rx="7.55" ry="18.11"/><ellipse class="cls-1" cx="303.35" cy="359.07" rx="7.55" ry="18.11"/><ellipse class="cls-1" cx="273.15" cy="342.97" rx="7.55" ry="18.11"/><ellipse class="cls-1" cx="310.89" cy="359.07" rx="7.55" ry="18.11"/><ellipse class="cls-1" cx="265.6" cy="349" rx="7.55" ry="18.11"/><ellipse class="cls-1" cx="280.69" cy="349" rx="7.55" ry="18.11"/><ellipse class="cls-1" cx="318.44" cy="370.14" rx="7.55" ry="18.11"/><ellipse class="cls-1" cx="276.92" cy="361.58" rx="7.55" ry="18.11"/><ellipse class="cls-1" cx="246.73" cy="345.48" rx="7.55" ry="18.11"/><ellipse class="cls-1" cx="284.47" cy="361.58" rx="7.55" ry="18.11"/><ellipse class="cls-1" cx="239.18" cy="351.52" rx="7.55" ry="18.11"/><ellipse class="cls-1" cx="254.27" cy="351.52" rx="7.55" ry="18.11"/><ellipse class="cls-1" cx="292.02" cy="372.65" rx="7.55" ry="18.11"/><ellipse class="cls-2" cx="250.81" cy="127.89" rx="7.55" ry="18.11"/><ellipse class="cls-2" cx="258.36" cy="127.89" rx="7.55" ry="18.11"/><ellipse class="cls-2" cx="213.07" cy="117.83" rx="7.55" ry="18.11"/><ellipse class="cls-2" cx="228.16" cy="117.83" rx="7.55" ry="18.11"/><ellipse class="cls-2" cx="265.91" cy="138.96" rx="7.55" ry="18.11"/><ellipse class="cls-2" cx="224.39" cy="130.41" rx="7.55" ry="18.11"/><ellipse class="cls-2" cx="194.19" cy="114.31" rx="7.55" ry="18.11"/><ellipse class="cls-2" cx="231.94" cy="130.41" rx="7.55" ry="18.11"/><ellipse class="cls-2" cx="186.65" cy="120.34" rx="7.55" ry="18.11"/><ellipse class="cls-2" cx="201.74" cy="120.34" rx="7.55" ry="18.11"/><ellipse class="cls-2" cx="239.49" cy="141.48" rx="7.55" ry="18.11"/><ellipse class="cls-2" cx="211.18" cy="137.2" rx="7.55" ry="18.11"/><ellipse class="cls-2" cx="180.98" cy="121.1" rx="7.55" ry="18.11"/><ellipse class="cls-2" cx="218.73" cy="137.2" rx="7.55" ry="18.11"/><ellipse class="cls-2" cx="173.43" cy="127.14" rx="7.55" ry="18.11"/><ellipse class="cls-2" cx="188.53" cy="127.14" rx="7.55" ry="18.11"/><ellipse class="cls-2" cx="226.28" cy="148.27" rx="7.55" ry="18.11"/><ellipse class="cls-2" cx="184.76" cy="139.72" rx="7.55" ry="18.11"/><ellipse class="cls-2" cx="154.56" cy="123.62" rx="7.55" ry="18.11"/><ellipse class="cls-2" cx="192.31" cy="139.72" rx="7.55" ry="18.11"/><ellipse class="cls-2" cx="147.01" cy="129.65" rx="7.55" ry="18.11"/><ellipse class="cls-2" cx="162.11" cy="129.65" rx="7.55" ry="18.11"/><ellipse class="cls-2" cx="199.86" cy="150.79" rx="7.55" ry="18.11"/><ellipse class="cls-2" cx="748.73" cy="157.45" rx="7.55" ry="18.11"/><ellipse class="cls-2" cx="756.28" cy="157.45" rx="7.55" ry="18.11"/><ellipse class="cls-2" cx="710.98" cy="147.39" rx="7.55" ry="18.11"/><ellipse class="cls-2" cx="726.08" cy="147.39" rx="7.55" ry="18.11"/><ellipse class="cls-2" cx="763.82" cy="168.52" rx="7.55" ry="18.11"/><ellipse class="cls-2" cx="722.31" cy="159.97" rx="7.55" ry="18.11"/><ellipse class="cls-2" cx="692.11" cy="143.87" rx="7.55" ry="18.11"/><ellipse class="cls-2" cx="729.86" cy="159.97" rx="7.55" ry="18.11"/><ellipse class="cls-2" cx="684.56" cy="149.91" rx="7.55" ry="18.11"/><ellipse class="cls-2" cx="699.66" cy="149.91" rx="7.55" ry="18.11"/><ellipse class="cls-2" cx="737.4" cy="171.04" rx="7.55" ry="18.11"/><ellipse class="cls-2" cx="709.1" cy="166.76" rx="7.55" ry="18.11"/><ellipse class="cls-2" cx="678.9" cy="150.66" rx="7.55" ry="18.11"/><ellipse class="cls-2" cx="716.65" cy="166.76" rx="7.55" ry="18.11"/><ellipse class="cls-2" cx="671.35" cy="156.7" rx="7.55" ry="18.11"/><ellipse class="cls-2" cx="686.45" cy="156.7" rx="7.55" ry="18.11"/><ellipse class="cls-2" cx="724.19" cy="177.83" rx="7.55" ry="18.11"/><ellipse class="cls-2" cx="682.68" cy="169.28" rx="7.55" ry="18.11"/><ellipse class="cls-2" cx="652.48" cy="153.18" rx="7.55" ry="18.11"/><ellipse class="cls-2" cx="690.22" cy="169.28" rx="7.55" ry="18.11"/><ellipse class="cls-2" cx="644.93" cy="159.21" rx="7.55" ry="18.11"/><ellipse class="cls-2" cx="660.03" cy="159.21" rx="7.55" ry="18.11"/><ellipse class="cls-2" cx="697.77" cy="180.35" rx="7.55" ry="18.11"/><ellipse class="cls-3" cx="596" cy="341.53" rx="7.55" ry="18.11"/><ellipse class="cls-3" cx="603.55" cy="341.53" rx="7.55" ry="18.11"/><ellipse class="cls-3" cx="558.26" cy="331.46" rx="7.55" ry="18.11"/><ellipse class="cls-3" cx="573.35" cy="331.46" rx="7.55" ry="18.11"/><ellipse class="cls-3" cx="611.1" cy="352.6" rx="7.55" ry="18.11"/><ellipse class="cls-3" cx="569.58" cy="344.04" rx="7.55" ry="18.11"/><ellipse class="cls-3" cx="539.38" cy="327.94" rx="7.55" ry="18.11"/><ellipse class="cls-3" cx="577.13" cy="344.04" rx="7.55" ry="18.11"/><ellipse class="cls-3" cx="531.84" cy="333.98" rx="7.55" ry="18.11"/><ellipse class="cls-3" cx="546.93" cy="333.98" rx="7.55" ry="18.11"/><ellipse class="cls-3" cx="584.68" cy="355.11" rx="7.55" ry="18.11"/><ellipse class="cls-3" cx="556.37" cy="350.84" rx="7.55" ry="18.11"/><ellipse class="cls-3" cx="526.17" cy="334.73" rx="7.55" ry="18.11"/><ellipse class="cls-3" cx="563.92" cy="350.84" rx="7.55" ry="18.11"/><ellipse class="cls-3" cx="518.63" cy="340.77" rx="7.55" ry="18.11"/><ellipse class="cls-3" cx="533.72" cy="340.77" rx="7.55" ry="18.11"/><ellipse class="cls-3" cx="571.47" cy="361.91" rx="7.55" ry="18.11"/><ellipse class="cls-3" cx="529.95" cy="353.35" rx="7.55" ry="18.11"/><ellipse class="cls-3" cx="499.75" cy="337.25" rx="7.55" ry="18.11"/><ellipse class="cls-3" cx="537.5" cy="353.35" rx="7.55" ry="18.11"/><ellipse class="cls-3" cx="492.21" cy="343.29" rx="7.55" ry="18.11"/><ellipse class="cls-3" cx="507.3" cy="343.29" rx="7.55" ry="18.11"/><ellipse class="cls-3" cx="545.05" cy="364.42" rx="7.55" ry="18.11"/><ellipse class="cls-1" cx="441.72" cy="346.36" rx="7.55" ry="18.11"/><ellipse class="cls-1" cx="449.27" cy="346.36" rx="7.55" ry="18.11"/><ellipse class="cls-1" cx="403.97" cy="336.3" rx="7.55" ry="18.11"/><ellipse class="cls-1" cx="419.07" cy="336.3" rx="7.55" ry="18.11"/><ellipse class="cls-1" cx="456.82" cy="357.43" rx="7.55" ry="18.11"/><ellipse class="cls-1" cx="415.3" cy="348.88" rx="7.55" ry="18.11"/><ellipse class="cls-1" cx="385.1" cy="332.78" rx="7.55" ry="18.11"/><ellipse class="cls-1" cx="422.85" cy="348.88" rx="7.55" ry="18.11"/><ellipse class="cls-1" cx="377.55" cy="338.82" rx="7.55" ry="18.11"/><ellipse class="cls-1" cx="392.65" cy="338.82" rx="7.55" ry="18.11"/><ellipse class="cls-1" cx="430.39" cy="359.95" rx="7.55" ry="18.11"/><ellipse class="cls-1" cx="402.09" cy="355.67" rx="7.55" ry="18.11"/><ellipse class="cls-1" cx="371.89" cy="339.57" rx="7.55" ry="18.11"/><ellipse class="cls-1" cx="409.64" cy="355.67" rx="7.55" ry="18.11"/><ellipse class="cls-1" cx="364.34" cy="345.61" rx="7.55" ry="18.11"/><ellipse class="cls-1" cx="379.44" cy="345.61" rx="7.55" ry="18.11"/><ellipse class="cls-1" cx="417.18" cy="366.74" rx="7.55" ry="18.11"/><ellipse class="cls-1" cx="375.67" cy="358.19" rx="7.55" ry="18.11"/><ellipse class="cls-1" cx="345.47" cy="342.09" rx="7.55" ry="18.11"/><ellipse class="cls-1" cx="383.22" cy="358.19" rx="7.55" ry="18.11"/><ellipse class="cls-1" cx="337.92" cy="348.12" rx="7.55" ry="18.11"/><ellipse class="cls-1" cx="353.02" cy="348.12" rx="7.55" ry="18.11"/><ellipse class="cls-1" cx="390.76" cy="369.26" rx="7.55" ry="18.11"/><ellipse class="cls-3" cx="708.71" cy="158.93" rx="7.55" ry="18.11"/><ellipse class="cls-3" cx="716.25" cy="158.93" rx="7.55" ry="18.11"/><ellipse class="cls-3" cx="670.96" cy="148.87" rx="7.55" ry="18.11"/><ellipse class="cls-3" cx="686.05" cy="148.87" rx="7.55" ry="18.11"/><ellipse class="cls-3" cx="723.8" cy="170" rx="7.55" ry="18.11"/><ellipse class="cls-3" cx="682.29" cy="161.44" rx="7.55" ry="18.11"/><ellipse class="cls-3" cx="652.09" cy="145.34" rx="7.55" ry="18.11"/><ellipse class="cls-3" cx="689.83" cy="161.44" rx="7.55" ry="18.11"/><ellipse class="cls-3" cx="644.54" cy="151.38" rx="7.55" ry="18.11"/><ellipse class="cls-3" cx="659.63" cy="151.38" rx="7.55" ry="18.11"/><ellipse class="cls-3" cx="697.38" cy="172.51" rx="7.55" ry="18.11"/><ellipse class="cls-3" cx="669.07" cy="168.24" rx="7.55" ry="18.11"/><ellipse class="cls-3" cx="638.88" cy="152.14" rx="7.55" ry="18.11"/><ellipse class="cls-3" cx="676.62" cy="168.24" rx="7.55" ry="18.11"/><ellipse class="cls-3" cx="631.33" cy="158.17" rx="7.55" ry="18.11"/><ellipse class="cls-3" cx="646.42" cy="158.17" rx="7.55" ry="18.11"/><ellipse class="cls-3" cx="684.17" cy="179.31" rx="7.55" ry="18.11"/><ellipse class="cls-3" cx="642.65" cy="170.75" rx="7.55" ry="18.11"/><ellipse class="cls-3" cx="612.46" cy="154.65" rx="7.55" ry="18.11"/><ellipse class="cls-3" cx="650.2" cy="170.75" rx="7.55" ry="18.11"/><ellipse class="cls-3" cx="604.91" cy="160.69" rx="7.55" ry="18.11"/><ellipse class="cls-3" cx="620" cy="160.69" rx="7.55" ry="18.11"/><ellipse class="cls-3" cx="657.75" cy="181.82" rx="7.55" ry="18.11"/><ellipse class="cls-3" cx="533.11" cy="46.42" rx="7.55" ry="18.11"/><ellipse class="cls-4" cx="528.67" cy="175.38" rx="7.55" ry="18.11"/><ellipse class="cls-3" cx="540.66" cy="46.42" rx="7.55" ry="18.11"/><ellipse class="cls-3" cx="495.37" cy="36.35" rx="7.55" ry="18.11"/><ellipse class="cls-5" cx="510.46" cy="36.35" rx="7.55" ry="18.11"/><ellipse class="cls-3" cx="548.21" cy="57.49" rx="7.55" ry="18.11"/><ellipse class="cls-5" cx="506.69" cy="48.93" rx="7.55" ry="18.11"/><ellipse class="cls-3" cx="476.49" cy="32.83" rx="7.55" ry="18.11"/><ellipse class="cls-6" cx="514.24" cy="48.93" rx="7.55" ry="18.11"/><ellipse class="cls-3" cx="468.95" cy="38.87" rx="7.55" ry="18.11"/><ellipse class="cls-3" cx="484.04" cy="38.87" rx="7.55" ry="18.11"/><ellipse class="cls-3" cx="521.79" cy="60" rx="7.55" ry="18.11"/><ellipse class="cls-3" cx="493.48" cy="55.73" rx="7.55" ry="18.11"/><ellipse class="cls-3" cx="463.28" cy="39.62" rx="7.55" ry="18.11"/><ellipse class="cls-3" cx="501.03" cy="55.73" rx="7.55" ry="18.11"/><ellipse class="cls-3" cx="455.74" cy="45.66" rx="7.55" ry="18.11"/><ellipse class="cls-3" cx="470.83" cy="45.66" rx="7.55" ry="18.11"/><ellipse class="cls-3" cx="508.58" cy="66.8" rx="7.55" ry="18.11"/><ellipse class="cls-6" cx="467.06" cy="58.24" rx="7.55" ry="18.11"/><ellipse class="cls-3" cx="436.86" cy="42.14" rx="7.55" ry="18.11"/><ellipse class="cls-6" cx="474.61" cy="58.24" rx="7.55" ry="18.11"/><ellipse class="cls-3" cx="429.32" cy="48.18" rx="7.55" ry="18.11"/><ellipse class="cls-3" cx="444.41" cy="48.18" rx="7.55" ry="18.11"/><ellipse class="cls-3" cx="482.16" cy="69.31" rx="7.55" ry="18.11"/><ellipse class="cls-3" cx="641.71" cy="114.31" rx="7.55" ry="18.11"/><ellipse class="cls-3" cx="649.26" cy="114.31" rx="7.55" ry="18.11"/><ellipse class="cls-3" cx="603.97" cy="104.24" rx="7.55" ry="18.11"/><ellipse class="cls-3" cx="619.06" cy="104.24" rx="7.55" ry="18.11"/><ellipse class="cls-3" cx="656.81" cy="125.38" rx="7.55" ry="18.11"/><ellipse class="cls-3" cx="615.29" cy="116.82" rx="7.55" ry="18.11"/><ellipse class="cls-3" cx="585.09" cy="100.72" rx="7.55" ry="18.11"/><ellipse class="cls-3" cx="622.84" cy="116.82" rx="7.55" ry="18.11"/><ellipse class="cls-3" cx="577.54" cy="106.76" rx="7.55" ry="18.11"/><ellipse class="cls-3" cx="592.64" cy="106.76" rx="7.55" ry="18.11"/><ellipse class="cls-3" cx="630.39" cy="127.89" rx="7.55" ry="18.11"/><ellipse class="cls-3" cx="602.08" cy="123.62" rx="7.55" ry="18.11"/><ellipse class="cls-3" cx="571.88" cy="107.51" rx="7.55" ry="18.11"/><ellipse class="cls-3" cx="609.63" cy="123.62" rx="7.55" ry="18.11"/><ellipse class="cls-3" cx="564.33" cy="113.55" rx="7.55" ry="18.11"/><ellipse class="cls-3" cx="579.43" cy="113.55" rx="7.55" ry="18.11"/><ellipse class="cls-3" cx="617.18" cy="134.68" rx="7.55" ry="18.11"/><ellipse class="cls-3" cx="575.66" cy="126.13" rx="7.55" ry="18.11"/><ellipse class="cls-3" cx="545.46" cy="110.03" rx="7.55" ry="18.11"/><ellipse class="cls-3" cx="583.21" cy="126.13" rx="7.55" ry="18.11"/><ellipse class="cls-3" cx="537.91" cy="116.07" rx="7.55" ry="18.11"/><ellipse class="cls-3" cx="553.01" cy="116.07" rx="7.55" ry="18.11"/><ellipse class="cls-3" cx="590.75" cy="137.2" rx="7.55" ry="18.11"/><ellipse class="cls-3" cx="596.81" cy="93.78" rx="7.55" ry="18.11"/><ellipse class="cls-3" cx="566.61" cy="77.68" rx="7.55" ry="18.11"/><ellipse class="cls-3" cx="602.78" cy="93.78" rx="7.55" ry="18.11"/><ellipse class="cls-3" cx="559.06" cy="83.71" rx="7.55" ry="18.11"/><ellipse class="cls-3" cx="574.16" cy="83.71" rx="7.55" ry="18.11"/><ellipse class="cls-3" cx="611.9" cy="104.85" rx="7.55" ry="18.11"/><ellipse class="cls-3" cx="570.39" cy="96.29" rx="7.55" ry="18.11"/><ellipse class="cls-3" cx="540.19" cy="80.19" rx="7.55" ry="18.11"/><ellipse class="cls-3" cx="577.94" cy="96.29" rx="7.55" ry="18.11"/><ellipse class="cls-3" cx="532.64" cy="86.23" rx="7.55" ry="18.11"/><ellipse class="cls-3" cx="547.74" cy="86.23" rx="7.55" ry="18.11"/><ellipse class="cls-3" cx="585.48" cy="107.36" rx="7.55" ry="18.11"/><ellipse class="cls-3" cx="557.18" cy="103.09" rx="7.55" ry="18.11"/><ellipse class="cls-3" cx="526.98" cy="86.99" rx="7.55" ry="18.11"/><ellipse class="cls-3" cx="565.14" cy="102.72" rx="7.63" ry="18.32"/><ellipse class="cls-3" cx="519.32" cy="92.54" rx="7.63" ry="18.32"/><ellipse class="cls-3" cx="534.53" cy="93.02" rx="7.55" ry="18.11"/><ellipse class="cls-3" cx="572.27" cy="114.16" rx="7.55" ry="18.11"/><ellipse class="cls-3" cx="530.78" cy="105.27" rx="7.63" ry="18.32"/><ellipse class="cls-7" cx="500.56" cy="89.5" rx="7.55" ry="18.11"/><ellipse class="cls-3" cx="538.31" cy="105.6" rx="7.55" ry="18.11"/><ellipse class="cls-3" cx="492.6" cy="95.09" rx="7.63" ry="18.32"/><ellipse class="cls-3" cx="507.87" cy="95.09" rx="7.63" ry="18.32"/><ellipse class="cls-3" cx="546.05" cy="116.46" rx="7.63" ry="18.32"/><ellipse class="cls-3" cx="509.52" cy="126.67" rx="7.55" ry="18.11"/><ellipse class="cls-3" cx="517.07" cy="126.67" rx="7.55" ry="18.11"/><ellipse class="cls-3" cx="471.77" cy="116.6" rx="7.55" ry="18.11"/><ellipse class="cls-3" cx="486.87" cy="116.6" rx="7.55" ry="18.11"/><ellipse class="cls-3" cx="524.61" cy="137.74" rx="7.55" ry="18.11"/><ellipse class="cls-3" cx="483.1" cy="129.18" rx="7.55" ry="18.11"/><ellipse class="cls-3" cx="452.9" cy="113.08" rx="7.55" ry="18.11"/><ellipse class="cls-3" cx="490.65" cy="129.18" rx="7.55" ry="18.11"/><ellipse class="cls-3" cx="445.35" cy="119.12" rx="7.55" ry="18.11"/><ellipse class="cls-3" cx="460.45" cy="119.12" rx="7.55" ry="18.11"/><ellipse class="cls-3" cx="498.19" cy="140.25" rx="7.55" ry="18.11"/><ellipse class="cls-3" cx="469.89" cy="135.98" rx="7.55" ry="18.11"/><ellipse class="cls-3" cx="439.69" cy="119.88" rx="7.55" ry="18.11"/><ellipse class="cls-3" cx="477.44" cy="135.98" rx="7.55" ry="18.11"/><ellipse class="cls-3" cx="432.14" cy="125.91" rx="7.55" ry="18.11"/><ellipse class="cls-3" cx="447.24" cy="125.91" rx="7.55" ry="18.11"/><ellipse class="cls-3" cx="484.98" cy="147.05" rx="7.55" ry="18.11"/><ellipse class="cls-3" cx="443.47" cy="138.49" rx="7.55" ry="18.11"/><ellipse class="cls-3" cx="413.27" cy="122.39" rx="7.55" ry="18.11"/><ellipse class="cls-3" cx="451.02" cy="138.49" rx="7.55" ry="18.11"/><ellipse class="cls-3" cx="405.72" cy="128.43" rx="7.55" ry="18.11"/><ellipse class="cls-3" cx="420.82" cy="128.43" rx="7.55" ry="18.11"/><ellipse class="cls-3" cx="458.56" cy="149.56" rx="7.55" ry="18.11"/><ellipse class="cls-8" cx="446.78" cy="102.68" rx="7.55" ry="18.11"/><ellipse class="cls-8" cx="454.32" cy="102.68" rx="7.55" ry="18.11"/><ellipse class="cls-4" cx="461.87" cy="113.75" rx="7.55" ry="18.11"/><ellipse class="cls-4" cx="420.35" cy="105.19" rx="7.55" ry="18.11"/><ellipse class="cls-4" cx="427.9" cy="105.19" rx="7.55" ry="18.11"/><ellipse class="cls-4" cx="435.45" cy="116.26" rx="7.55" ry="18.11"/><ellipse class="cls-4" cx="407.14" cy="111.99" rx="7.55" ry="18.11"/><ellipse class="cls-4" cx="414.69" cy="111.99" rx="7.55" ry="18.11"/><ellipse class="cls-4" cx="422.24" cy="123.06" rx="7.55" ry="18.11"/><ellipse class="cls-4" cx="395.82" cy="125.57" rx="7.55" ry="18.11"/><ellipse class="cls-9" cx="459.51" cy="127.25" rx="7.55" ry="18.11"/><ellipse class="cls-9" cx="467.06" cy="127.25" rx="7.55" ry="18.11"/><ellipse class="cls-9" cx="421.77" cy="117.18" rx="7.55" ry="18.11"/><ellipse class="cls-9" cx="436.86" cy="117.18" rx="7.55" ry="18.11"/><ellipse class="cls-9" cx="474.61" cy="138.32" rx="7.55" ry="18.11"/><ellipse class="cls-9" cx="433.09" cy="129.76" rx="7.55" ry="18.11"/><ellipse class="cls-9" cx="402.89" cy="113.66" rx="7.55" ry="18.11"/><ellipse class="cls-9" cx="440.64" cy="129.76" rx="7.55" ry="18.11"/><ellipse class="cls-9" cx="395.35" cy="119.7" rx="7.55" ry="18.11"/><ellipse class="cls-9" cx="410.44" cy="119.7" rx="7.55" ry="18.11"/><ellipse class="cls-9" cx="448.19" cy="140.83" rx="7.55" ry="18.11"/><ellipse class="cls-9" cx="419.88" cy="136.56" rx="7.55" ry="18.11"/><ellipse class="cls-9" cx="389.68" cy="120.46" rx="7.55" ry="18.11"/><ellipse class="cls-9" cx="427.43" cy="136.56" rx="7.55" ry="18.11"/><ellipse class="cls-9" cx="382.14" cy="126.49" rx="7.55" ry="18.11"/><ellipse class="cls-9" cx="397.23" cy="126.49" rx="7.55" ry="18.11"/><ellipse class="cls-9" cx="434.98" cy="147.63" rx="7.55" ry="18.11"/><ellipse class="cls-9" cx="393.46" cy="139.07" rx="7.55" ry="18.11"/><ellipse class="cls-9" cx="363.26" cy="122.97" rx="7.55" ry="18.11"/><ellipse class="cls-9" cx="401.01" cy="139.07" rx="7.55" ry="18.11"/><ellipse class="cls-9" cx="355.72" cy="129.01" rx="7.55" ry="18.11"/><ellipse class="cls-9" cx="370.81" cy="129.01" rx="7.55" ry="18.11"/><ellipse class="cls-9" cx="408.56" cy="150.14" rx="7.55" ry="18.11"/><ellipse class="cls-9" cx="369.4" cy="132.55" rx="7.55" ry="18.11"/><ellipse class="cls-9" cx="376.94" cy="132.55" rx="7.55" ry="18.11"/><ellipse class="cls-9" cx="331.65" cy="122.48" rx="7.55" ry="18.11"/><ellipse class="cls-9" cx="346.75" cy="122.48" rx="7.55" ry="18.11"/><ellipse class="cls-9" cx="384.49" cy="143.62" rx="7.55" ry="18.11"/><ellipse class="cls-9" cx="342.98" cy="135.06" rx="7.55" ry="18.11"/><ellipse class="cls-9" cx="312.78" cy="118.96" rx="7.55" ry="18.11"/><ellipse class="cls-9" cx="350.52" cy="135.06" rx="7.55" ry="18.11"/><ellipse class="cls-9" cx="305.23" cy="125" rx="7.55" ry="18.11"/><ellipse class="cls-9" cx="320.33" cy="125" rx="7.55" ry="18.11"/><ellipse class="cls-9" cx="358.07" cy="146.13" rx="7.55" ry="18.11"/><ellipse class="cls-9" cx="329.77" cy="141.85" rx="7.55" ry="18.11"/><ellipse class="cls-9" cx="299.57" cy="125.75" rx="7.55" ry="18.11"/><ellipse class="cls-9" cx="337.31" cy="141.85" rx="7.55" ry="18.11"/><ellipse class="cls-9" cx="292.02" cy="131.79" rx="7.55" ry="18.11"/><ellipse class="cls-9" cx="307.11" cy="131.79" rx="7.55" ry="18.11"/><ellipse class="cls-9" cx="344.86" cy="152.92" rx="7.55" ry="18.11"/><ellipse class="cls-9" cx="303.35" cy="144.37" rx="7.55" ry="18.11"/><ellipse class="cls-9" cx="273.15" cy="128.27" rx="7.55" ry="18.11"/><ellipse class="cls-9" cx="310.89" cy="144.37" rx="7.55" ry="18.11"/><ellipse class="cls-9" cx="265.6" cy="134.31" rx="7.55" ry="18.11"/><ellipse class="cls-9" cx="280.69" cy="134.31" rx="7.55" ry="18.11"/><ellipse class="cls-9" cx="318.44" cy="155.44" rx="7.55" ry="18.11"/><ellipse class="cls-1" cx="283.84" cy="117.49" rx="7.55" ry="18.11"/><ellipse class="cls-1" cx="291.39" cy="117.49" rx="7.55" ry="18.11"/><ellipse class="cls-1" cx="246.09" cy="107.42" rx="7.55" ry="18.11"/><ellipse class="cls-1" cx="261.19" cy="107.42" rx="7.55" ry="18.11"/><ellipse class="cls-1" cx="298.93" cy="128.56" rx="7.55" ry="18.11"/><ellipse class="cls-1" cx="257.42" cy="120" rx="7.55" ry="18.11"/><ellipse class="cls-1" cx="227.22" cy="103.9" rx="7.55" ry="18.11"/><ellipse class="cls-1" cx="264.97" cy="120" rx="7.55" ry="18.11"/><ellipse class="cls-1" cx="219.67" cy="109.94" rx="7.55" ry="18.11"/><ellipse class="cls-1" cx="234.77" cy="109.94" rx="7.55" ry="18.11"/><ellipse class="cls-1" cx="272.51" cy="131.07" rx="7.55" ry="18.11"/><ellipse class="cls-1" cx="244.21" cy="126.79" rx="7.55" ry="18.11"/><ellipse class="cls-1" cx="214.01" cy="110.69" rx="7.55" ry="18.11"/><ellipse class="cls-1" cx="251.75" cy="126.79" rx="7.55" ry="18.11"/><ellipse class="cls-1" cx="206.46" cy="116.73" rx="7.55" ry="18.11"/><ellipse class="cls-1" cx="221.56" cy="116.73" rx="7.55" ry="18.11"/><ellipse class="cls-1" cx="259.3" cy="137.86" rx="7.55" ry="18.11"/><ellipse class="cls-1" cx="217.79" cy="129.31" rx="7.55" ry="18.11"/><ellipse class="cls-1" cx="187.59" cy="113.21" rx="7.55" ry="18.11"/><ellipse class="cls-1" cx="225.33" cy="129.31" rx="7.55" ry="18.11"/><ellipse class="cls-1" cx="180.04" cy="119.25" rx="7.55" ry="18.11"/><ellipse class="cls-1" cx="195.14" cy="119.25" rx="7.55" ry="18.11"/><ellipse class="cls-1" cx="232.88" cy="140.38" rx="7.55" ry="18.11"/><ellipse class="cls-2" cx="587.17" cy="156.57" rx="7.55" ry="18.11"/><ellipse class="cls-2" cx="594.72" cy="156.57" rx="7.55" ry="18.11"/><ellipse class="cls-2" cx="549.43" cy="146.51" rx="7.55" ry="18.11"/><ellipse class="cls-2" cx="564.52" cy="146.51" rx="7.55" ry="18.11"/><ellipse class="cls-2" cx="602.27" cy="167.64" rx="7.55" ry="18.11"/><ellipse class="cls-2" cx="560.75" cy="159.09" rx="7.55" ry="18.11"/><ellipse class="cls-2" cx="530.55" cy="142.99" rx="7.55" ry="18.11"/><ellipse class="cls-2" cx="568.3" cy="159.09" rx="7.55" ry="18.11"/><ellipse class="cls-2" cx="523.01" cy="149.03" rx="7.55" ry="18.11"/><ellipse class="cls-2" cx="538.1" cy="149.03" rx="7.55" ry="18.11"/><ellipse class="cls-2" cx="575.85" cy="170.16" rx="7.55" ry="18.11"/><ellipse class="cls-2" cx="547.54" cy="165.88" rx="7.55" ry="18.11"/><ellipse class="cls-2" cx="517.34" cy="149.78" rx="7.55" ry="18.11"/><ellipse class="cls-2" cx="555.09" cy="165.88" rx="7.55" ry="18.11"/><ellipse class="cls-2" cx="509.8" cy="155.82" rx="7.55" ry="18.11"/><ellipse class="cls-2" cx="524.89" cy="155.82" rx="7.55" ry="18.11"/><ellipse class="cls-2" cx="562.64" cy="176.95" rx="7.55" ry="18.11"/><ellipse class="cls-2" cx="521.12" cy="168.4" rx="7.55" ry="18.11"/><ellipse class="cls-2" cx="490.92" cy="152.3" rx="7.55" ry="18.11"/><ellipse class="cls-2" cx="528.67" cy="168.4" rx="7.55" ry="18.11"/><ellipse class="cls-2" cx="483.37" cy="158.33" rx="7.55" ry="18.11"/><ellipse class="cls-2" cx="498.47" cy="158.33" rx="7.55" ry="18.11"/><ellipse class="cls-2" cx="536.22" cy="179.47" rx="7.55" ry="18.11"/><ellipse class="cls-3" cx="678.52" cy="152.15" rx="7.55" ry="18.11"/><ellipse class="cls-3" cx="686.06" cy="152.15" rx="7.55" ry="18.11"/><ellipse class="cls-3" cx="640.77" cy="142.09" rx="7.55" ry="18.11"/><ellipse class="cls-3" cx="655.86" cy="142.09" rx="7.55" ry="18.11"/><ellipse class="cls-3" cx="693.61" cy="163.22" rx="7.55" ry="18.11"/><ellipse class="cls-3" cx="652.1" cy="154.67" rx="7.55" ry="18.11"/><ellipse class="cls-3" cx="621.9" cy="138.57" rx="7.55" ry="18.11"/><ellipse class="cls-3" cx="659.64" cy="154.67" rx="7.55" ry="18.11"/><ellipse class="cls-3" cx="614.35" cy="144.61" rx="7.55" ry="18.11"/><ellipse class="cls-3" cx="629.44" cy="144.61" rx="7.55" ry="18.11"/><ellipse class="cls-3" cx="667.19" cy="165.74" rx="7.55" ry="18.11"/><ellipse class="cls-3" cx="638.88" cy="161.46" rx="7.55" ry="18.11"/><ellipse class="cls-3" cx="608.69" cy="145.36" rx="7.55" ry="18.11"/><ellipse class="cls-3" cx="646.43" cy="161.46" rx="7.55" ry="18.11"/><ellipse class="cls-3" cx="601.14" cy="151.4" rx="7.55" ry="18.11"/><ellipse class="cls-3" cx="616.23" cy="151.4" rx="7.55" ry="18.11"/><ellipse class="cls-3" cx="653.98" cy="172.53" rx="7.55" ry="18.11"/><ellipse class="cls-3" cx="612.46" cy="163.98" rx="7.55" ry="18.11"/><ellipse class="cls-3" cx="582.27" cy="147.88" rx="7.55" ry="18.11"/><ellipse class="cls-3" cx="620.01" cy="163.98" rx="7.55" ry="18.11"/><ellipse class="cls-3" cx="574.72" cy="153.92" rx="7.55" ry="18.11"/><ellipse class="cls-3" cx="589.81" cy="153.92" rx="7.55" ry="18.11"/><ellipse class="cls-3" cx="627.56" cy="175.05" rx="7.55" ry="18.11"/><ellipse class="cls-2" cx="328.19" cy="148.52" rx="7.55" ry="18.11"/><ellipse class="cls-2" cx="335.74" cy="148.52" rx="7.55" ry="18.11"/><ellipse class="cls-2" cx="290.44" cy="138.46" rx="7.55" ry="18.11"/><ellipse class="cls-2" cx="305.54" cy="138.46" rx="7.55" ry="18.11"/><ellipse class="cls-2" cx="343.29" cy="159.59" rx="7.55" ry="18.11"/><ellipse class="cls-2" cx="301.77" cy="151.04" rx="7.55" ry="18.11"/><ellipse class="cls-2" cx="271.57" cy="134.94" rx="7.55" ry="18.11"/><ellipse class="cls-2" cx="309.32" cy="151.04" rx="7.55" ry="18.11"/><ellipse class="cls-2" cx="264.02" cy="140.97" rx="7.55" ry="18.11"/><ellipse class="cls-2" cx="279.12" cy="140.97" rx="7.55" ry="18.11"/><ellipse class="cls-2" cx="316.86" cy="162.11" rx="7.55" ry="18.11"/><ellipse class="cls-2" cx="288.56" cy="157.83" rx="7.55" ry="18.11"/><ellipse class="cls-2" cx="258.36" cy="141.73" rx="7.55" ry="18.11"/><ellipse class="cls-2" cx="296.11" cy="157.83" rx="7.55" ry="18.11"/><ellipse class="cls-2" cx="250.81" cy="147.77" rx="7.55" ry="18.11"/><ellipse class="cls-2" cx="265.91" cy="147.77" rx="7.55" ry="18.11"/><ellipse class="cls-2" cx="303.65" cy="168.9" rx="7.55" ry="18.11"/><ellipse class="cls-2" cx="262.14" cy="160.35" rx="7.55" ry="18.11"/><ellipse class="cls-2" cx="231.94" cy="144.24" rx="7.55" ry="18.11"/><ellipse class="cls-2" cx="269.69" cy="160.35" rx="7.55" ry="18.11"/><ellipse class="cls-2" cx="224.39" cy="150.28" rx="7.55" ry="18.11"/><ellipse class="cls-2" cx="239.49" cy="150.28" rx="7.55" ry="18.11"/><ellipse class="cls-2" cx="277.23" cy="171.42" rx="7.55" ry="18.11"/><ellipse class="cls-3" cx="364.69" cy="380.39" rx="7.55" ry="18.11"/><ellipse class="cls-3" cx="372.23" cy="380.39" rx="7.55" ry="18.11"/><ellipse class="cls-3" cx="326.94" cy="370.33" rx="7.55" ry="18.11"/><ellipse class="cls-3" cx="342.03" cy="370.33" rx="7.55" ry="18.11"/><ellipse class="cls-3" cx="379.78" cy="391.46" rx="7.55" ry="18.11"/><ellipse class="cls-3" cx="338.27" cy="382.91" rx="7.55" ry="18.11"/><ellipse class="cls-3" cx="308.07" cy="366.8" rx="7.55" ry="18.11"/><ellipse class="cls-3" cx="345.81" cy="382.91" rx="7.55" ry="18.11"/><ellipse class="cls-3" cx="300.52" cy="372.84" rx="7.55" ry="18.11"/><ellipse class="cls-3" cx="315.61" cy="372.84" rx="7.55" ry="18.11"/><ellipse class="cls-3" cx="353.36" cy="393.98" rx="7.55" ry="18.11"/><ellipse class="cls-3" cx="325.05" cy="389.7" rx="7.55" ry="18.11"/><ellipse class="cls-3" cx="294.86" cy="373.6" rx="7.55" ry="18.11"/><ellipse class="cls-3" cx="332.6" cy="389.7" rx="7.55" ry="18.11"/><ellipse class="cls-3" cx="287.31" cy="379.63" rx="7.55" ry="18.11"/><ellipse class="cls-3" cx="302.4" cy="379.63" rx="7.55" ry="18.11"/><ellipse class="cls-3" cx="340.15" cy="400.77" rx="7.55" ry="18.11"/><ellipse class="cls-3" cx="298.63" cy="392.21" rx="7.55" ry="18.11"/><ellipse class="cls-3" cx="268.44" cy="376.11" rx="7.55" ry="18.11"/><ellipse class="cls-3" cx="306.18" cy="392.21" rx="7.55" ry="18.11"/><ellipse class="cls-3" cx="260.89" cy="382.15" rx="7.55" ry="18.11"/><ellipse class="cls-3" cx="275.98" cy="382.15" rx="7.55" ry="18.11"/><ellipse class="cls-3" cx="313.73" cy="403.28" rx="7.55" ry="18.11"/><ellipse class="cls-3" cx="473.67" cy="367.54" rx="7.55" ry="18.11"/><ellipse class="cls-3" cx="481.21" cy="367.54" rx="7.55" ry="18.11"/><ellipse class="cls-3" cx="435.92" cy="357.47" rx="7.55" ry="18.11"/><ellipse class="cls-3" cx="451.02" cy="357.47" rx="7.55" ry="18.11"/><ellipse class="cls-3" cx="488.76" cy="378.61" rx="7.55" ry="18.11"/><ellipse class="cls-3" cx="447.25" cy="370.05" rx="7.55" ry="18.11"/><ellipse class="cls-3" cx="417.05" cy="353.95" rx="7.55" ry="18.11"/><ellipse class="cls-3" cx="454.79" cy="370.05" rx="7.55" ry="18.11"/><ellipse class="cls-3" cx="409.5" cy="359.99" rx="7.55" ry="18.11"/><ellipse class="cls-3" cx="424.59" cy="359.99" rx="7.55" ry="18.11"/><ellipse class="cls-3" cx="462.34" cy="381.12" rx="7.55" ry="18.11"/><ellipse class="cls-3" cx="434.04" cy="376.85" rx="7.55" ry="18.11"/><ellipse class="cls-3" cx="403.84" cy="360.74" rx="7.55" ry="18.11"/><ellipse class="cls-3" cx="441.58" cy="376.85" rx="7.55" ry="18.11"/><ellipse class="cls-3" cx="396.29" cy="366.78" rx="7.55" ry="18.11"/><ellipse class="cls-3" cx="411.38" cy="366.78" rx="7.55" ry="18.11"/><ellipse class="cls-3" cx="449.13" cy="387.92" rx="7.55" ry="18.11"/><ellipse class="cls-3" cx="407.62" cy="379.36" rx="7.55" ry="18.11"/><ellipse class="cls-3" cx="377.42" cy="363.26" rx="7.55" ry="18.11"/><ellipse class="cls-3" cx="415.16" cy="379.36" rx="7.55" ry="18.11"/><ellipse class="cls-3" cx="369.87" cy="369.3" rx="7.55" ry="18.11"/><ellipse class="cls-3" cx="384.96" cy="369.3" rx="7.55" ry="18.11"/><ellipse class="cls-3" cx="422.71" cy="390.43" rx="7.55" ry="18.11"/><ellipse class="cls-3" cx="399.6" cy="381.77" rx="7.55" ry="18.11"/><ellipse class="cls-3" cx="407.14" cy="381.77" rx="7.55" ry="18.11"/><ellipse class="cls-3" cx="361.85" cy="371.71" rx="7.55" ry="18.11"/><ellipse class="cls-3" cx="376.94" cy="371.71" rx="7.55" ry="18.11"/><ellipse class="cls-3" cx="414.69" cy="392.84" rx="7.55" ry="18.11"/><ellipse class="cls-3" cx="373.18" cy="384.29" rx="7.55" ry="18.11"/><ellipse class="cls-3" cx="342.98" cy="368.19" rx="7.55" ry="18.11"/><ellipse class="cls-3" cx="380.72" cy="384.29" rx="7.55" ry="18.11"/><ellipse class="cls-3" cx="335.43" cy="374.22" rx="7.55" ry="18.11"/><ellipse class="cls-3" cx="350.52" cy="374.22" rx="7.55" ry="18.11"/><ellipse class="cls-3" cx="388.27" cy="395.36" rx="7.55" ry="18.11"/><ellipse class="cls-3" cx="359.97" cy="391.08" rx="7.55" ry="18.11"/><ellipse class="cls-3" cx="329.77" cy="374.98" rx="7.55" ry="18.11"/><ellipse class="cls-3" cx="367.51" cy="391.08" rx="7.55" ry="18.11"/><ellipse class="cls-3" cx="322.22" cy="381.02" rx="7.55" ry="18.11"/><ellipse class="cls-3" cx="337.31" cy="381.02" rx="7.55" ry="18.11"/><ellipse class="cls-3" cx="375.06" cy="402.15" rx="7.55" ry="18.11"/><ellipse class="cls-3" cx="333.54" cy="393.6" rx="7.55" ry="18.11"/><ellipse class="cls-3" cx="303.35" cy="377.49" rx="7.55" ry="18.11"/><ellipse class="cls-3" cx="341.09" cy="393.6" rx="7.55" ry="18.11"/><ellipse class="cls-3" cx="295.8" cy="383.53" rx="7.55" ry="18.11"/><ellipse class="cls-3" cx="310.89" cy="383.53" rx="7.55" ry="18.11"/><ellipse class="cls-3" cx="348.64" cy="404.66" rx="7.55" ry="18.11"/><ellipse class="cls-3" cx="565.47" cy="364.93" rx="7.55" ry="18.11"/><ellipse class="cls-3" cx="573.02" cy="364.93" rx="7.55" ry="18.11"/><ellipse class="cls-3" cx="527.73" cy="354.86" rx="7.55" ry="18.11"/><ellipse class="cls-3" cx="542.82" cy="354.86" rx="7.55" ry="18.11"/><ellipse class="cls-3" cx="580.57" cy="376" rx="7.55" ry="18.11"/><ellipse class="cls-3" cx="539.05" cy="367.44" rx="7.55" ry="18.11"/><ellipse class="cls-3" cx="508.85" cy="351.34" rx="7.55" ry="18.11"/><ellipse class="cls-3" cx="546.6" cy="367.44" rx="7.55" ry="18.11"/><ellipse class="cls-3" cx="501.31" cy="357.38" rx="7.55" ry="18.11"/><ellipse class="cls-3" cx="516.4" cy="357.38" rx="7.55" ry="18.11"/><ellipse class="cls-3" cx="554.15" cy="378.51" rx="7.55" ry="18.11"/><ellipse class="cls-3" cx="525.84" cy="374.24" rx="7.55" ry="18.11"/><ellipse class="cls-3" cx="495.64" cy="358.13" rx="7.55" ry="18.11"/><ellipse class="cls-3" cx="533.39" cy="374.24" rx="7.55" ry="18.11"/><ellipse class="cls-3" cx="488.09" cy="364.17" rx="7.55" ry="18.11"/><ellipse class="cls-3" cx="503.19" cy="364.17" rx="7.55" ry="18.11"/><ellipse class="cls-3" cx="540.94" cy="385.3" rx="7.55" ry="18.11"/><ellipse class="cls-3" cx="499.42" cy="376.75" rx="7.55" ry="18.11"/><ellipse class="cls-3" cx="469.22" cy="360.65" rx="7.55" ry="18.11"/><ellipse class="cls-3" cx="506.97" cy="376.75" rx="7.55" ry="18.11"/><ellipse class="cls-3" cx="461.67" cy="366.69" rx="7.55" ry="18.11"/><ellipse class="cls-3" cx="476.77" cy="366.69" rx="7.55" ry="18.11"/><ellipse class="cls-3" cx="514.52" cy="387.82" rx="7.55" ry="18.11"/><ellipse class="cls-3" cx="327.88" cy="406.68" rx="7.55" ry="18.11"/><ellipse class="cls-3" cx="335.43" cy="406.68" rx="7.55" ry="18.11"/><ellipse class="cls-3" cx="290.14" cy="396.61" rx="7.55" ry="18.11"/><ellipse class="cls-3" cx="305.23" cy="396.61" rx="7.55" ry="18.11"/><ellipse class="cls-3" cx="342.98" cy="417.75" rx="7.55" ry="18.11"/><ellipse class="cls-3" cx="301.46" cy="409.19" rx="7.55" ry="18.11"/><ellipse class="cls-3" cx="271.26" cy="393.09" rx="7.55" ry="18.11"/><ellipse class="cls-3" cx="309.01" cy="409.19" rx="7.55" ry="18.11"/><ellipse class="cls-3" cx="263.71" cy="399.13" rx="7.55" ry="18.11"/><ellipse class="cls-3" cx="278.81" cy="399.13" rx="7.55" ry="18.11"/><ellipse class="cls-3" cx="316.56" cy="420.26" rx="7.55" ry="18.11"/><ellipse class="cls-3" cx="288.25" cy="415.99" rx="7.55" ry="18.11"/><ellipse class="cls-3" cx="258.05" cy="399.88" rx="7.55" ry="18.11"/><ellipse class="cls-3" cx="295.8" cy="415.99" rx="7.55" ry="18.11"/><ellipse class="cls-3" cx="250.5" cy="405.92" rx="7.55" ry="18.11"/><ellipse class="cls-3" cx="265.6" cy="405.92" rx="7.55" ry="18.11"/><ellipse class="cls-3" cx="303.35" cy="427.06" rx="7.55" ry="18.11"/><ellipse class="cls-3" cx="261.83" cy="418.5" rx="7.55" ry="18.11"/><ellipse class="cls-3" cx="231.63" cy="402.4" rx="7.55" ry="18.11"/><ellipse class="cls-3" cx="269.38" cy="418.5" rx="7.55" ry="18.11"/><ellipse class="cls-3" cx="224.08" cy="408.44" rx="7.55" ry="18.11"/><ellipse class="cls-3" cx="239.18" cy="408.44" rx="7.55" ry="18.11"/><ellipse class="cls-3" cx="276.92" cy="429.57" rx="7.55" ry="18.11"/><ellipse class="cls-1" cx="145.77" cy="394.99" rx="7.55" ry="18.11"/><ellipse class="cls-1" cx="153.32" cy="394.99" rx="7.55" ry="18.11"/><ellipse class="cls-1" cx="108.03" cy="384.93" rx="7.55" ry="18.11"/><ellipse class="cls-1" cx="123.12" cy="384.93" rx="7.55" ry="18.11"/><ellipse class="cls-1" cx="160.87" cy="406.06" rx="7.55" ry="18.11"/><ellipse class="cls-1" cx="119.35" cy="397.51" rx="7.55" ry="18.11"/><ellipse class="cls-1" cx="89.15" cy="381.41" rx="7.55" ry="18.11"/><ellipse class="cls-1" cx="126.9" cy="397.51" rx="7.55" ry="18.11"/><ellipse class="cls-1" cx="81.61" cy="387.44" rx="7.55" ry="18.11"/><ellipse class="cls-1" cx="96.7" cy="387.44" rx="7.55" ry="18.11"/><ellipse class="cls-1" cx="134.45" cy="408.58" rx="7.55" ry="18.11"/><ellipse class="cls-1" cx="106.14" cy="404.3" rx="7.55" ry="18.11"/><ellipse class="cls-1" cx="75.94" cy="388.2" rx="7.55" ry="18.11"/><ellipse class="cls-1" cx="113.69" cy="404.3" rx="7.55" ry="18.11"/><ellipse class="cls-1" cx="68.39" cy="394.24" rx="7.55" ry="18.11"/><ellipse class="cls-1" cx="83.49" cy="394.24" rx="7.55" ry="18.11"/><ellipse class="cls-1" cx="121.24" cy="415.37" rx="7.55" ry="18.11"/><ellipse class="cls-1" cx="79.72" cy="406.82" rx="7.55" ry="18.11"/><ellipse class="cls-1" cx="49.52" cy="390.71" rx="7.55" ry="18.11"/><ellipse class="cls-1" cx="87.27" cy="406.82" rx="7.55" ry="18.11"/><ellipse class="cls-1" cx="41.97" cy="396.75" rx="7.55" ry="18.11"/><ellipse class="cls-1" cx="57.07" cy="396.75" rx="7.55" ry="18.11"/><ellipse class="cls-1" cx="94.82" cy="417.88" rx="7.55" ry="18.11"/><ellipse class="cls-1" cx="190.12" cy="416.74" rx="7.55" ry="18.11"/><ellipse class="cls-1" cx="197.67" cy="416.74" rx="7.55" ry="18.11"/><ellipse class="cls-1" cx="152.38" cy="406.68" rx="7.55" ry="18.11"/><ellipse class="cls-1" cx="167.47" cy="406.68" rx="7.55" ry="18.11"/><ellipse class="cls-1" cx="205.22" cy="427.81" rx="7.55" ry="18.11"/><ellipse class="cls-1" cx="163.7" cy="419.26" rx="7.55" ry="18.11"/><ellipse class="cls-1" cx="133.5" cy="403.16" rx="7.55" ry="18.11"/><ellipse class="cls-1" cx="171.25" cy="419.26" rx="7.55" ry="18.11"/><ellipse class="cls-1" cx="125.96" cy="409.2" rx="7.55" ry="18.11"/><ellipse class="cls-1" cx="141.05" cy="409.2" rx="7.55" ry="18.11"/><ellipse class="cls-1" cx="178.8" cy="430.33" rx="7.55" ry="18.11"/><ellipse class="cls-1" cx="150.49" cy="426.05" rx="7.55" ry="18.11"/><ellipse class="cls-1" cx="120.29" cy="409.95" rx="7.55" ry="18.11"/><ellipse class="cls-1" cx="158.04" cy="426.05" rx="7.55" ry="18.11"/><ellipse class="cls-1" cx="112.75" cy="415.99" rx="7.55" ry="18.11"/><ellipse class="cls-1" cx="127.84" cy="415.99" rx="7.55" ry="18.11"/><ellipse class="cls-1" cx="165.59" cy="437.12" rx="7.55" ry="18.11"/><ellipse class="cls-1" cx="124.07" cy="428.57" rx="7.55" ry="18.11"/><ellipse class="cls-1" cx="93.87" cy="412.47" rx="7.55" ry="18.11"/><ellipse class="cls-1" cx="131.62" cy="428.57" rx="7.55" ry="18.11"/><ellipse class="cls-1" cx="86.33" cy="418.5" rx="7.55" ry="18.11"/><ellipse class="cls-1" cx="101.42" cy="418.5" rx="7.55" ry="18.11"/><ellipse class="cls-1" cx="139.17" cy="439.64" rx="7.55" ry="18.11"/><ellipse class="cls-1" cx="264.02" cy="376.75" rx="7.55" ry="18.11"/><ellipse class="cls-1" cx="271.57" cy="376.75" rx="7.55" ry="18.11"/><ellipse class="cls-1" cx="226.28" cy="366.69" rx="7.55" ry="18.11"/><ellipse class="cls-1" cx="241.37" cy="366.69" rx="7.55" ry="18.11"/><ellipse class="cls-1" cx="279.12" cy="387.82" rx="7.55" ry="18.11"/><ellipse class="cls-1" cx="237.6" cy="379.27" rx="7.55" ry="18.11"/><ellipse class="cls-1" cx="207.4" cy="363.17" rx="7.55" ry="18.11"/><ellipse class="cls-1" cx="245.15" cy="379.27" rx="7.55" ry="18.11"/><ellipse class="cls-1" cx="199.86" cy="369.2" rx="7.55" ry="18.11"/><ellipse class="cls-1" cx="214.95" cy="369.2" rx="7.55" ry="18.11"/><ellipse class="cls-1" cx="252.7" cy="390.34" rx="7.55" ry="18.11"/><ellipse class="cls-1" cx="224.39" cy="386.06" rx="7.55" ry="18.11"/><ellipse class="cls-1" cx="194.19" cy="369.96" rx="7.55" ry="18.11"/><ellipse class="cls-1" cx="231.94" cy="386.06" rx="7.55" ry="18.11"/><ellipse class="cls-1" cx="186.65" cy="376" rx="7.55" ry="18.11"/><ellipse class="cls-1" cx="201.74" cy="376" rx="7.55" ry="18.11"/><ellipse class="cls-1" cx="239.49" cy="397.13" rx="7.55" ry="18.11"/><ellipse class="cls-1" cx="197.97" cy="388.58" rx="7.55" ry="18.11"/><ellipse class="cls-1" cx="167.77" cy="372.47" rx="7.55" ry="18.11"/><ellipse class="cls-1" cx="205.52" cy="388.58" rx="7.55" ry="18.11"/><ellipse class="cls-1" cx="160.22" cy="378.51" rx="7.55" ry="18.11"/><ellipse class="cls-1" cx="175.32" cy="378.51" rx="7.55" ry="18.11"/><ellipse class="cls-1" cx="213.07" cy="399.65" rx="7.55" ry="18.11"/><ellipse class="cls-3" cx="752.79" cy="428.14" rx="7.55" ry="18.11"/><ellipse class="cls-3" cx="760.34" cy="428.14" rx="7.55" ry="18.11"/><ellipse class="cls-3" cx="715.05" cy="418.07" rx="7.55" ry="18.11"/><ellipse class="cls-3" cx="730.14" cy="418.07" rx="7.55" ry="18.11"/><ellipse class="cls-3" cx="767.89" cy="439.2" rx="7.55" ry="18.11"/><ellipse class="cls-3" cx="726.37" cy="430.65" rx="7.55" ry="18.11"/><ellipse class="cls-3" cx="696.17" cy="414.55" rx="7.55" ry="18.11"/><ellipse class="cls-3" cx="733.92" cy="430.65" rx="7.55" ry="18.11"/><ellipse class="cls-3" cx="688.62" cy="420.59" rx="7.55" ry="18.11"/><ellipse class="cls-3" cx="703.72" cy="420.59" rx="7.55" ry="18.11"/><ellipse class="cls-3" cx="741.47" cy="441.72" rx="7.55" ry="18.11"/><ellipse class="cls-3" cx="713.16" cy="437.44" rx="7.55" ry="18.11"/><ellipse class="cls-3" cx="682.96" cy="421.34" rx="7.55" ry="18.11"/><ellipse class="cls-3" cx="720.71" cy="437.44" rx="7.55" ry="18.11"/><ellipse class="cls-3" cx="675.41" cy="427.38" rx="7.55" ry="18.11"/><ellipse class="cls-3" cx="690.51" cy="427.38" rx="7.55" ry="18.11"/><ellipse class="cls-3" cx="728.26" cy="448.51" rx="7.55" ry="18.11"/><ellipse class="cls-3" cx="686.74" cy="439.96" rx="7.55" ry="18.11"/><ellipse class="cls-3" cx="656.54" cy="423.86" rx="7.55" ry="18.11"/><ellipse class="cls-3" cx="694.29" cy="439.96" rx="7.55" ry="18.11"/><ellipse class="cls-3" cx="648.99" cy="429.9" rx="7.55" ry="18.11"/><ellipse class="cls-3" cx="664.09" cy="429.9" rx="7.55" ry="18.11"/><ellipse class="cls-3" cx="701.84" cy="451.03" rx="7.55" ry="18.11"/><ellipse class="cls-3" cx="804.95" cy="384.76" rx="7.55" ry="18.11"/><ellipse class="cls-3" cx="812.5" cy="384.76" rx="7.55" ry="18.11"/><ellipse class="cls-3" cx="767.2" cy="374.69" rx="7.55" ry="18.11"/><ellipse class="cls-3" cx="782.3" cy="374.69" rx="7.55" ry="18.11"/><ellipse class="cls-3" cx="820.04" cy="395.83" rx="7.55" ry="18.11"/><ellipse class="cls-3" cx="778.53" cy="387.27" rx="7.55" ry="18.11"/><ellipse class="cls-3" cx="748.33" cy="371.17" rx="7.55" ry="18.11"/><ellipse class="cls-3" cx="786.07" cy="387.27" rx="7.55" ry="18.11"/><ellipse class="cls-3" cx="740.78" cy="377.21" rx="7.55" ry="18.11"/><ellipse class="cls-3" cx="755.88" cy="377.21" rx="7.55" ry="18.11"/><ellipse class="cls-3" cx="793.62" cy="398.34" rx="7.55" ry="18.11"/><ellipse class="cls-3" cx="765.32" cy="394.06" rx="7.55" ry="18.11"/><ellipse class="cls-3" cx="735.12" cy="377.96" rx="7.55" ry="18.11"/><ellipse class="cls-3" cx="772.86" cy="394.06" rx="7.55" ry="18.11"/><ellipse class="cls-3" cx="727.57" cy="384" rx="7.55" ry="18.11"/><ellipse class="cls-3" cx="742.67" cy="384" rx="7.55" ry="18.11"/><ellipse class="cls-3" cx="780.41" cy="405.13" rx="7.55" ry="18.11"/><ellipse class="cls-3" cx="738.9" cy="396.58" rx="7.55" ry="18.11"/><ellipse class="cls-3" cx="708.7" cy="380.48" rx="7.55" ry="18.11"/><ellipse class="cls-3" cx="746.44" cy="396.58" rx="7.55" ry="18.11"/><ellipse class="cls-3" cx="701.15" cy="386.52" rx="7.55" ry="18.11"/><ellipse class="cls-3" cx="716.24" cy="386.52" rx="7.55" ry="18.11"/><ellipse class="cls-3" cx="753.99" cy="407.65" rx="7.55" ry="18.11"/><ellipse class="cls-1" cx="885.91" cy="409.29" rx="7.55" ry="18.11"/><ellipse class="cls-1" cx="893.45" cy="409.29" rx="7.55" ry="18.11"/><ellipse class="cls-1" cx="848.16" cy="399.23" rx="7.55" ry="18.11"/><ellipse class="cls-1" cx="863.25" cy="399.23" rx="7.55" ry="18.11"/><ellipse class="cls-1" cx="901" cy="420.36" rx="7.55" ry="18.11"/><ellipse class="cls-1" cx="859.49" cy="411.8" rx="7.55" ry="18.11"/><ellipse class="cls-1" cx="829.29" cy="395.7" rx="7.55" ry="18.11"/><ellipse class="cls-1" cx="867.03" cy="411.8" rx="7.55" ry="18.11"/><ellipse class="cls-1" cx="821.74" cy="401.74" rx="7.55" ry="18.11"/><ellipse class="cls-1" cx="836.83" cy="401.74" rx="7.55" ry="18.11"/><ellipse class="cls-1" cx="874.58" cy="422.87" rx="7.55" ry="18.11"/><ellipse class="cls-1" cx="846.27" cy="418.6" rx="7.55" ry="18.11"/><ellipse class="cls-1" cx="816.08" cy="402.5" rx="7.55" ry="18.11"/><ellipse class="cls-1" cx="853.82" cy="418.6" rx="7.55" ry="18.11"/><ellipse class="cls-1" cx="808.53" cy="408.53" rx="7.55" ry="18.11"/><ellipse class="cls-1" cx="823.62" cy="408.53" rx="7.55" ry="18.11"/><ellipse class="cls-1" cx="861.37" cy="429.67" rx="7.55" ry="18.11"/><ellipse class="cls-1" cx="819.85" cy="421.11" rx="7.55" ry="18.11"/><ellipse class="cls-1" cx="789.65" cy="405.01" rx="7.55" ry="18.11"/><ellipse class="cls-1" cx="827.4" cy="421.11" rx="7.55" ry="18.11"/><ellipse class="cls-1" cx="782.11" cy="411.05" rx="7.55" ry="18.11"/><ellipse class="cls-1" cx="797.2" cy="411.05" rx="7.55" ry="18.11"/><ellipse class="cls-1" cx="834.95" cy="432.18" rx="7.55" ry="18.11"/><ellipse class="cls-3" cx="670.96" cy="392.09" rx="7.55" ry="18.11"/><ellipse class="cls-3" cx="678.51" cy="392.09" rx="7.55" ry="18.11"/><ellipse class="cls-3" cx="633.21" cy="382.02" rx="7.55" ry="18.11"/><ellipse class="cls-3" cx="648.31" cy="382.02" rx="7.55" ry="18.11"/><ellipse class="cls-3" cx="686.05" cy="403.16" rx="7.55" ry="18.11"/><ellipse class="cls-3" cx="644.54" cy="394.6" rx="7.55" ry="18.11"/><ellipse class="cls-3" cx="614.34" cy="378.5" rx="7.55" ry="18.11"/><ellipse class="cls-3" cx="652.09" cy="394.6" rx="7.55" ry="18.11"/><ellipse class="cls-3" cx="606.79" cy="384.54" rx="7.55" ry="18.11"/><ellipse class="cls-3" cx="621.89" cy="384.54" rx="7.55" ry="18.11"/><ellipse class="cls-3" cx="659.63" cy="405.67" rx="7.55" ry="18.11"/><ellipse class="cls-3" cx="631.33" cy="401.4" rx="7.55" ry="18.11"/><ellipse class="cls-3" cx="601.13" cy="385.3" rx="7.55" ry="18.11"/><ellipse class="cls-3" cx="638.88" cy="401.4" rx="7.55" ry="18.11"/><ellipse class="cls-3" cx="593.58" cy="391.33" rx="7.55" ry="18.11"/><ellipse class="cls-3" cx="608.68" cy="391.33" rx="7.55" ry="18.11"/><ellipse class="cls-3" cx="646.42" cy="412.47" rx="7.55" ry="18.11"/><ellipse class="cls-3" cx="604.91" cy="403.91" rx="7.55" ry="18.11"/><ellipse class="cls-3" cx="574.71" cy="387.81" rx="7.55" ry="18.11"/><ellipse class="cls-3" cx="612.46" cy="403.91" rx="7.55" ry="18.11"/><ellipse class="cls-3" cx="567.16" cy="393.85" rx="7.55" ry="18.11"/><ellipse class="cls-3" cx="582.26" cy="393.85" rx="7.55" ry="18.11"/><ellipse class="cls-3" cx="620" cy="414.98" rx="7.55" ry="18.11"/><ellipse class="cls-3" cx="683.09" cy="374.83" rx="7.55" ry="18.11"/><ellipse class="cls-3" cx="690.64" cy="374.83" rx="7.55" ry="18.11"/><ellipse class="cls-3" cx="645.35" cy="364.77" rx="7.55" ry="18.11"/><ellipse class="cls-3" cx="660.44" cy="364.77" rx="7.55" ry="18.11"/><ellipse class="cls-3" cx="698.19" cy="385.9" rx="7.55" ry="18.11"/><ellipse class="cls-3" cx="656.67" cy="377.35" rx="7.55" ry="18.11"/><ellipse class="cls-3" cx="626.47" cy="361.25" rx="7.55" ry="18.11"/><ellipse class="cls-3" cx="664.22" cy="377.35" rx="7.55" ry="18.11"/><ellipse class="cls-3" cx="618.92" cy="367.29" rx="7.55" ry="18.11"/><ellipse class="cls-3" cx="634.02" cy="367.29" rx="7.55" ry="18.11"/><ellipse class="cls-3" cx="671.77" cy="388.42" rx="7.55" ry="18.11"/><ellipse class="cls-3" cx="643.46" cy="384.14" rx="7.55" ry="18.11"/><ellipse class="cls-3" cx="613.26" cy="368.04" rx="7.55" ry="18.11"/><ellipse class="cls-3" cx="651.01" cy="384.14" rx="7.55" ry="18.11"/><ellipse class="cls-3" cx="605.71" cy="374.08" rx="7.55" ry="18.11"/><ellipse class="cls-3" cx="620.81" cy="374.08" rx="7.55" ry="18.11"/><ellipse class="cls-3" cx="658.56" cy="395.21" rx="7.55" ry="18.11"/><ellipse class="cls-3" cx="617.04" cy="386.66" rx="7.55" ry="18.11"/><ellipse class="cls-3" cx="586.84" cy="370.56" rx="7.55" ry="18.11"/><ellipse class="cls-3" cx="624.59" cy="386.66" rx="7.55" ry="18.11"/><ellipse class="cls-3" cx="579.29" cy="376.59" rx="7.55" ry="18.11"/><ellipse class="cls-3" cx="594.39" cy="376.59" rx="7.55" ry="18.11"/><ellipse class="cls-3" cx="632.14" cy="397.73" rx="7.55" ry="18.11"/><ellipse class="cls-3" cx="633.61" cy="413.85" rx="7.55" ry="18.11"/><ellipse class="cls-3" cx="641.16" cy="413.85" rx="7.55" ry="18.11"/><ellipse class="cls-3" cx="595.87" cy="403.78" rx="7.55" ry="18.11"/><ellipse class="cls-3" cx="610.96" cy="403.78" rx="7.55" ry="18.11"/><ellipse class="cls-3" cx="648.71" cy="424.92" rx="7.55" ry="18.11"/><ellipse class="cls-3" cx="607.19" cy="416.36" rx="7.55" ry="18.11"/><ellipse class="cls-3" cx="576.99" cy="400.26" rx="7.55" ry="18.11"/><ellipse class="cls-3" cx="614.74" cy="416.36" rx="7.55" ry="18.11"/><ellipse class="cls-3" cx="569.45" cy="406.3" rx="7.55" ry="18.11"/><ellipse class="cls-3" cx="584.54" cy="406.3" rx="7.55" ry="18.11"/><ellipse class="cls-3" cx="622.29" cy="427.43" rx="7.55" ry="18.11"/><ellipse class="cls-3" cx="593.98" cy="423.16" rx="7.55" ry="18.11"/><ellipse class="cls-3" cx="563.78" cy="407.06" rx="7.55" ry="18.11"/><ellipse class="cls-3" cx="601.53" cy="423.16" rx="7.55" ry="18.11"/><ellipse class="cls-3" cx="556.24" cy="413.09" rx="7.55" ry="18.11"/><ellipse class="cls-3" cx="571.33" cy="413.09" rx="7.55" ry="18.11"/><ellipse class="cls-3" cx="609.08" cy="434.23" rx="7.55" ry="18.11"/><ellipse class="cls-3" cx="567.56" cy="425.67" rx="7.55" ry="18.11"/><ellipse class="cls-3" cx="537.36" cy="409.57" rx="7.55" ry="18.11"/><ellipse class="cls-3" cx="575.11" cy="425.67" rx="7.55" ry="18.11"/><ellipse class="cls-3" cx="529.82" cy="415.61" rx="7.55" ry="18.11"/><ellipse class="cls-3" cx="544.91" cy="415.61" rx="7.55" ry="18.11"/><ellipse class="cls-3" cx="582.66" cy="436.74" rx="7.55" ry="18.11"/><ellipse class="cls-2" cx="513.77" cy="188.49" rx="7.55" ry="18.11"/><ellipse class="cls-2" cx="521.32" cy="188.49" rx="7.55" ry="18.11"/><ellipse class="cls-2" cx="476.02" cy="178.43" rx="7.55" ry="18.11"/><ellipse class="cls-2" cx="491.12" cy="178.43" rx="7.55" ry="18.11"/><ellipse class="cls-2" cx="528.86" cy="199.56" rx="7.55" ry="18.11"/><ellipse class="cls-2" cx="487.35" cy="191.01" rx="7.55" ry="18.11"/><ellipse class="cls-2" cx="457.15" cy="174.9" rx="7.55" ry="18.11"/><ellipse class="cls-2" cx="494.9" cy="191.01" rx="7.55" ry="18.11"/><ellipse class="cls-2" cx="449.6" cy="180.94" rx="7.55" ry="18.11"/><ellipse class="cls-2" cx="464.7" cy="180.94" rx="7.55" ry="18.11"/><ellipse class="cls-2" cx="502.44" cy="202.08" rx="7.55" ry="18.11"/><ellipse class="cls-2" cx="474.14" cy="197.8" rx="7.55" ry="18.11"/><ellipse class="cls-2" cx="443.94" cy="181.7" rx="7.55" ry="18.11"/><ellipse class="cls-2" cx="481.69" cy="197.8" rx="7.55" ry="18.11"/><ellipse class="cls-2" cx="436.39" cy="187.74" rx="7.55" ry="18.11"/><ellipse class="cls-2" cx="451.49" cy="187.74" rx="7.55" ry="18.11"/><ellipse class="cls-2" cx="489.23" cy="208.87" rx="7.55" ry="18.11"/><ellipse class="cls-2" cx="447.72" cy="200.31" rx="7.55" ry="18.11"/><ellipse class="cls-2" cx="417.52" cy="184.21" rx="7.55" ry="18.11"/><ellipse class="cls-2" cx="455.26" cy="200.31" rx="7.55" ry="18.11"/><ellipse class="cls-2" cx="409.97" cy="190.25" rx="7.55" ry="18.11"/><ellipse class="cls-2" cx="425.07" cy="190.25" rx="7.55" ry="18.11"/><ellipse class="cls-2" cx="462.81" cy="211.38" rx="7.55" ry="18.11"/><ellipse class="cls-3" cx="498.2" cy="31.7" rx="7.55" ry="18.11"/><ellipse class="cls-3" cx="505.75" cy="31.7" rx="7.55" ry="18.11"/><ellipse class="cls-3" cx="460.46" cy="21.64" rx="7.55" ry="18.11"/><ellipse class="cls-3" cx="475.55" cy="21.64" rx="7.55" ry="18.11"/><ellipse class="cls-3" cx="513.3" cy="42.77" rx="7.55" ry="18.11"/><ellipse class="cls-3" cx="471.78" cy="34.22" rx="7.55" ry="18.11"/><ellipse class="cls-3" cx="441.58" cy="18.11" rx="7.55" ry="18.11"/><ellipse class="cls-3" cx="479.33" cy="34.22" rx="7.55" ry="18.11"/><ellipse class="cls-3" cx="434.04" cy="24.15" rx="7.55" ry="18.11"/><ellipse class="cls-3" cx="449.13" cy="24.15" rx="7.55" ry="18.11"/><ellipse class="cls-3" cx="486.88" cy="45.29" rx="7.55" ry="18.11"/><ellipse class="cls-3" cx="458.57" cy="41.01" rx="7.55" ry="18.11"/><ellipse class="cls-3" cx="428.37" cy="24.91" rx="7.55" ry="18.11"/><ellipse class="cls-3" cx="466.12" cy="41.01" rx="7.55" ry="18.11"/><ellipse class="cls-3" cx="420.83" cy="30.94" rx="7.55" ry="18.11"/><ellipse class="cls-3" cx="435.92" cy="30.94" rx="7.55" ry="18.11"/><ellipse class="cls-3" cx="473.67" cy="52.08" rx="7.55" ry="18.11"/><ellipse class="cls-3" cx="432.15" cy="43.52" rx="7.55" ry="18.11"/><ellipse class="cls-3" cx="401.95" cy="27.42" rx="7.55" ry="18.11"/><ellipse class="cls-3" cx="439.7" cy="43.52" rx="7.55" ry="18.11"/><ellipse class="cls-3" cx="394.4" cy="33.46" rx="7.55" ry="18.11"/><ellipse class="cls-3" cx="409.5" cy="33.46" rx="7.55" ry="18.11"/><ellipse class="cls-3" cx="447.25" cy="54.59" rx="7.55" ry="18.11"/><ellipse class="cls-2" cx="438.76" cy="153.18" rx="7.55" ry="18.11"/><ellipse class="cls-2" cx="446.3" cy="153.18" rx="7.55" ry="18.11"/><ellipse class="cls-2" cx="401.01" cy="143.11" rx="7.55" ry="18.11"/><ellipse class="cls-2" cx="416.1" cy="143.11" rx="7.55" ry="18.11"/><ellipse class="cls-2" cx="453.85" cy="164.25" rx="7.55" ry="18.11"/><ellipse class="cls-2" cx="412.34" cy="155.69" rx="7.55" ry="18.11"/><ellipse class="cls-2" cx="382.14" cy="139.59" rx="7.55" ry="18.11"/><ellipse class="cls-2" cx="419.88" cy="155.69" rx="7.55" ry="18.11"/><ellipse class="cls-2" cx="374.59" cy="145.63" rx="7.55" ry="18.11"/><ellipse class="cls-2" cx="389.68" cy="145.63" rx="7.55" ry="18.11"/><ellipse class="cls-2" cx="427.43" cy="166.76" rx="7.55" ry="18.11"/><ellipse class="cls-2" cx="399.13" cy="162.48" rx="7.55" ry="18.11"/><ellipse class="cls-2" cx="368.93" cy="146.38" rx="7.55" ry="18.11"/><ellipse class="cls-2" cx="406.67" cy="162.48" rx="7.55" ry="18.11"/><ellipse class="cls-2" cx="361.38" cy="152.42" rx="7.55" ry="18.11"/><ellipse class="cls-2" cx="376.47" cy="152.42" rx="7.55" ry="18.11"/><ellipse class="cls-2" cx="414.22" cy="173.55" rx="7.55" ry="18.11"/><ellipse class="cls-2" cx="372.7" cy="165" rx="7.55" ry="18.11"/><ellipse class="cls-2" cx="342.51" cy="148.9" rx="7.55" ry="18.11"/><ellipse class="cls-2" cx="380.25" cy="165" rx="7.55" ry="18.11"/><ellipse class="cls-2" cx="334.96" cy="154.94" rx="7.55" ry="18.11"/><ellipse class="cls-2" cx="350.05" cy="154.94" rx="7.55" ry="18.11"/><ellipse class="cls-2" cx="387.8" cy="176.07" rx="7.55" ry="18.11"/><ellipse class="cls-1" cx="466.12" cy="66.29" rx="7.55" ry="18.11"/><ellipse class="cls-1" cx="473.67" cy="66.29" rx="7.55" ry="18.11"/><ellipse class="cls-1" cx="428.37" cy="56.23" rx="7.55" ry="18.11"/><ellipse class="cls-1" cx="443.47" cy="56.23" rx="7.55" ry="18.11"/><ellipse class="cls-1" cx="481.21" cy="77.36" rx="7.55" ry="18.11"/><ellipse class="cls-1" cx="439.7" cy="68.81" rx="7.55" ry="18.11"/><ellipse class="cls-1" cx="409.5" cy="52.71" rx="7.55" ry="18.11"/><ellipse class="cls-1" cx="447.25" cy="68.81" rx="7.55" ry="18.11"/><ellipse class="cls-1" cx="401.95" cy="58.74" rx="7.55" ry="18.11"/><ellipse class="cls-1" cx="417.05" cy="58.74" rx="7.55" ry="18.11"/><ellipse class="cls-1" cx="454.79" cy="79.88" rx="7.55" ry="18.11"/><ellipse class="cls-1" cx="426.49" cy="75.6" rx="7.55" ry="18.11"/><ellipse class="cls-1" cx="396.29" cy="59.5" rx="7.55" ry="18.11"/><ellipse class="cls-1" cx="434.04" cy="75.6" rx="7.55" ry="18.11"/><ellipse class="cls-1" cx="388.74" cy="65.54" rx="7.55" ry="18.11"/><ellipse class="cls-1" cx="403.84" cy="65.54" rx="7.55" ry="18.11"/><ellipse class="cls-1" cx="441.58" cy="86.67" rx="7.55" ry="18.11"/><ellipse class="cls-1" cx="400.07" cy="78.12" rx="7.55" ry="18.11"/><ellipse class="cls-1" cx="369.87" cy="62.02" rx="7.55" ry="18.11"/><ellipse class="cls-1" cx="407.62" cy="78.12" rx="7.55" ry="18.11"/><ellipse class="cls-1" cx="362.32" cy="68.05" rx="7.55" ry="18.11"/><ellipse class="cls-1" cx="377.42" cy="68.05" rx="7.55" ry="18.11"/><ellipse class="cls-1" cx="415.16" cy="89.19" rx="7.55" ry="18.11"/><ellipse class="cls-3" cx="379.78" cy="98.85" rx="7.55" ry="18.11"/><ellipse class="cls-3" cx="387.33" cy="98.85" rx="7.55" ry="18.11"/><ellipse class="cls-3" cx="342.03" cy="88.79" rx="7.55" ry="18.11"/><ellipse class="cls-3" cx="357.13" cy="88.79" rx="7.55" ry="18.11"/><ellipse class="cls-3" cx="394.88" cy="109.92" rx="7.55" ry="18.11"/><ellipse class="cls-3" cx="353.36" cy="101.37" rx="7.55" ry="18.11"/><ellipse class="cls-3" cx="323.16" cy="85.27" rx="7.55" ry="18.11"/><ellipse class="cls-3" cx="360.91" cy="101.37" rx="7.55" ry="18.11"/><ellipse class="cls-3" cx="315.61" cy="91.3" rx="7.55" ry="18.11"/><ellipse class="cls-3" cx="330.71" cy="91.3" rx="7.55" ry="18.11"/><ellipse class="cls-3" cx="368.46" cy="112.44" rx="7.55" ry="18.11"/><ellipse class="cls-3" cx="340.15" cy="108.16" rx="7.55" ry="18.11"/><ellipse class="cls-3" cx="309.95" cy="92.06" rx="7.55" ry="18.11"/><ellipse class="cls-3" cx="347.7" cy="108.16" rx="7.55" ry="18.11"/><ellipse class="cls-3" cx="302.4" cy="98.1" rx="7.55" ry="18.11"/><ellipse class="cls-3" cx="317.5" cy="98.1" rx="7.55" ry="18.11"/><ellipse class="cls-3" cx="355.24" cy="119.23" rx="7.55" ry="18.11"/><ellipse class="cls-3" cx="313.73" cy="110.68" rx="7.55" ry="18.11"/><ellipse class="cls-3" cx="283.53" cy="94.58" rx="7.55" ry="18.11"/><ellipse class="cls-3" cx="321.28" cy="110.68" rx="7.55" ry="18.11"/><ellipse class="cls-3" cx="275.98" cy="100.61" rx="7.55" ry="18.11"/><ellipse class="cls-3" cx="291.08" cy="100.61" rx="7.55" ry="18.11"/><ellipse class="cls-3" cx="328.82" cy="121.75" rx="7.55" ry="18.11"/><ellipse class="cls-3" cx="523.67" cy="93.09" rx="7.55" ry="18.11"/><ellipse class="cls-3" cx="531.22" cy="93.09" rx="7.55" ry="18.11"/><ellipse class="cls-3" cx="485.93" cy="83.02" rx="7.55" ry="18.11"/><ellipse class="cls-3" cx="501.02" cy="83.02" rx="7.55" ry="18.11"/><ellipse class="cls-3" cx="538.77" cy="104.16" rx="7.55" ry="18.11"/><ellipse class="cls-3" cx="497.25" cy="95.6" rx="7.55" ry="18.11"/><ellipse class="cls-3" cx="467.05" cy="79.5" rx="7.55" ry="18.11"/><ellipse class="cls-3" cx="504.8" cy="95.6" rx="7.55" ry="18.11"/><ellipse class="cls-3" cx="459.51" cy="85.54" rx="7.55" ry="18.11"/><ellipse class="cls-3" cx="474.6" cy="85.54" rx="7.55" ry="18.11"/><ellipse class="cls-3" cx="512.35" cy="106.67" rx="7.55" ry="18.11"/><ellipse class="cls-3" cx="484.04" cy="102.39" rx="7.55" ry="18.11"/><ellipse class="cls-3" cx="453.84" cy="86.29" rx="7.55" ry="18.11"/><ellipse class="cls-3" cx="491.59" cy="102.39" rx="7.55" ry="18.11"/><ellipse class="cls-8" cx="446.29" cy="92.33" rx="7.55" ry="18.11"/><ellipse class="cls-3" cx="461.39" cy="92.33" rx="7.55" ry="18.11"/><ellipse class="cls-3" cx="499.14" cy="113.46" rx="7.55" ry="18.11"/><ellipse class="cls-3" cx="457.62" cy="104.91" rx="7.55" ry="18.11"/><ellipse class="cls-3" cx="427.42" cy="88.81" rx="7.55" ry="18.11"/><ellipse class="cls-3" cx="465.17" cy="104.91" rx="7.55" ry="18.11"/><ellipse class="cls-3" cx="419.87" cy="94.85" rx="7.55" ry="18.11"/><ellipse class="cls-8" cx="434.97" cy="94.85" rx="7.55" ry="18.11"/><ellipse class="cls-3" cx="472.72" cy="115.98" rx="7.55" ry="18.11"/><ellipse class="cls-8" cx="445.36" cy="83.75" rx="7.55" ry="18.11"/><ellipse class="cls-8" cx="452.91" cy="83.75" rx="7.55" ry="18.11"/><ellipse class="cls-8" cx="407.62" cy="73.68" rx="7.55" ry="18.11"/><ellipse class="cls-8" cx="422.71" cy="73.68" rx="7.55" ry="18.11"/><ellipse class="cls-8" cx="460.46" cy="94.82" rx="7.55" ry="18.11"/><ellipse class="cls-8" cx="418.94" cy="86.26" rx="7.55" ry="18.11"/><ellipse class="cls-8" cx="388.74" cy="70.16" rx="7.55" ry="18.11"/><ellipse class="cls-8" cx="426.49" cy="86.26" rx="7.55" ry="18.11"/><ellipse class="cls-8" cx="381.19" cy="76.2" rx="7.55" ry="18.11"/><ellipse class="cls-8" cx="396.29" cy="76.2" rx="7.55" ry="18.11"/><ellipse class="cls-8" cx="434.04" cy="97.33" rx="7.55" ry="18.11"/><ellipse class="cls-8" cx="405.73" cy="93.05" rx="7.55" ry="18.11"/><ellipse class="cls-8" cx="375.53" cy="76.95" rx="7.55" ry="18.11"/><ellipse class="cls-8" cx="413.28" cy="93.05" rx="7.55" ry="18.11"/><ellipse class="cls-8" cx="367.98" cy="82.99" rx="7.55" ry="18.11"/><ellipse class="cls-8" cx="383.08" cy="82.99" rx="7.55" ry="18.11"/><ellipse class="cls-8" cx="420.83" cy="104.12" rx="7.55" ry="18.11"/><ellipse class="cls-8" cx="379.31" cy="95.57" rx="7.55" ry="18.11"/><ellipse class="cls-8" cx="349.11" cy="79.47" rx="7.55" ry="18.11"/><ellipse class="cls-8" cx="386.86" cy="95.57" rx="7.55" ry="18.11"/><ellipse class="cls-8" cx="341.56" cy="85.51" rx="7.55" ry="18.11"/><ellipse class="cls-8" cx="356.66" cy="85.51" rx="7.55" ry="18.11"/><ellipse class="cls-8" cx="394.4" cy="106.64" rx="7.55" ry="18.11"/><path class="cls-2" d="M23.06,398a6.85,6.85,0,0,1-2.34,1s-.18.06.39-.38c2.36-1.79,3.29-2.45,3.66-2.72l.07-.05c7.39-7.51,15-14.75,22.62-22C60.74,362.51,81.83,361,75.59,385.89c-5.82,23.25-8.28,41.18-35.22,36.95a266.38,266.38,0,0,0-38.18-1.76,2.16,2.16,0,0,1-1.54-.36c-.94-.79-.81-1.49.09-3.18.29-.52.82-1.26,1.18-1.27a39.36,39.36,0,0,0,4.72-.46C10.1,409.34,17.36,403.36,23.06,398Zm.58,15.52c3.08-.34,4.74-.49,8.28-.72,5.53-.35,15.08-5.45,18-17.13,3.07-12.19-4.4-11.52-6.31-10.39-3.65,2.16-5.33,3.21-8.36,5.1C31.55,397.86,25.5,404.8,23.64,413.47Z"/><path class="cls-2" d="M110.68,421.85c-16.53,3.66-36.36-4-33.37-24.53,2.5-17.07,12.77-35.77,28.47-44.47,3.41-1.62,5.1-2.38,8.39-3.72,16.78-5.57,20.23,18.57,21.35,29,0,1,0,1.51,0,2.51a1.2,1.2,0,0,1-1,1.34c-12.08,2.72-23.56,5.94-35.37,9.64-.34,10.47,5.16,12.34,9.77,11.12l4.75-1.25c4.21-1.09,7.51-3.24,9.65-10.59.18-.46.36-.79.5-.82,4.3-1.05,6.41-1.48,10.88-2.44.43-.09.57,1.13.54,1.55-1.15,12.78-4.79,28.28-19.18,31.57C113.88,421.2,112.81,421.42,110.68,421.85Zm4.87-46.93c-.62-3.94-1.93-8-6-6.47-5.34,2-7.3,6.86-8.76,11.57C106.76,377.79,109.75,376.73,115.55,374.92Z"/><path class="cls-2" d="M144.14,414c-.29.08-.95-.9-1.13-1.5a70,70,0,0,1-3.28-17.19c-.08-.8.21-1.41.45-1.46,6.62-1.48,9.95-2.22,16.52-3.73.19,0,.59.52.83,1.26,1.09,3.81,5.39,4.9,8.8,4l4.84-1.27c1.88-.5,3.78-2,3.28-5.59-.54-3.85-2.67-3.86-3.28-3.72s-12.79,1-13.88,1.07C145,387,139,374.14,139.43,363.45c.5-10.95,7.23-22.2,19.37-22.94,2.26-.19,3.39-.27,5.65-.44a13.19,13.19,0,0,1,10,4.22c0-1.07.08-2.37.1-3.53,0-.47.06-1.16.37-1.18,4.81-.33,7.21-.48,11.95-.83.27,0,.77.81.87,1.8.6,5.54.73,8.48,1,14.4,0,.59-.3,1.34-.57,1.38-5.37.83-8.11,1.22-13.64,2-.18,0-.33-.2-.58-.79-.56-1.67-1.76-4.38-6-3.87l-6,.75c-3,.38-4.14,1.57-4.09,5.52s1.87,3.92,4,3.88c1.25,0,13.54-1,15.51-1.19.77-.08,12.44-.52,14.68,17.24,1.32,10.39-3.49,21.24-13.89,24.71-3,.94-4.47,1.4-7.51,2.32s-8.78.48-10.49-.93c-.43,1.37-.71,2.23-.94,3.13-.17.67-.4,1-.74,1.08C152.83,411.78,149.94,412.55,144.14,414Z"/><path class="cls-2" d="M224.23,372c.24-.08.4.46.41.95a77.41,77.41,0,0,0,1,12.43c.11.71,0,.94-.19,1-7.91,3.44-14.14,6.42-26.68,11-.25.09-.7-.73-.86-1.23a68.13,68.13,0,0,1-2.8-13.63c-.09-.66.16-1.19.37-1.25,3-.85,4.49-1.27,7.36-2.13-1-9.73-1-15-1.34-25-2.89.52-4.36.76-7.33,1.25-.48.08-.8-.22-.84-1-.25-5.71-.37-8.54-.94-13.9-.14-1.29,0-2,.47-2.08a228.35,228.35,0,0,0,24.48-3c.32-.06.57.37.61.85.85,12.56.25,25.15.76,37.73C221.08,373.16,222.18,372.73,224.23,372Zm-13.3-54.2c.48,0,1,.18,1.37.95,1.93,3.84,2.54,6.09,3.4,11,.09.53,0,1.18-.39,1.24-5.28.78-8,1.06-13.5,1.52-.35,0-.58-.05-.71-.72-1.08-5.65-1.83-8.27-4.22-12.68-.17-.3-.15-.66.24-.67C202.69,318.35,205.46,318.26,210.93,317.81Z"/><path class="cls-2" d="M254,326.47c7.62-1.33,16.71-1.19,22,3,5-5.42,9.92-6.77,15.25-7.15s5.81,4.73,4.89,8.63c-.51,2.17-3.59,8.94-8.82,9.62-6,.79-5.2-7.29-4.92-8.64a24.57,24.57,0,0,0-4.83,3.79,8.89,8.89,0,0,1-.17,2.38c-2.16,9.66-16.17,17-22,18.27a156.89,156.89,0,0,0-18.54,5,11.69,11.69,0,0,0-.81,3.5c-.14,2,1.48,1.92,2,1.73,10.61-3.49,21.53-5.71,32.44-8,7.18-1.41,18.1-1.36,14.78,9.61C282,379,270,384.85,268,385.45c-11.35,3.54-22.79,6.94-33.58,12-1.45.69-4.57-1.72-5.53-5.62a11.68,11.68,0,0,1,.94-8.18c-.49-.9-3.15-2.5-3.31-8.7s3.54-12.4,4.87-14.83c-.74-.44-4.41-3.88-4.1-10.39.56-11.4,9.59-19.38,20.25-22C250,327.19,251.32,326.94,254,326.47ZM233.87,384a4.85,4.85,0,0,0-.31,3.22c.3,1.73,1.12,2,2.4,1.47a179.85,179.85,0,0,1,20.91-7.07c4.28-1.25,6.43-1.88,6.73-4.26.34-2.73-6.91-.79-9.44-.08A164.86,164.86,0,0,0,233.87,384ZM244,343.66c-.37,3.59,1.74,3.89,5.59,3s6.49-2.07,7.05-5.79c.68-4.41-2.58-4.75-5.91-4.05C246.48,337.72,244.46,339.48,244,343.66Z"/><path class="cls-2" d="M339.33,318.12c3.5-.61,9.91,4.71,11.54,11.82a75.9,75.9,0,0,1,2,13.28c3.17-.55,4.81-.81,8.17-1.33a.68.68,0,0,1,.75.66,69.85,69.85,0,0,1,.72,9c0,.6-.29.78-.92.9-11.67,2.27-23.3,4.64-34.88,7.37-.57.12-.64-.27-.43-1,1-3.72,1.54-5.68,2.43-9.62.13-.55.43-1,.77-1.06,2.47-.51,3.67-.77,6-1.31.23-1.56.33-2.35.52-3.92,1.26-10.72.94-12.76-4.66-11.8-5.94,1-8.12,9.68-10,16.43-.26.94-.39,1.41-.66,2.35,2.44-.47,3.63-.7,6-1.17.35-.07.45.36.36.75-1,4.19-1.58,6.27-2.74,10.2a1,1,0,0,1-.84.87q-17.73,3.84-35.48,7.63c-.29.07-.31-.46-.12-1,1.34-4.28,2.07-6.56,3.51-11.16a1.66,1.66,0,0,1,.92-1l8.33-1.45c2.53-7.79,3.82-11.91,5.81-19.58l-8,.88c-.55.06-.88-.16-.72-.77,1.12-4.38,1.62-6.53,2.37-10.56.18-1,.56-1.54,1.06-1.57,11.45-.73,16.88-1,25-1.7.28,0,.43.3.4.66-.21,2.63-.38,4-.82,6.86h.11c.92-1.92,4.27-7.79,8.43-8.49C336.69,318.78,337.17,318.49,339.33,318.12Z"/><path class="cls-2" d="M400.17,346c-13.07,2.22-32.53,3.55-37.14-12.38-3.86-13.32,9.06-17.22,19.5-17.14h10.73c11.47.29,29.69.61,37.55,10.55.13.34.19.51.3.85s-.19.41-1.05.49c-14.13,1.25-28.28,2.37-42.42,3.62,2.1,4.72,8,5.64,13.35,5l5.49-.64c4.88-.56,8.95-1.62,10.92-4.45a1,1,0,0,1,.54-.32c5.2-.51,7.78-.76,12.79-1.27a.59.59,0,0,1,.67.54C426.67,340.2,416,343.35,406.07,345Zm4.11-20.09A15.53,15.53,0,0,0,393.93,323c-6.62.26-7.31,2-7.6,4C393.37,326.48,397,326.28,404.28,325.86Z"/><path class="cls-2" d="M468.3,312.52c1.76-.57,9.39-.51,12.1,1.39,2.54,1.78.52,3.62-2.21,4.53a10.4,10.4,0,0,1-6.17,0,8.55,8.55,0,0,0-3.93,0c-1.73.39-4.33,2.35-3.13,5a11.37,11.37,0,0,1,1.23,4.57c3.36-.77,4.89-1.18,7.64-2a.38.38,0,0,1,.52.28,8.78,8.78,0,0,1-.8,5.25,1.6,1.6,0,0,1-.85.68c-12.19,4-24.82,6-37.44,8a.39.39,0,0,1-.42-.49,16.78,16.78,0,0,0,.59-6.47c0-.29.32-.53.58-.56,3.69-.45,5.5-.68,9-1.14-.19-4.17-.95-6.24-3.16-9.83-3.5.25-5.32.37-9,.59-.59,0-1-.08-1.23-.37a23.68,23.68,0,0,0-3.88-4.87c-.43-.42-.3-.66.25-.67,12.63-.22,18.77-.32,28.68-1.53a1.59,1.59,0,0,1,.94.19,20.51,20.51,0,0,1,3.14,2.54c.31-1.72,2.36-3.67,5.72-4.54C467.24,312.85,467.61,312.74,468.3,312.52Z"/><path class="cls-10" d="M429.64,140.81l32.22,59.24s6.88,127.4-5.68,177.3,44.44,20,44.44,20-25.93-159.68-20.75-179.64,93.45-90.43,93.45-90.43Z"/><ellipse class="cls-3" cx="611.07" cy="129.39" rx="7.55" ry="18.11"/><ellipse class="cls-3" cx="618.62" cy="129.39" rx="7.55" ry="18.11"/><ellipse class="cls-3" cx="573.32" cy="119.32" rx="7.55" ry="18.11"/><ellipse class="cls-3" cx="588.42" cy="119.32" rx="7.55" ry="18.11"/><ellipse class="cls-3" cx="626.16" cy="140.46" rx="7.55" ry="18.11"/><ellipse class="cls-3" cx="584.65" cy="131.9" rx="7.55" ry="18.11"/><ellipse class="cls-3" cx="554.45" cy="115.8" rx="7.55" ry="18.11"/><ellipse class="cls-3" cx="592.2" cy="131.9" rx="7.55" ry="18.11"/><ellipse class="cls-3" cx="546.9" cy="121.84" rx="7.55" ry="18.11"/><ellipse class="cls-3" cx="562" cy="121.84" rx="7.55" ry="18.11"/><ellipse class="cls-3" cx="599.74" cy="142.97" rx="7.55" ry="18.11"/><ellipse class="cls-3" cx="571.44" cy="138.69" rx="7.55" ry="18.11"/><ellipse class="cls-3" cx="541.24" cy="122.59" rx="7.55" ry="18.11"/><ellipse class="cls-3" cx="578.99" cy="138.69" rx="7.55" ry="18.11"/><ellipse class="cls-3" cx="533.69" cy="128.63" rx="7.55" ry="18.11"/><ellipse class="cls-3" cx="548.79" cy="128.63" rx="7.55" ry="18.11"/><ellipse class="cls-3" cx="586.53" cy="149.76" rx="7.55" ry="18.11"/><ellipse class="cls-3" cx="545.02" cy="141.21" rx="7.55" ry="18.11"/><ellipse class="cls-3" cx="514.82" cy="125.11" rx="7.55" ry="18.11"/><ellipse class="cls-3" cx="552.56" cy="141.21" rx="7.55" ry="18.11"/><ellipse class="cls-3" cx="507.27" cy="131.15" rx="7.55" ry="18.11"/><ellipse class="cls-3" cx="522.37" cy="131.15" rx="7.55" ry="18.11"/><ellipse class="cls-3" cx="560.11" cy="152.28" rx="7.55" ry="18.11"/><ellipse class="cls-3" cx="524.61" cy="132.42" rx="7.55" ry="18.11"/><ellipse class="cls-3" cx="532.16" cy="132.42" rx="7.55" ry="18.11"/><ellipse class="cls-3" cx="486.87" cy="122.36" rx="7.55" ry="18.11"/><ellipse class="cls-3" cx="501.96" cy="122.36" rx="7.55" ry="18.11"/><ellipse class="cls-3" cx="539.71" cy="143.49" rx="7.55" ry="18.11"/><ellipse class="cls-3" cx="498.19" cy="134.94" rx="7.55" ry="18.11"/><ellipse class="cls-3" cx="468" cy="118.84" rx="7.55" ry="18.11"/><ellipse class="cls-3" cx="505.74" cy="134.94" rx="7.55" ry="18.11"/><ellipse class="cls-3" cx="460.45" cy="124.87" rx="7.55" ry="18.11"/><ellipse class="cls-3" cx="475.54" cy="124.87" rx="7.55" ry="18.11"/><ellipse class="cls-3" cx="513.29" cy="146.01" rx="7.55" ry="18.11"/><ellipse class="cls-3" cx="484.98" cy="141.73" rx="7.55" ry="18.11"/><ellipse class="cls-3" cx="454.78" cy="125.63" rx="7.55" ry="18.11"/><ellipse class="cls-3" cx="492.53" cy="141.73" rx="7.55" ry="18.11"/><ellipse class="cls-3" cx="447.24" cy="131.67" rx="7.55" ry="18.11"/><ellipse class="cls-3" cx="462.33" cy="131.67" rx="7.55" ry="18.11"/><ellipse class="cls-3" cx="500.08" cy="152.8" rx="7.55" ry="18.11"/><ellipse class="cls-3" cx="458.56" cy="144.24" rx="7.55" ry="18.11"/><ellipse class="cls-3" cx="428.36" cy="128.14" rx="7.55" ry="18.11"/><ellipse class="cls-3" cx="466.11" cy="144.24" rx="7.55" ry="18.11"/><ellipse class="cls-3" cx="420.82" cy="134.18" rx="7.55" ry="18.11"/><ellipse class="cls-3" cx="435.91" cy="134.18" rx="7.55" ry="18.11"/><ellipse class="cls-3" cx="473.66" cy="155.31" rx="7.55" ry="18.11"/><ellipse class="cls-3" cx="504.81" cy="397.13" rx="7.55" ry="18.11"/><ellipse class="cls-3" cx="512.36" cy="397.13" rx="7.55" ry="18.11"/><ellipse class="cls-3" cx="467.06" cy="387.07" rx="7.55" ry="18.11"/><ellipse class="cls-3" cx="482.16" cy="387.07" rx="7.55" ry="18.11"/><ellipse class="cls-3" cx="519.9" cy="408.2" rx="7.55" ry="18.11"/><ellipse class="cls-3" cx="478.39" cy="399.65" rx="7.55" ry="18.11"/><ellipse class="cls-3" cx="448.19" cy="383.54" rx="7.55" ry="18.11"/><ellipse class="cls-3" cx="485.93" cy="399.65" rx="7.55" ry="18.11"/><ellipse class="cls-3" cx="440.64" cy="389.58" rx="7.55" ry="18.11"/><ellipse class="cls-3" cx="455.74" cy="389.58" rx="7.55" ry="18.11"/><ellipse class="cls-3" cx="493.48" cy="410.71" rx="7.55" ry="18.11"/><ellipse class="cls-3" cx="465.18" cy="406.44" rx="7.55" ry="18.11"/><ellipse class="cls-3" cx="434.98" cy="390.34" rx="7.55" ry="18.11"/><ellipse class="cls-3" cx="472.72" cy="406.44" rx="7.55" ry="18.11"/><ellipse class="cls-3" cx="427.43" cy="396.37" rx="7.55" ry="18.11"/><ellipse class="cls-3" cx="442.53" cy="396.37" rx="7.55" ry="18.11"/><ellipse class="cls-3" cx="480.27" cy="417.51" rx="7.55" ry="18.11"/><ellipse class="cls-3" cx="438.76" cy="408.95" rx="7.55" ry="18.11"/><ellipse class="cls-3" cx="408.56" cy="392.85" rx="7.55" ry="18.11"/><ellipse class="cls-3" cx="446.3" cy="408.95" rx="7.55" ry="18.11"/><ellipse class="cls-3" cx="401.01" cy="398.89" rx="7.55" ry="18.11"/><ellipse class="cls-3" cx="416.1" cy="398.89" rx="7.55" ry="18.11"/><ellipse class="cls-3" cx="453.85" cy="420.02" rx="7.55" ry="18.11"/><path class="cls-2" d="M428.8,427.75l-2.11-.54c-5.42-1.42-8-2-8.6-3.69-.07-.2,0-.59.22-.54,1,.23,1.62.33,2.87.54C421,418.59,432,413.1,442,407.72a4.18,4.18,0,0,1-1.38,0s.16-.14,1.19-.62c4.27-2,6.12-2.79,6.64-3l.07,0c.17-.12,2.33-1.58,8.85-5.68a.8.8,0,0,1,.77-.06c1.07.82.25,1.91-1.85,4.73,3.84-3.41,5.43-5,5.71-7.07.1-.31.14-.57.45-.76,7.48-4.62,12.41-7.63,23-13.64.34-.2.67.18.84.88,1.08,4.43.17,7.29-2.19,13.46-.37,1-.72,1.31-1,1.37-2.7.51-4,.78-6.56,1.33-5.79,10.56-13.79,21.89-13.29,34.49,3,1.05,4.54,1.62,7.75,2.89.36.14.72.79,1.18,2.49,1.54,5.67,4.29,8.26,9.78,13.67.91.89,1,1.1.48.73-9.57-6.06-19-12.06-29.36-16.71-.25-.12-1-.48-2.14-1-5.89-2.95-8.69-4.26-9.68-7.58-.13-.41.09-.63.35-.57,2.25.48,3.43.76,5.89,1.38.56-10.53,9.9-19.69,16-27.33l-.07,0c-5.32,5.08-35.77,26.09-16.33,32.5.5.23.77.34.47.22-.87-.36-1.3-.53-2.14-.85l-2.06-.8c-16.95-8.68-14.19-15.63,1.81-25.26h0c-9.25,5.89-20.19,11.74-19.53,17.28,1.5.22,2.31.34,4,.61.24,0,.33.27.54.77,1,2.45,3.93,3.34,10,5.49l.63.23C435.08,429.33,432.74,428.77,428.8,427.75Z"/><path class="cls-2" d="M517,365c25.9-14,12.41,36.44,10.41,42.65-3.2,9.9-9.68,56.29-20,57.21-1.82-.52-2.71-.8-4.46-1.39-10.39-4.59-21.08-14-26.11-23.8-3.52-6.86-1.51-17.3,1-23.8,3.31-8.54,8.33-16.3,11.53-21.91,5.47-9.65,11.38-20.29,21.39-25.9C513.29,366.77,514.54,366.16,517,365ZM493.89,414.1c-3.49,8.81-1,28,1.84,28,3.21,0,9.32-18.39,12.53-27.62,2.85-8.15,5.31-27.41,2.73-27.73C507.58,386.36,497.47,405.08,493.89,414.1Z"/><path class="cls-2" d="M567.17,348.83c22.08,5.28,14.57,42.3,11.55,56.82-2.47,11.89-5.26,62.21-20.67,64.75-2.2,0-3.29,0-5.48,0-13.46-1.44-23.45-14.92-26.49-26.72-2.85-11.11-.14-23.57,3.46-34.6,3.54-10.86,8.48-21.33,13.25-31.77,4.09-9.21,9.26-24.63,19.94-28.2A33.26,33.26,0,0,1,567.17,348.83ZM547,407.59c-2.9,9.17-3.12,35.33,1.38,35.46,4,.12,10.18-24.15,12.33-32.87,2.07-8.41,4.42-35,2-35.29C559.41,374.42,550.05,397.93,547,407.59Z"/><path class="cls-2" d="M610.39,356.54c.26.06.71.73,1.16,1.63,7.06,20.79,6.8,41.59,8.1,63.33,1.84-12.53,4.51-24.92,6-37.49l-5.9-.84c-.4-.05-.53-.8-.42-1.92.87-8.68,1-12.83-.49-20.1-.3-1.43-.45-2.51-.26-2.46,7.45,1.94,11.21,2.95,18.72,4.63.47.11,1,1.68,1.28,2.76,1.41,6.25,1.35,9.82.7,17.31-.15,1.66-.49,2.29-.83,2.26-2.23-.26-3.35-.4-5.6-.68-3.61,25.29-9.63,47.85-4,73.27.54,2.14.77,3.45.45,3.52-6,1.37-9.29,2-16,3.22-.19,0-.54-.05-1-.85-12.73-24.16-14-44.75-14.34-71.74-3.13,15.61-6.6,31.25-6.87,47.24,2.75-.13,4.12-.2,6.83-.35.35,0,.73.71.78,2.19.33,9,1.79,13.3,4.34,21.91.62,2.12.72,3.15.38,3.2-8.35,1.25-12.71,1.79-21.5,2.57-.3,0-.81-1-1.41-3-2.8-9.12-4.37-13.64-4.68-23.13-.05-1.27.11-2.85.71-2.87,2.64-.07,4-.12,6.57-.21,0-20.46,6.34-40.51,9.68-60.53-2.43-.29-3.65-.43-6.07-.69-.19,0-.36-.55,0-2.9,1.48-9.8,1.93-14.49.67-22.76-.2-1.31-.09-1.91.29-1.84C596.62,352.94,601.18,354.15,610.39,356.54Z"/><path class="cls-2" d="M654.09,454.85c-8.85-3.52-10.08-15.85-9-24.39,1.35-10.25,4.69-18.76,7.44-18.93,4.47-.27,1.67,16.55,1.86,19.11.14,2,1.57,2.32,3.52,2,3.8-.59,6-9.4,7.42-14.3,3-10.34,6.28-20.69,8.53-31.23-2.2.13-3.3.17-5.47.21-.17,0-.34-.35-.15-1.48,1.15-7,1.45-10.38.51-16.09-.23-1.4-.15-2,.42-2,9.91.26,14.94-.93,27.14-.15.38,0,.63.88.66,1.95.16,5.4-.44,8.54-2.18,15.19-.28,1.09-.65,1.65-1,1.63-2.52-.06-3.76-.08-6.17-.05-3.33,12.53-8,24.64-12,36.94-3,9-4.13,21.88-10.91,28.8A63.88,63.88,0,0,0,654.09,454.85Z"/><path class="cls-2" d="M698.32,369.41c0-1.15.12-1.63.41-1.61,11,1.12,21.6,2.63,32.47,4.5a.74.74,0,0,1,.65.82c-.39,5.15-1.32,8.26-3.81,14.88-.37,1-.76,1.38-1,1.34-2.88-.37-4.34-.56-7.24-.89-5.74,14-12.32,27.52-18.8,41.18h6.59c.3,0,.24.42-.12,1.14-3.26,6.55-4.25,9.65-7.17,15.71-.55,1.14-.84,1.62-1.19,1.65-10.24.68-15,1.11-23.26,2.19-.34,0-.29-.68-.13-1.41,1.38-6.51,1.64-9.8,3.76-16.75.48-1.56.85-2.14,1-2.15,2.31-.14,3.5-.2,5.91-.29,5.59-14.33,11.55-28.46,16.64-43-2.75-.18-4.11-.26-6.78-.37-.34,0-.45-.46-.27-1.12C697.84,378.3,698.49,375,698.32,369.41Z"/><path class="cls-2" d="M775.77,382.63c0-.5.13-.65.25-.63,1.69.34,2.41.48,3.56.64.2,0,.44.91.51,1.36.73,4.73.46,7.68-.79,13.94-.13.6-.31,1-.44,1-2.29-.13-3.59-.24-6.41-.54-.09,0-.2,0-.09-.46.91-5.07-1.23-6.35-1.93-6.45-2.67-.41-4.13-.65-7.21-1.16-.62-.11-2.47-.27-4.18,4-1.83,4.51,1.32,4.84,2.36,5l4.73.76c2.41.28,7,2.49,7.77,3.74s4.51,5.51-1.45,20.13c-5,12.17-15.56,21.43-28.87,22.47-3.39.06-5.07.1-8.4.18s-4.95-2.75-5.3-5.62c-1.33,2-2,3-3.47,5-.54.7-.84.87-1,.88-4,.13-6,.21-9.93.38-.2,0-.06-.35.39-1.07,4.53-7.28,6.17-11,10.88-19.17.29-.5.79-1.21,1-1.2l10.82.38c.25,0,.17.4-.18,1.07-3.21,6.39,1.54,6.65,1.87,6.65l10.92.12c.33,0,2.44-.47,4.15-3.43,2-3.42.91-4.52.51-4.53-3.3-.16-5-.26-8.37-.45-2.28-.08-7.84-2.67-9.08-5.43-2.22-5,.76-14.93,4.13-22,4.73-10,9.25-14.25,11.29-16.22a11,11,0,0,1,10.35-2.65l6.13,1.39c2.83.64,4.46,3.15,5.22,4.93A21.74,21.74,0,0,0,775.77,382.63Z"/><path class="cls-2" d="M809.34,389.77a4.58,4.58,0,0,1,1.88,1.39c6.1,6.35,8.13,10.94,10.37,20.19.19.81.22,1.37-.1,1.32-4.38-.67-6.51-1-10.6-1.55-.21,0-.38-.05-.48-.65a48,48,0,0,0-2.72-10.37c-6.39-1.23-9.31-1.76-14.15-2.45a51.66,51.66,0,0,1,1.08,8.15c3,.32,4.66.53,8.12,1,.27,0,.41.22.51.91a65.75,65.75,0,0,1,.73,13.9c0,.71-.4.86-.76.83-3.74-.28-5.56-.4-9.06-.58a88.47,88.47,0,0,1-1.42,9c7.07.23,10.79.42,18.36.85a63.5,63.5,0,0,0,.54-10.4c0-.77,0-1.73.53-1.67,4.55.47,6.9.73,11.68,1.29.23,0,.4.46.47,1.62.57,9.76.49,14.56-3.49,22.77a1.44,1.44,0,0,1-1.23,1q-27.78-.23-55.53-.14c-.42,0-.85.09-.24-.87,3.2-5,4.18-7.61,6.68-13.1.36-.78.84-1.49,1.09-1.49,2.5,0,3.68-.05,6.16-.06a156.71,156.71,0,0,0,6.91-33.91c-1.17,0-1.6.06-2.88,0-.11,0-.21.15-.1-.84.62-5.7.6-8.36-.54-12.63-.08-.31-.09-.55,0-.54C790.68,383.81,800.25,387.2,809.34,389.77Z"/><path class="cls-2" d="M844.32,399.8c12.89,3.5,34.44,10.44,38,24.38S865,446.83,853.41,446.63l-5.5-.06c-12.56-.13-15.14-5.91-18-12.46-2.25-5.12-3.35-12.9-4.15-17.63a126.74,126.74,0,0,1-1.51-14.27c-.28-5.21,1.77-7.61,13.21-4.35Zm1.27,19.67c1.62,7.95,4.1,15.83,9,16.19,5.49.41,9.94-6.27,8.89-12.38s-8.61-14.06-14.38-15.34C844.67,407,844.07,412,845.59,419.47Z"/><path class="cls-2" d="M876.13,446.82c-.19,0,.07-.28.57-.67,3.86-3,5-4.66,6.57-8.19.2-.46.81-1.06,1.08-1l6.41.43c3.56-8.2,2.12-13.4-2.88-20.65-2.76-.5-4.18-.77-7.07-1.33a1.4,1.4,0,0,1-.79-.6,22.33,22.33,0,0,0-7.34-7.17c-.4-.26-.13-.21.1-.15,10.74,2.55,21.64,5.48,32.7,6.41,4.65.28,17.66,3.14,22.74,7.63,8.42,7.43-2.9,10.63-4.31,10.79a93.83,93.83,0,0,1-15.76.52,11.77,11.77,0,0,1-1.29,5.18c3.11,0,4.57,0,7.29-.15.54,0,.43.45.22.84-1.56,2.93-2.82,4.33-7,6.74a5.26,5.26,0,0,1-2,.8C895.58,446.74,886,446.92,876.13,446.82Zm39.55-22.75c.4,0,1.77-.43.25-2.14a6.91,6.91,0,0,0-3.85-2.2c-3.25-.12-5.11-.27-9.21-.73a20.29,20.29,0,0,1,3.14,4.64C910.3,424,912.24,424.06,915.68,424.07Z"/></g></g></svg>