<svg xmlns="http://www.w3.org/2000/svg" viewBox="0 0 106.85 106.92"><defs><style>.cls-1{font-size:6px;font-family:MyriadPro-Regular, Myriad Pro;}</style></defs><g id="Layer_2" data-name="Layer 2"><g id="Layer_1-2" data-name="Layer 1"><path d="M19.16,37l-.3-.15A38.64,38.64,0,0,1,27.72,25l.22.25A38,38,0,0,0,19.16,37Z"/><path d="M15.8,35.37l-.3-.14a41.9,41.9,0,0,1,9.66-12.92l.22.24A41.79,41.79,0,0,0,15.8,35.37Z"/><path d="M95.12,52.52A41.83,41.83,0,0,0,58.18,12l0-.33A42.16,42.16,0,0,1,95.45,52.51Z"/><path d="M91.73,52.63a38.28,38.28,0,0,0-33.86-37l0-.33a38.61,38.61,0,0,1,34.15,37.3Z"/><path d="M27.94,25.29,27.72,25a38.41,38.41,0,0,1,30.19-9.72l0,.33a39.75,39.75,0,0,0-4.3-.25A38.07,38.07,0,0,0,27.94,25.29Z"/><path d="M25.38,22.55l-.22-.24A41.93,41.93,0,0,1,58.21,11.68l0,.33a41,41,0,0,0-4.76-.28A41.62,41.62,0,0,0,25.38,22.55Z"/><path d="M88,71l-.3-.15a37.69,37.69,0,0,0,4.11-17.22c0-.21,0-.42,0-.63v-.32h.33v.32c0,.21,0,.43,0,.64A38.21,38.21,0,0,1,88,71Z"/><path d="M91,72.43l-.29-.15a41.28,41.28,0,0,0,4.49-18.82c0-.2,0-.39,0-.58s0-.24,0-.36h.33c0,.12,0,.24,0,.36s0,.39,0,.59A41.65,41.65,0,0,1,91,72.43Z"/><path d="M15.1,55c0-.48,0-1,0-1.44a38.17,38.17,0,0,1,3.8-16.7l.3.15a37.78,37.78,0,0,0-3.77,16.55c0,.48,0,1,0,1.43Z"/><path d="M11.4,55.14c0-.53,0-1.1,0-1.68A41.66,41.66,0,0,1,15.5,35.23l.3.14a41.34,41.34,0,0,0-4.11,18.09c0,.57,0,1.14,0,1.66Z"/><path d="M53.57,92.1c-.66,0-1.33,0-2.06-.06l0-.33c.72,0,1.39.06,2,.06A38,38,0,0,0,80.13,81l.23.23A38.33,38.33,0,0,1,53.57,92.1Z"/><path d="M53.42,95.52q-1.1,0-2.19-.06l0-.33A41.51,41.51,0,0,0,82.42,83.45l.23.24A41.89,41.89,0,0,1,53.42,95.52Z"/><path d="M52.08,85.2A31.42,31.42,0,0,1,22.49,54.79h.33A31.26,31.26,0,0,0,52.1,84.87Z"/><path d="M51.8,88.62a35,35,0,0,1-33-33.72h.34a34.84,34.84,0,0,0,32.69,33.4Z"/><path d="M88.34,52.73A34.73,34.73,0,0,0,57.57,19.29l0-.33A35.07,35.07,0,0,1,88.67,52.72Z"/><path d="M85,52.84A31.2,31.2,0,0,0,57.26,22.93l0-.33a31.53,31.53,0,0,1,28,30.23Z"/><path d="M75.79,76.36l-.23-.24a31,31,0,0,0,6.09-8.29l.29.15A31.26,31.26,0,0,1,75.79,76.36Z"/><path d="M78.07,78.8l-.23-.24a34.49,34.49,0,0,0,6.81-9.24l.29.15A34.92,34.92,0,0,1,78.07,78.8Z"/><path d="M52.08,85.2A31.42,31.42,0,0,1,22.49,54.79h.33A31.26,31.26,0,0,0,52.1,84.87Z"/><path d="M52.37,81.75A27.81,27.81,0,0,1,26.21,54.67h.33A27.66,27.66,0,0,0,52.39,81.42Z"/><path d="M54.05,81.84c-.43,0-.85,0-1.26-.06l-.42,0,0-.33.42,0c.4,0,.82.06,1.24.06a27.39,27.39,0,0,0,19.21-7.84l.23.24A27.7,27.7,0,0,1,54.05,81.84Z"/><path d="M53.89,85.26c-.55,0-1.14,0-1.81-.06l0-.33c.66,0,1.25.06,1.79.06a30.93,30.93,0,0,0,21.67-8.81l.23.24A31.25,31.25,0,0,1,53.89,85.26Z"/><path d="M26.21,54.67c0-.1,0-.2,0-.3s0-.27,0-.41A27.67,27.67,0,0,1,29,41.86l.3.15A27.28,27.28,0,0,0,26.5,54c0,.13,0,.26,0,.39s0,.21,0,.31Z"/><path d="M22.49,54.79v-.28c0-.22,0-.45,0-.67a31.08,31.08,0,0,1,3.11-13.65l.29.15a30.82,30.82,0,0,0-3.07,13.5c0,.22,0,.44,0,.66v.28Z"/><path d="M85,52.84A31.2,31.2,0,0,0,57.26,22.93l0-.33a31.53,31.53,0,0,1,28,30.23Z"/><path d="M81.54,53A27.64,27.64,0,0,0,57,26.58l0-.33A28,28,0,0,1,81.87,52.93Z"/><path d="M35.64,33.51l-.22-.24a27.79,27.79,0,0,1,18.63-7.18,27.31,27.31,0,0,1,3,.16l0,.33a26.45,26.45,0,0,0-2.91-.16A27.5,27.5,0,0,0,35.64,33.51Z"/><path d="M33.06,30.76l-.22-.25a31.35,31.35,0,0,1,21-8.09,33,33,0,0,1,3.41.18l0,.33a32.27,32.27,0,0,0-3.37-.18A31,31,0,0,0,33.06,30.76Z"/><path d="M78.92,66.49l-.3-.15a27.18,27.18,0,0,0,3-12.38c0-.2,0-.4,0-.6s0-.28,0-.41l.33,0c0,.14,0,.27,0,.41s0,.41,0,.62A27.54,27.54,0,0,1,78.92,66.49Z"/><path d="M81.94,68l-.29-.15a30.73,30.73,0,0,0,3.33-14c0-.29,0-.57,0-.85v-.15h.33V53c0,.29,0,.57,0,.86A31,31,0,0,1,81.94,68Z"/><path d="M54.05,81.84c-.43,0-.85,0-1.26-.06l-.42,0,0-.33.42,0c.4,0,.82.06,1.24.06a27.39,27.39,0,0,0,19.21-7.84l.23.24A27.7,27.7,0,0,1,54.05,81.84Z"/><path d="M54.2,78.42c-.41,0-.81,0-1.21-.06l-.34,0,0-.33L53,78c.38,0,.78.06,1.18.06A23.88,23.88,0,0,0,71,71.23l.23.24A24.2,24.2,0,0,1,54.2,78.42Z"/><path d="M32.62,43.66l-.3-.14A24.12,24.12,0,0,1,38,36l.22.25A23.7,23.7,0,0,0,32.62,43.66Z"/><path d="M29.26,42l-.3-.15a28,28,0,0,1,6.46-8.59l.22.24A27.54,27.54,0,0,0,29.26,42Z"/><path d="M35.64,33.51l-.22-.24a27.79,27.79,0,0,1,18.63-7.18,27.31,27.31,0,0,1,3,.16l0,.33a26.45,26.45,0,0,0-2.91-.16A27.5,27.5,0,0,0,35.64,33.51Z"/><path d="M38.2,36.25,38,36A24.27,24.27,0,0,1,54.2,29.76c.83,0,1.67,0,2.49.13l0,.33c-.81-.08-1.64-.13-2.46-.13A23.92,23.92,0,0,0,38.2,36.25Z"/><path d="M81.54,53A27.64,27.64,0,0,0,57,26.58l0-.33A28,28,0,0,1,81.87,52.93Z"/><path d="M78.15,53.05A24.09,24.09,0,0,0,56.66,30.22l0-.33A24.42,24.42,0,0,1,78.48,53Z"/><path d="M54.36,75c-.42,0-.82,0-1.22-.06h-.2l0-.34.2,0c.39,0,.8.06,1.2.06a20.32,20.32,0,0,0,14.33-5.88l.23.24A20.63,20.63,0,0,1,54.36,75Z"/><path d="M54.2,78.42c-.41,0-.81,0-1.21-.06l-.34,0,0-.33L53,78c.38,0,.78.06,1.18.06A23.88,23.88,0,0,0,71,71.23l.23.24A24.2,24.2,0,0,1,54.2,78.42Z"/><path d="M32.62,43.66l-.3-.14A24.12,24.12,0,0,1,38,36l.22.25A23.7,23.7,0,0,0,32.62,43.66Z"/><path d="M36,45.32l-.3-.15a20.74,20.74,0,0,1,4.87-6.44l.22.25A20.24,20.24,0,0,0,36,45.32Z"/><path d="M40.76,39l-.22-.25a20.74,20.74,0,0,1,13.82-5.29c.65,0,1.31,0,2,.1l0,.33c-.71-.07-1.36-.1-2-.1A20.39,20.39,0,0,0,40.76,39Z"/><path d="M38.2,36.25,38,36A24.27,24.27,0,0,1,54.2,29.76c.83,0,1.67,0,2.49.13l0,.33c-.81-.08-1.64-.13-2.46-.13A23.92,23.92,0,0,0,38.2,36.25Z"/><path d="M67.18,65.52a17,17,0,0,0,.31-22l.26-.21a17.33,17.33,0,0,1-.32,22.4Z"/><path d="M74.75,53.16A20.53,20.53,0,0,0,56.36,33.87l0-.33a20.87,20.87,0,0,1,18.7,19.6Z"/><path d="M40.76,39l-.22-.25a20.74,20.74,0,0,1,13.82-5.29c.65,0,1.31,0,2,.1l0,.33c-.71-.07-1.36-.1-2-.1A20.39,20.39,0,0,0,40.76,39Z"/><path d="M55.52,37.51l0-.33a17.19,17.19,0,0,1,11.15,5,14.11,14.11,0,0,1,1.06,1.16l-.26.21c-.37-.45-.7-.81-1-1.14A16.89,16.89,0,0,0,55.52,37.51Z"/><path d="M52.94,74.93A20.86,20.86,0,0,1,33.59,54.44h.33A20.52,20.52,0,0,0,53,74.59Z"/><path d="M53.22,71.51A17.28,17.28,0,0,1,37.28,54.34l.33,0A17,17,0,0,0,53.25,71.18Z"/><path d="M54.67,68.16c-.42,0-.82,0-1.17-.06l0-.33c.34,0,.74.06,1.14.06a13.27,13.27,0,0,0,9.45-3.92l.23.24A13.61,13.61,0,0,1,54.67,68.16Z"/><path d="M42.32,66.55c-.31-.31-.59-.64-.87-1l.25-.22h0c.27.31.54.63.85.94a16.79,16.79,0,0,0,11.86,4.94v.33A17.12,17.12,0,0,1,42.32,66.55Z"/><path d="M53.5,68.1A13.76,13.76,0,0,1,41,54.47s0-.1,0-.15,0-.08,0-.12h.33a.57.57,0,0,1,0,.13v.13a13.42,13.42,0,0,0,12.21,13.3Z"/><path d="M41.45,65.59a17.28,17.28,0,0,1,.87-23.41l.25.22h0a17,17,0,0,0-.85,23Z"/><path d="M42.57,42.4l-.23-.24a17,17,0,0,1,6.53-4.07l.11.32A16.65,16.65,0,0,0,42.57,42.4Z"/><path d="M41.33,54.21H41a13.53,13.53,0,0,1,1.38-5.72l.3.14A13.25,13.25,0,0,0,41.33,54.21Z"/><path d="M48.43,47.17l-.22-.25a10.16,10.16,0,0,1,6.62-2.46l.49,0h.15l0,.33H55.3l-.47,0A9.79,9.79,0,0,0,48.43,47.17Z"/><path d="M45.87,44.44l-.21-.25a13.64,13.64,0,0,1,9-3.41c.38,0,.74,0,1.11.06l0,.33c-.36,0-.71-.06-1.08-.06A13.33,13.33,0,0,0,45.87,44.44Z"/><path d="M64.57,53.49a9.77,9.77,0,0,0-9.12-8.67l0-.33a10.11,10.11,0,0,1,9.43,9Z"/><path d="M68,53.38A13.27,13.27,0,0,0,55.75,41.17l0-.33A13.6,13.6,0,0,1,68.3,53.35Z"/><path d="M54.67,68.16c-.42,0-.82,0-1.17-.06l0-.33c.34,0,.74.06,1.14.06a13.27,13.27,0,0,0,9.45-3.92l.23.24A13.61,13.61,0,0,1,54.67,68.16Z"/><path d="M54.83,64.74a9.2,9.2,0,0,1-1-.06l0-.32a9.76,9.76,0,0,0,8-2.89l.23.23A10,10,0,0,1,54.83,64.74Z"/><path d="M49.4,51.94l-.29-.15a6.5,6.5,0,0,1,1.68-2.12l.22.25A6.39,6.39,0,0,0,49.4,51.94Z"/><path d="M46,50.28l-.3-.15a10.25,10.25,0,0,1,2.48-3.21l.22.25A9.87,9.87,0,0,0,46,50.28Z"/><path d="M45.05,54.1l-.34,0a10.18,10.18,0,0,1,1-3.95l.3.15A9.68,9.68,0,0,0,45.05,54.1Z"/><path d="M48.8,54l-.33,0a6.43,6.43,0,0,1,.64-2.16l.29.15A6.16,6.16,0,0,0,48.8,54Z"/><path d="M61.14,53.61a6.27,6.27,0,0,0-6-5.13v-.33a6.6,6.6,0,0,1,6.3,5.4Z"/><path d="M64.57,53.49a9.77,9.77,0,0,0-9.12-8.67l0-.33a10.11,10.11,0,0,1,9.43,9Z"/><path d="M54.07,61.23a6.61,6.61,0,0,1-5.68-6.51,5.07,5.07,0,0,1,0-.56l0-.21.33,0,0,.21a4.8,4.8,0,0,0-.05.52,6.28,6.28,0,0,0,5.39,6.18Z"/><path d="M53.79,64.68a10.1,10.1,0,0,1-9.1-10.08c0-.12,0-.24,0-.36v-.16l.34,0v.16c0,.11,0,.22,0,.34a9.78,9.78,0,0,0,8.8,9.76Z"/><path d="M54.33,57.78a3,3,0,0,1-2-4l.31.11a2.64,2.64,0,0,0-.17.94,2.73,2.73,0,0,0,2,2.61Z"/><path d="M54.07,61.23a6.61,6.61,0,0,1-5.68-6.51,5.07,5.07,0,0,1,0-.56l0-.21.33,0,0,.21a4.8,4.8,0,0,0-.05.52,6.28,6.28,0,0,0,5.39,6.18Z"/><path d="M61.14,53.61a6.27,6.27,0,0,0-6-5.13v-.33a6.6,6.6,0,0,1,6.3,5.4Z"/><path d="M57.63,53.75a2.73,2.73,0,0,0-2.49-1.62l-.18,0h-.1l0-.33h.09l.22,0a3.06,3.06,0,0,1,2.79,1.82Z"/><path d="M55,61.32a5,5,0,0,1-.8-.08h-.12l0-.33h.12A4.9,4.9,0,0,0,55,61a6.22,6.22,0,0,0,4.54-2l.24.23A6.57,6.57,0,0,1,55,61.32Z"/><path d="M55.14,57.9a3.12,3.12,0,0,1-.81-.12l.09-.32a2.87,2.87,0,0,0,.72.11,2.7,2.7,0,0,0,2.08-1l.26.21A3.06,3.06,0,0,1,55.14,57.9Z"/><text class="cls-1" transform="matrix(0.89, -0.33, 0.34, 0.94, 35.12, 8.55)">A</text><text class="cls-1" transform="translate(38.35 7.38) rotate(-16.26) scale(0.95 1)">B</text><text class="cls-1" transform="translate(41.25 6.51) rotate(-12.15) scale(0.95 1)">O</text><text class="cls-1" transform="matrix(0.94, -0.13, 0.13, 0.99, 45.04, 5.7)">U</text><text class="cls-1" transform="translate(48.62 5.23) rotate(-3.94) scale(0.95 1)">T</text><text class="cls-1" transform="matrix(0.95, -0.03, 0.03, 1, 51.43, 5.05)"> </text><text class="cls-1" transform="matrix(0.95, 0.03, -0.03, 1, 52.56, 4.97)">M</text><text class="cls-1" transform="translate(57.09 5.13) rotate(5.93) scale(0.95 1)">E</text><text class="cls-1" transform="translate(59.86 5.43) rotate(8.28) scale(0.95 1)"> </text><text class="cls-1" transform="translate(61.02 5.6) rotate(9.68) scale(0.95 1)"> </text><text class="cls-1" transform="matrix(0.93, 0.19, -0.2, 0.98, 62.19, 5.8)">-</text><text class="cls-1" transform="matrix(0.93, 0.22, -0.23, 0.97, 63.88, 6.14)"> </text><text class="cls-1" transform="matrix(0.92, 0.26, -0.27, 0.96, 65.03, 6.38)">A</text><text class="cls-1" transform="translate(68.34 7.33) rotate(19.76) scale(0.95 1)">B</text><text class="cls-1" transform="translate(71.18 8.33) rotate(23.85) scale(0.95 1)">O</text><text class="cls-1" transform="translate(74.72 9.9) rotate(28.3) scale(0.95 1)">U</text><text class="cls-1" transform="matrix(0.81, 0.51, -0.53, 0.85, 77.91, 11.63)">T</text><text class="cls-1" transform="matrix(0.79, 0.54, -0.57, 0.82, 80.27, 13.13)"> </text><text class="cls-1" transform="translate(81.25 13.74) rotate(37.78) scale(0.95 1)">M</text><text class="cls-1" transform="translate(84.81 16.53) rotate(42.05) scale(0.95 1)">E</text><text class="cls-1" transform="translate(86.85 18.4) rotate(44.36) scale(0.95 1)"> </text><text class="cls-1" transform="matrix(0.66, 0.68, -0.72, 0.7, 87.71, 19.23)"> </text><text class="cls-1" transform="translate(88.54 20.08) rotate(47.48) scale(0.95 1)">-</text><text class="cls-1" transform="translate(89.7 21.35) rotate(49.18) scale(0.95 1)"> </text><text class="cls-1" transform="matrix(0.59, 0.75, -0.79, 0.62, 90.48, 22.21)">A</text><text class="cls-1" transform="translate(92.59 24.91) rotate(55.7) scale(0.95 1)">B</text><text class="cls-1" transform="matrix(0.48, 0.82, -0.86, 0.5, 94.32, 27.42)">O</text><text class="cls-1" transform="translate(96.26 30.76) rotate(64.23) scale(0.95 1)">U</text><text class="cls-1" transform="matrix(0.36, 0.88, -0.93, 0.37, 97.83, 34.03)">T</text><text class="cls-1" transform="translate(98.86 36.63) rotate(70.4) scale(0.95 1)"> </text><text class="cls-1" transform="matrix(0.27, 0.91, -0.96, 0.28, 99.3, 37.7)">M</text><text class="cls-1" transform="matrix(0.2, 0.93, -0.98, 0.21, 100.53, 42.06)">E</text><text class="cls-1" transform="translate(101.09 44.77) rotate(80.46) scale(0.95 1)"> </text><text class="cls-1" transform="matrix(0.14, 0.94, -0.99, 0.14, 101.28, 45.93)"> </text><text class="cls-1" transform="matrix(0.11, 0.95, -0.99, 0.11, 101.46, 47.1)">-</text><text class="cls-1" transform="translate(101.65 48.82) rotate(85.29) scale(0.95 1)"> </text><text class="cls-1" transform="translate(101.77 49.99) rotate(88) scale(0.95 1)">A</text><text class="cls-1" transform="translate(101.89 53.41) rotate(91.75) scale(0.95 1)">B</text><text class="cls-1" transform="translate(101.81 56.45) rotate(95.8) scale(0.95 1)">O</text><text class="cls-1" transform="matrix(-0.17, 0.94, -0.98, -0.18, 101.42, 60.29)">U</text><text class="cls-1" transform="translate(100.76 63.86) rotate(104.03) scale(0.95 1)">T</text><text class="cls-1" transform="translate(100.07 66.57) rotate(106.39) scale(0.95 1)"> </text><text class="cls-1" transform="translate(99.79 67.71) rotate(109.8) scale(0.95 1)">M</text><text class="cls-1" transform="translate(98.23 71.94) rotate(114.11) scale(0.95 1)">E</text><text class="cls-1" transform="matrix(-0.42, 0.85, -0.9, -0.45, 97.09, 74.46)"> </text><text class="cls-1" transform="translate(96.56 75.53) rotate(117.86) scale(0.95 1)"> </text><text class="cls-1" transform="translate(96 76.59) rotate(119.6) scale(0.95 1)">-</text><text class="cls-1" transform="matrix(-0.5, 0.81, -0.85, -0.52, 95.15, 78.08)"> </text><text class="cls-1" transform="matrix(-0.53, 0.79, -0.83, -0.56, 94.57, 79.09)">A</text><text class="cls-1" transform="translate(92.65 81.93) rotate(127.84) scale(0.95 1)">B</text><text class="cls-1" transform="matrix(-0.64, 0.71, -0.74, -0.67, 90.81, 84.32)">O</text><text class="cls-1" transform="matrix(-0.69, 0.66, -0.69, -0.72, 88.23, 87.2)">U</text><text class="cls-1" transform="matrix(-0.73, 0.61, -0.64, -0.77, 85.59, 89.71)">T</text><text class="cls-1" transform="matrix(-0.75, 0.58, -0.61, -0.79, 83.43, 91.49)"> </text><text class="cls-1" transform="translate(82.55 92.23) rotate(145.74) scale(0.95 1)">M</text><text class="cls-1" transform="translate(78.78 94.76) rotate(150.06) scale(0.95 1)">E</text><text class="cls-1" transform="translate(76.37 96.14) rotate(152.4) scale(0.95 1)"> </text><text class="cls-1" transform="matrix(-0.85, 0.42, -0.44, -0.9, 75.33, 96.68)"> </text><text class="cls-1" transform="translate(74.27 97.21) rotate(155.52) scale(0.95 1)">-</text><text class="cls-1" transform="translate(72.7 97.92) rotate(157.25) scale(0.95 1)"> </text><text class="cls-1" transform="translate(71.63 98.4) rotate(160) scale(0.95 1)">A</text><text class="cls-1" transform="translate(68.42 99.56) rotate(163.83) scale(0.95 1)">B</text><text class="cls-1" transform="translate(65.51 100.42) rotate(167.94) scale(0.95 1)">O</text><text class="cls-1" transform="translate(61.72 101.23) rotate(172.39) scale(0.95 1)">U</text><text class="cls-1" transform="translate(58.12 101.7) rotate(176.17) scale(0.95 1)">T</text><text class="cls-1" transform="translate(55.31 101.87) rotate(178.5) scale(0.95 1)"> </text><text class="cls-1" transform="matrix(-0.95, -0.03, 0.03, -1, 54.17, 101.95)">M</text><text class="cls-1" transform="translate(49.65 101.78) rotate(-173.95) scale(0.95 1)">E</text><text class="cls-1" transform="matrix(-0.94, -0.14, 0.15, -0.99, 46.9, 101.47)"> </text><text class="cls-1" transform="translate(45.72 101.3) rotate(-170.21) scale(0.95 1)"> </text><text class="cls-1" transform="translate(44.55 101.1) rotate(-168.48) scale(0.95 1)">-</text><text class="cls-1" transform="translate(42.87 100.75) rotate(-166.76) scale(0.95 1)"> </text><text class="cls-1" transform="translate(41.73 100.52) rotate(-164.01) scale(0.95 1)">A</text><text class="cls-1" transform="matrix(-0.9, -0.32, 0.34, -0.94, 38.43, 99.56)">B</text><text class="cls-1" transform="translate(35.58 98.56) rotate(-156.07) scale(0.95 1)">O</text><text class="cls-1" transform="translate(32.05 96.99) rotate(-151.62) scale(0.95 1)">U</text><text class="cls-1" transform="translate(28.85 95.24) rotate(-147.81) scale(0.95 1)">T</text><text class="cls-1" transform="matrix(-0.79, -0.54, 0.57, -0.82, 26.5, 93.75)"> </text><text class="cls-1" transform="translate(25.51 93.13) rotate(-142.12) scale(0.95 1)">M</text><text class="cls-1" transform="matrix(-0.71, -0.64, 0.67, -0.74, 21.97, 90.33)">E</text><text class="cls-1" transform="translate(19.9 88.45) rotate(-135.51) scale(0.95 1)"> </text><text class="cls-1" transform="translate(19.08 87.63) rotate(-134.15) scale(0.95 1)"> </text><text class="cls-1" transform="translate(18.25 86.79) rotate(-132.44) scale(0.95 1)">-</text><text class="cls-1" transform="matrix(-0.62, -0.72, 0.76, -0.65, 17.09, 85.51)"> </text><text class="cls-1" transform="matrix(-0.59, -0.75, 0.79, -0.62, 16.29, 84.63)">A</text><text class="cls-1" transform="matrix(-0.54, -0.79, 0.83, -0.56, 14.18, 81.92)">B</text><text class="cls-1" transform="translate(12.47 79.43) rotate(-120.12) scale(0.95 1)">O</text><text class="cls-1" transform="translate(10.54 76.09) rotate(-115.68) scale(0.95 1)">U</text><text class="cls-1" transform="matrix(-0.35, -0.88, 0.93, -0.37, 8.97, 72.81)">T</text><text class="cls-1" transform="translate(7.94 70.2) rotate(-109.49) scale(0.95 1)"> </text><text class="cls-1" transform="matrix(-0.26, -0.92, 0.96, -0.28, 7.51, 69.14)">M</text><text class="cls-1" transform="translate(6.28 64.78) rotate(-101.79) scale(0.95 1)">E</text><text class="cls-1" transform="translate(5.73 62.07) rotate(-99.46) scale(0.95 1)"> </text><text class="cls-1" transform="translate(5.54 60.89) rotate(-98.03) scale(0.95 1)"> </text><text class="cls-1" transform="matrix(-0.1, -0.95, 0.99, -0.11, 5.37, 59.72)">-</text><text class="cls-1" transform="matrix(-0.08, -0.95, 1, -0.08, 5.18, 58.02)"> </text><text class="cls-1" transform="translate(5.06 56.85) rotate(-91.91) scale(0.95 1)">A</text><text class="cls-1" transform="matrix(0.03, -0.95, 1, 0.03, 4.95, 53.41)">B</text><text class="cls-1" transform="matrix(0.1, -0.95, 0.99, 0.1, 5.03, 50.39)">O</text><text class="cls-1" transform="matrix(0.17, -0.94, 0.98, 0.18, 5.43, 46.55)">U</text><text class="cls-1" transform="matrix(0.23, -0.92, 0.97, 0.24, 6.09, 42.98)">T</text><text class="cls-1" transform="translate(6.79 40.26) rotate(-73.5) scale(0.95 1)"> </text><text class="cls-1" transform="matrix(0.32, -0.9, 0.94, 0.34, 7.07, 39.14)">M</text><text class="cls-1" transform="matrix(0.39, -0.87, 0.91, 0.41, 8.63, 34.9)">E</text><text class="cls-1" transform="matrix(0.43, -0.85, 0.89, 0.45, 9.79, 32.37)"> </text><text class="cls-1" transform="translate(10.31 31.32) rotate(-62.05) scale(0.95 1)"> </text><text class="cls-1" transform="translate(10.87 30.27) rotate(-60.32) scale(0.95 1)">-</text><text class="cls-1" transform="matrix(0.5, -0.81, 0.85, 0.52, 11.73, 28.76)"> </text><text class="cls-1" transform="matrix(0.53, -0.79, 0.83, 0.56, 12.31, 27.76)">A</text><text class="cls-1" transform="translate(14.24 24.91) rotate(-52.05) scale(0.95 1)">B</text><text class="cls-1" transform="translate(16.09 22.51) rotate(-47.99) scale(0.95 1)">O</text><text class="cls-1" transform="translate(18.68 19.64) rotate(-43.59) scale(0.95 1)">U</text><text class="cls-1" transform="translate(21.32 17.15) rotate(-39.83) scale(0.95 1)">T</text><text class="cls-1" transform="matrix(0.76, -0.58, 0.61, 0.79, 23.47, 15.37)"> </text><text class="cls-1" transform="matrix(0.79, -0.53, 0.56, 0.83, 24.37, 14.62)">M</text><text class="cls-1" transform="translate(28.12 12.11) rotate(-29.86) scale(0.95 1)">E</text><text class="cls-1" transform="translate(30.53 10.74) rotate(-27.51) scale(0.95 1)"> </text><text class="cls-1" transform="translate(31.57 10.2) rotate(-26.12) scale(0.95 1)"> </text><text class="cls-1" transform="translate(32.65 9.67) rotate(-24.37) scale(0.95 1)">-</text><text class="cls-1" transform="matrix(0.88, -0.37, 0.39, 0.92, 34.21, 8.97)"> </text></g></g></svg>