<svg xmlns="http://www.w3.org/2000/svg" viewBox="0 0 90.54 94.69"><defs><style>.cls-1{font-size:4.73px;font-family:MyriadPro-Regular, Myriad Pro;}</style></defs><g id="Layer_2" data-name="Layer 2"><g id="Layer_1-2" data-name="Layer 1"><text class="cls-1" transform="translate(30.19 6.89) rotate(-20.33) scale(0.95 1)">A</text><text class="cls-1" transform="translate(32.74 5.95) rotate(-16.64) scale(0.95 1)">B</text><text class="cls-1" transform="translate(35 5.26) rotate(-12.73) scale(0.95 1)">O</text><text class="cls-1" transform="matrix(0.94, -0.14, 0.15, 0.99, 37.97, 4.59)">U</text><text class="cls-1" transform="translate(40.81 4.18) rotate(-4.78) scale(0.95 1)">T</text><text class="cls-1" transform="matrix(0.95, -0.04, 0.04, 1, 43.02, 4.01)"> </text><text class="cls-1" transform="matrix(0.95, 0.02, -0.02, 1, 43.91, 3.92)">M</text><text class="cls-1" transform="matrix(0.95, 0.08, -0.08, 1, 47.5, 4)">E</text><text class="cls-1" transform="translate(49.66 4.19) rotate(7.03) scale(0.95 1)"> </text><text class="cls-1" transform="translate(50.6 4.31) rotate(8.4) scale(0.95 1)"> </text><text class="cls-1" transform="translate(51.51 4.44) rotate(10.05) scale(0.95 1)">-</text><text class="cls-1" transform="matrix(0.93, 0.19, -0.2, 0.98, 52.84, 4.67)"> </text><text class="cls-1" transform="matrix(0.93, 0.22, -0.23, 0.97, 53.75, 4.86)"> </text><text class="cls-1" transform="translate(54.67 5.05) rotate(15.71) scale(0.95 1)">A</text><text class="cls-1" transform="translate(57.28 5.79) rotate(19.41) scale(0.95 1)">B</text><text class="cls-1" transform="matrix(0.88, 0.38, -0.4, 0.92, 59.52, 6.57)">O</text><text class="cls-1" transform="translate(62.31 7.77) rotate(27.5) scale(0.95 1)">U</text><text class="cls-1" transform="translate(64.85 9.1) rotate(31.06) scale(0.95 1)">T</text><text class="cls-1" transform="translate(66.75 10.26) rotate(33.27) scale(0.95 1)"> </text><text class="cls-1" transform="translate(67.53 10.73) rotate(36.39) scale(0.95 1)">M</text><text class="cls-1" transform="translate(70.38 12.85) rotate(40.29) scale(0.95 1)">E</text><text class="cls-1" transform="translate(72.06 14.29) rotate(42.45) scale(0.95 1)"> </text><text class="cls-1" transform="matrix(0.69, 0.66, -0.69, 0.72, 72.74, 14.91)"> </text><text class="cls-1" transform="matrix(0.67, 0.68, -0.71, 0.7, 73.41, 15.55)">-</text><text class="cls-1" transform="matrix(0.65, 0.69, -0.73, 0.68, 74.36, 16.52)"> </text><text class="cls-1" transform="translate(75.03 17.2) rotate(49.23) scale(0.95 1)">A</text><text class="cls-1" transform="matrix(0.58, 0.76, -0.79, 0.61, 76.79, 19.25)">B</text><text class="cls-1" transform="translate(78.26 21.15) rotate(56.22) scale(0.95 1)">O</text><text class="cls-1" transform="matrix(0.48, 0.83, -0.87, 0.5, 79.94, 23.66)">U</text><text class="cls-1" transform="translate(81.36 26.15) rotate(63.35) scale(0.95 1)">T</text><text class="cls-1" transform="matrix(0.4, 0.87, -0.91, 0.42, 82.36, 28.15)"> </text><text class="cls-1" transform="translate(82.76 28.95) rotate(68.3) scale(0.95 1)">M</text><text class="cls-1" transform="translate(84.06 32.28) rotate(72) scale(0.95 1)">E</text><text class="cls-1" transform="translate(84.73 34.36) rotate(74) scale(0.95 1)"> </text><text class="cls-1" transform="matrix(0.24, 0.92, -0.97, 0.26, 84.98, 35.26)"> </text><text class="cls-1" transform="translate(85.23 36.18) rotate(76.7) scale(0.95 1)">-</text><text class="cls-1" transform="translate(85.54 37.5) rotate(78.15) scale(0.95 1)"> </text><text class="cls-1" transform="translate(85.75 38.4) rotate(80.47) scale(0.95 1)">A</text><text class="cls-1" transform="matrix(0.1, 0.95, -0.99, 0.11, 86.19, 41.08)">B</text><text class="cls-1" transform="translate(86.47 43.46) rotate(87.1) scale(0.95 1)">O</text><text class="cls-1" transform="translate(86.62 46.5) rotate(90.89) scale(0.95 1)">U</text><text class="cls-1" transform="translate(86.57 49.37) rotate(93.91) scale(0.95 1)">T</text><text class="cls-1" transform="translate(86.41 51.58) rotate(95.87) scale(0.95 1)"> </text><text class="cls-1" transform="translate(86.35 52.5) rotate(98.72) scale(0.95 1)">M</text><text class="cls-1" transform="matrix(-0.2, 0.93, -0.98, -0.21, 85.79, 56.03)">E</text><text class="cls-1" transform="translate(85.32 58.15) rotate(104.33) scale(0.95 1)"> </text><text class="cls-1" transform="translate(85.09 59.05) rotate(105.53) scale(0.95 1)"> </text><text class="cls-1" transform="translate(84.83 59.97) rotate(107.02) scale(0.95 1)">-</text><text class="cls-1" transform="matrix(-0.3, 0.9, -0.95, -0.32, 84.43, 61.28)"> </text><text class="cls-1" transform="translate(84.16 62.15) rotate(110.85) scale(0.95 1)">A</text><text class="cls-1" transform="translate(83.19 64.68) rotate(114.15) scale(0.95 1)">B</text><text class="cls-1" transform="translate(82.22 66.87) rotate(117.68) scale(0.95 1)">O</text><text class="cls-1" transform="matrix(-0.5, 0.81, -0.85, -0.52, 80.8, 69.57)">U</text><text class="cls-1" transform="translate(79.3 72.01) rotate(124.86) scale(0.95 1)">T</text><text class="cls-1" transform="translate(78.03 73.8) rotate(126.91) scale(0.95 1)"> </text><text class="cls-1" transform="matrix(-0.61, 0.73, -0.77, -0.64, 77.5, 74.57)">M</text><text class="cls-1" transform="translate(75.19 77.3) rotate(133.74) scale(0.95 1)">E</text><text class="cls-1" transform="translate(73.68 78.87) rotate(135.84) scale(0.95 1)"> </text><text class="cls-1" transform="translate(73.02 79.51) rotate(137.08) scale(0.95 1)"> </text><text class="cls-1" transform="matrix(-0.72, 0.63, -0.66, -0.75, 72.32, 80.16)">-</text><text class="cls-1" transform="translate(71.3 81.06) rotate(140.23) scale(0.95 1)"> </text><text class="cls-1" transform="translate(70.62 81.65) rotate(142.7) scale(0.95 1)">A</text><text class="cls-1" transform="matrix(-0.79, 0.53, -0.56, -0.83, 68.45, 83.29)">B</text><text class="cls-1" transform="translate(66.47 84.63) rotate(150.04) scale(0.95 1)">O</text><text class="cls-1" transform="translate(63.84 86.15) rotate(154.21) scale(0.95 1)">U</text><text class="cls-1" transform="translate(61.25 87.39) rotate(157.84) scale(0.95 1)">T</text><text class="cls-1" transform="translate(59.21 88.21) rotate(160.08) scale(0.95 1)"> </text><text class="cls-1" transform="translate(58.34 88.56) rotate(163.36) scale(0.95 1)">M</text><text class="cls-1" transform="translate(54.92 89.56) rotate(167.5) scale(0.95 1)">E</text><text class="cls-1" transform="translate(52.79 90.02) rotate(169.76) scale(0.95 1)"> </text><text class="cls-1" transform="translate(51.87 90.19) rotate(171.13) scale(0.95 1)"> </text><text class="cls-1" transform="translate(50.95 90.33) rotate(172.78) scale(0.95 1)">-</text><text class="cls-1" transform="translate(49.6 90.5) rotate(174.44) scale(0.95 1)"> </text><text class="cls-1" transform="matrix(-0.95, 0.05, -0.05, -1, 48.7, 90.61)">A</text><text class="cls-1" transform="translate(46.01 90.75) rotate(-179.03) scale(0.95 1)">B</text><text class="cls-1" transform="translate(43.61 90.73) rotate(-175.41) scale(0.95 1)">O</text><text class="cls-1" transform="translate(40.56 90.49) rotate(-171.13) scale(0.95 1)">U</text><text class="cls-1" transform="translate(37.73 90.04) rotate(-167.46) scale(0.95 1)">T</text><text class="cls-1" transform="matrix(-0.92, -0.24, 0.26, -0.97, 35.6, 89.55)"> </text><text class="cls-1" transform="translate(34.71 89.36) rotate(-161.97) scale(0.95 1)">M</text><text class="cls-1" transform="translate(31.33 88.23) rotate(-157.84) scale(0.95 1)">E</text><text class="cls-1" transform="translate(29.31 87.39) rotate(-155.61) scale(0.95 1)"> </text><text class="cls-1" transform="translate(28.44 87) rotate(-154.25) scale(0.95 1)"> </text><text class="cls-1" transform="translate(27.61 86.6) rotate(-152.64) scale(0.95 1)">-</text><text class="cls-1" transform="translate(26.41 85.98) rotate(-151.02) scale(0.95 1)"> </text><text class="cls-1" transform="matrix(-0.81, -0.5, 0.52, -0.85, 25.58, 85.54)">A</text><text class="cls-1" transform="matrix(-0.78, -0.55, 0.58, -0.82, 23.27, 84.12)">B</text><text class="cls-1" transform="translate(21.31 82.76) rotate(-141.14) scale(0.95 1)">O</text><text class="cls-1" transform="matrix(-0.7, -0.65, 0.68, -0.73, 18.94, 80.85)">U</text><text class="cls-1" transform="translate(16.84 78.88) rotate(-133.7) scale(0.95 1)">T</text><text class="cls-1" transform="translate(15.32 77.28) rotate(-131.62) scale(0.95 1)"> </text><text class="cls-1" transform="matrix(-0.6, -0.74, 0.78, -0.62, 14.7, 76.63)">M</text><text class="cls-1" transform="translate(12.48 73.82) rotate(-124.84) scale(0.95 1)">E</text><text class="cls-1" transform="matrix(-0.52, -0.8, 0.84, -0.54, 11.25, 72.03)"> </text><text class="cls-1" transform="matrix(-0.5, -0.81, 0.85, -0.52, 10.74, 71.25)"> </text><text class="cls-1" transform="matrix(-0.48, -0.82, 0.87, -0.5, 10.24, 70.44)">-</text><text class="cls-1" transform="translate(9.57 69.28) rotate(-118.59) scale(0.95 1)"> </text><text class="cls-1" transform="translate(9.1 68.45) rotate(-116.18) scale(0.95 1)">A</text><text class="cls-1" transform="matrix(-0.37, -0.88, 0.92, -0.39, 7.91, 66.03)">B</text><text class="cls-1" transform="translate(6.96 63.82) rotate(-109.36) scale(0.95 1)">O</text><text class="cls-1" transform="translate(5.96 60.95) rotate(-105.57) scale(0.95 1)">U</text><text class="cls-1" transform="matrix(-0.2, -0.93, 0.98, -0.21, 5.19, 58.17)">T</text><text class="cls-1" transform="translate(4.73 56.03) rotate(-100.35) scale(0.95 1)"> </text><text class="cls-1" transform="translate(4.54 55.14) rotate(-97.51) scale(0.95 1)">M</text><text class="cls-1" transform="matrix(-0.06, -0.95, 1, -0.07, 4.09, 51.58)">E</text><text class="cls-1" transform="translate(3.95 49.39) rotate(-91.94) scale(0.95 1)"> </text><text class="cls-1" transform="matrix(-0.01, -0.95, 1, -0.02, 3.92, 48.45)"> </text><text class="cls-1" transform="translate(3.9 47.54) rotate(-89.12) scale(0.95 1)">-</text><text class="cls-1" transform="translate(3.92 46.18) rotate(-87.97) scale(0.95 1)"> </text><text class="cls-1" transform="translate(3.94 45.24) rotate(-85.68) scale(0.95 1)">A</text><text class="cls-1" transform="translate(4.14 42.53) rotate(-82.47) scale(0.95 1)">B</text><text class="cls-1" transform="translate(4.45 40.15) rotate(-79.01) scale(0.95 1)">O</text><text class="cls-1" transform="matrix(0.24, -0.92, 0.97, 0.25, 5.03, 37.16)">U</text><text class="cls-1" transform="translate(5.77 34.4) rotate(-72) scale(0.95 1)">T</text><text class="cls-1" transform="translate(6.46 32.28) rotate(-69.96) scale(0.95 1)"> </text><text class="cls-1" transform="translate(6.74 31.42) rotate(-67.07) scale(0.95 1)">M</text><text class="cls-1" transform="translate(8.15 28.14) rotate(-63.35) scale(0.95 1)">E</text><text class="cls-1" transform="matrix(0.46, -0.84, 0.88, 0.48, 9.14, 26.19)"> </text><text class="cls-1" transform="translate(9.59 25.37) rotate(-60.1) scale(0.95 1)"> </text><text class="cls-1" transform="translate(10.06 24.54) rotate(-58.58) scale(0.95 1)">-</text><text class="cls-1" transform="matrix(0.52, -0.8, 0.84, 0.54, 10.76, 23.4)"> </text><text class="cls-1" transform="matrix(0.55, -0.78, 0.82, 0.58, 11.25, 22.61)">A</text><text class="cls-1" transform="matrix(0.6, -0.74, 0.78, 0.63, 12.83, 20.39)">B</text><text class="cls-1" transform="translate(14.3 18.53) rotate(-47.7) scale(0.95 1)">O</text><text class="cls-1" transform="translate(16.36 16.27) rotate(-43.73) scale(0.95 1)">U</text><text class="cls-1" transform="translate(18.44 14.29) rotate(-40.29) scale(0.95 1)">T</text><text class="cls-1" transform="matrix(0.75, -0.59, 0.62, 0.79, 20.12, 12.88)"> </text><text class="cls-1" transform="matrix(0.78, -0.55, 0.57, 0.82, 20.81, 12.29)">M</text><text class="cls-1" transform="translate(23.75 10.25) rotate(-31.06) scale(0.95 1)">E</text><text class="cls-1" transform="translate(25.63 9.14) rotate(-28.88) scale(0.95 1)"> </text><text class="cls-1" transform="matrix(0.84, -0.44, 0.46, 0.89, 26.46, 8.68)"> </text><text class="cls-1" transform="translate(27.28 8.25) rotate(-25.92) scale(0.95 1)">-</text><text class="cls-1" transform="matrix(0.87, -0.39, 0.41, 0.91, 28.5, 7.66)"> </text><text class="cls-1" transform="translate(29.36 7.27) rotate(-22.94) scale(0.95 1)"> </text><text class="cls-1" transform="translate(30.21 6.91) rotate(-21.61) scale(0.95 1)"> </text><text class="cls-1" transform="translate(31.1 6.56) rotate(-20.24) scale(0.95 1)"> </text><path d="M13.14,31.47l-.28-.13a36.15,36.15,0,0,1,8.3-11.1l.21.23A35.76,35.76,0,0,0,13.14,31.47Z"/><path d="M10,29.92l-.28-.13a39.39,39.39,0,0,1,9.05-12.11l.21.23A39,39,0,0,0,10,29.92Z"/><path d="M84.35,46A39.21,39.21,0,0,0,49.72,8l0-.31A39.52,39.52,0,0,1,84.66,46Z"/><path d="M81.17,46.1A35.89,35.89,0,0,0,49.43,11.43l0-.3a36.2,36.2,0,0,1,32,35Z"/><path d="M21.37,20.47l-.21-.23A36,36,0,0,1,45.4,10.89a35.63,35.63,0,0,1,4.07.24l0,.3a37.14,37.14,0,0,0-4-.23A35.7,35.7,0,0,0,21.37,20.47Z"/><path d="M19,17.91l-.21-.23A39.34,39.34,0,0,1,45.26,7.45a40.86,40.86,0,0,1,4.49.26l0,.31a40.33,40.33,0,0,0-4.46-.26A39,39,0,0,0,19,17.91Z"/><path d="M77.63,63.27l-.28-.14A35.42,35.42,0,0,0,81.2,47c0-.2,0-.4,0-.6v-.3h.32v.3c0,.2,0,.4,0,.61A35.74,35.74,0,0,1,77.63,63.27Z"/><path d="M80.44,64.66l-.27-.14a38.71,38.71,0,0,0,4.2-17.64c0-.18,0-.36,0-.54s0-.23,0-.34h.31c0,.11,0,.22,0,.34s0,.36,0,.55A38.94,38.94,0,0,1,80.44,64.66Z"/><path d="M9.33,48.34c0-.45,0-.89,0-1.34a35.8,35.8,0,0,1,3.56-15.66l.28.13A35.53,35.53,0,0,0,9.61,47c0,.44,0,.89,0,1.33Z"/><path d="M5.87,48.45c0-.5,0-1,0-1.57A39.16,39.16,0,0,1,9.71,29.79l.28.13a38.88,38.88,0,0,0-3.85,17c0,.54,0,1.06,0,1.56Z"/><path d="M45.4,83.1c-.62,0-1.25,0-1.93,0l0-.31c.67,0,1.3.05,1.91.05A35.6,35.6,0,0,0,70.3,72.7l.21.22A35.87,35.87,0,0,1,45.4,83.1Z"/><path d="M45.26,86.31c-.68,0-1.37,0-2.06-.06l0-.31A38.87,38.87,0,0,0,72.44,75l.22.22A39.21,39.21,0,0,1,45.26,86.31Z"/><path d="M44,76.64A29.44,29.44,0,0,1,16.27,48.13h.31A29.3,29.3,0,0,0,44,76.33Z"/><path d="M43.74,79.84A32.77,32.77,0,0,1,12.8,48.23h.31A32.66,32.66,0,0,0,43.76,79.53Z"/><path d="M78,46.2A32.56,32.56,0,0,0,49.15,14.85l0-.31A32.89,32.89,0,0,1,78.31,46.19Z"/><path d="M74.82,46.3a29.25,29.25,0,0,0-26-28l0-.31A29.56,29.56,0,0,1,75.13,46.29Z"/><path d="M66.23,68.35,66,68.12a29.05,29.05,0,0,0,5.71-7.77l.27.15A29.56,29.56,0,0,1,66.23,68.35Z"/><path d="M68.37,70.64l-.22-.23a32.36,32.36,0,0,0,6.38-8.67l.28.14A32.79,32.79,0,0,1,68.37,70.64Z"/><path d="M44,76.64A29.44,29.44,0,0,1,16.27,48.13h.31A29.3,29.3,0,0,0,44,76.33Z"/><path d="M44.27,73.4A26.08,26.08,0,0,1,19.75,48h.31A25.93,25.93,0,0,0,44.29,73.09Z"/><path d="M45.84,73.48c-.4,0-.79,0-1.18,0l-.39,0,0-.31.39,0c.38,0,.78,0,1.16,0a25.7,25.7,0,0,0,18-7.34l.22.22A26,26,0,0,1,45.84,73.48Z"/><path d="M45.7,76.69c-.52,0-1.07,0-1.69,0v-.31c.62,0,1.17,0,1.68,0A29,29,0,0,0,66,68.12l.22.23A29.32,29.32,0,0,1,45.7,76.69Z"/><path d="M19.75,48a2.46,2.46,0,0,0,0-.28c0-.13,0-.26,0-.39A25.94,25.94,0,0,1,22.33,36l.28.13A25.7,25.7,0,0,0,20,47.35c0,.12,0,.24,0,.36s0,.2,0,.3Z"/><path d="M16.27,48.13v-.27c0-.21,0-.42,0-.63a29.12,29.12,0,0,1,2.92-12.79l.28.14a28.77,28.77,0,0,0-2.89,12.65c0,.21,0,.42,0,.62v.27Z"/><path d="M74.82,46.3a29.25,29.25,0,0,0-26-28l0-.31A29.56,29.56,0,0,1,75.13,46.29Z"/><path d="M71.62,46.4a25.91,25.91,0,0,0-23-24.72l0-.31a26.23,26.23,0,0,1,23.32,25Z"/><path d="M28.59,28.18,28.38,28a26,26,0,0,1,20.23-6.58l0,.31a25.62,25.62,0,0,0-20,6.5Z"/><path d="M26.17,25.6l-.2-.23A29.35,29.35,0,0,1,45.7,17.78a31.79,31.79,0,0,1,3.2.17l0,.31a31,31,0,0,0-3.16-.17A29.12,29.12,0,0,0,26.17,25.6Z"/><path d="M69.16,59.1,68.89,59a25.58,25.58,0,0,0,2.77-11.61c0-.19,0-.38,0-.56s0-.26,0-.39h.31c0,.12,0,.25,0,.38s0,.38,0,.58A25.81,25.81,0,0,1,69.16,59.1Z"/><path d="M72,60.5l-.27-.15a28.81,28.81,0,0,0,3.12-13.12c0-.26,0-.52,0-.79V46.3h.31v.14c0,.27,0,.53,0,.8A29.11,29.11,0,0,1,72,60.5Z"/><path d="M45.84,73.48c-.4,0-.79,0-1.18,0l-.39,0,0-.31.39,0c.38,0,.78,0,1.16,0a25.7,25.7,0,0,0,18-7.34l.22.22A26,26,0,0,1,45.84,73.48Z"/><path d="M46,70.28c-.38,0-.76,0-1.13-.06l-.32,0,0-.31.32,0c.36,0,.74,0,1.11,0a22.39,22.39,0,0,0,15.73-6.42l.21.22A22.67,22.67,0,0,1,46,70.28Z"/><path d="M25.76,37.69l-.28-.13a22.76,22.76,0,0,1,5.3-7l.21.23A22.53,22.53,0,0,0,25.76,37.69Z"/><path d="M22.61,36.14,22.33,36A26,26,0,0,1,28.38,28l.21.23A26.05,26.05,0,0,0,22.61,36.14Z"/><path d="M28.59,28.18,28.38,28a26,26,0,0,1,20.23-6.58l0,.31a25.62,25.62,0,0,0-20,6.5Z"/><path d="M31,30.74l-.21-.23A22.74,22.74,0,0,1,46,24.67c.78,0,1.56,0,2.34.11l0,.31A22.62,22.62,0,0,0,31,30.74Z"/><path d="M71.62,46.4a25.91,25.91,0,0,0-23-24.72l0-.31a26.23,26.23,0,0,1,23.32,25Z"/><path d="M68.44,46.5A22.59,22.59,0,0,0,48.3,25.09l0-.31a22.9,22.9,0,0,1,20.42,21.7Z"/><path d="M46.14,67.07c-.39,0-.77,0-1.15,0l-.18,0,0-.31.19,0c.36,0,.74.05,1.12.05a19.05,19.05,0,0,0,13.43-5.51l.22.22A19.36,19.36,0,0,1,46.14,67.07Z"/><path d="M46,70.28c-.38,0-.76,0-1.13-.06l-.32,0,0-.31.32,0c.36,0,.74,0,1.11,0a22.39,22.39,0,0,0,15.73-6.42l.21.22A22.67,22.67,0,0,1,46,70.28Z"/><path d="M25.76,37.69l-.28-.13a22.76,22.76,0,0,1,5.3-7l.21.23A22.53,22.53,0,0,0,25.76,37.69Z"/><path d="M28.9,39.24l-.28-.13a19.55,19.55,0,0,1,4.56-6l.21.23A19.2,19.2,0,0,0,28.9,39.24Z"/><path d="M33.39,33.3l-.21-.23a19.44,19.44,0,0,1,13-5c.61,0,1.23,0,1.9.09l0,.31c-.66-.06-1.27-.09-1.87-.09A19.1,19.1,0,0,0,33.39,33.3Z"/><path d="M31,30.74l-.21-.23A22.74,22.74,0,0,1,46,24.67c.78,0,1.56,0,2.34.11l0,.31A22.62,22.62,0,0,0,31,30.74Z"/><path d="M58.16,58.18a15.92,15.92,0,0,0,.29-20.59l.24-.2a16.24,16.24,0,0,1-.3,21Z"/><path d="M65.26,46.6A19.26,19.26,0,0,0,48,28.51l0-.31A19.58,19.58,0,0,1,65.57,46.58Z"/><path d="M33.39,33.3l-.21-.23a19.44,19.44,0,0,1,13-5c.61,0,1.23,0,1.9.09l0,.31c-.66-.06-1.27-.09-1.87-.09A19.1,19.1,0,0,0,33.39,33.3Z"/><path d="M47.23,31.93l0-.31A16.1,16.1,0,0,1,57.7,36.3c.32.32.63.67,1,1.09l-.24.2c-.35-.42-.66-.76-1-1.07A15.8,15.8,0,0,0,47.23,31.93Z"/><path d="M44.81,67A19.55,19.55,0,0,1,26.67,47.8H27a19.23,19.23,0,0,0,17.85,18.9Z"/><path d="M45.07,63.8A16.2,16.2,0,0,1,30.13,47.71l.31,0A15.9,15.9,0,0,0,45.1,63.49Z"/><path d="M46.43,60.66c-.39,0-.77,0-1.09-.06l0-.31c.32,0,.69.06,1.07.06a12.48,12.48,0,0,0,8.86-3.67l.22.22A12.79,12.79,0,0,1,46.43,60.66Z"/><path d="M34.85,59.15c-.29-.29-.55-.6-.81-.9l.24-.2h0c.25.29.51.6.79.88A15.75,15.75,0,0,0,46.2,63.57v.31A16.06,16.06,0,0,1,34.85,59.15Z"/><path d="M45.34,60.6A12.9,12.9,0,0,1,33.6,47.83a.76.76,0,0,1,0-.15v-.1h.31v.13a.49.49,0,0,0,0,.12A12.58,12.58,0,0,0,45.36,60.29Z"/><path d="M34,58.25a16.22,16.22,0,0,1,.81-22l.24.21h0a15.91,15.91,0,0,0-.79,21.53Z"/><path d="M35.09,36.51l-.22-.22A16,16,0,0,1,41,32.47l.11.3A15.58,15.58,0,0,0,35.09,36.51Z"/><path d="M33.92,47.58h-.31a12.83,12.83,0,0,1,1.3-5.37l.28.14A12.32,12.32,0,0,0,33.92,47.58Z"/><path d="M40.58,41l-.2-.23a9.5,9.5,0,0,1,6.2-2.31l.46,0h.14l0,.31H47l-.44,0A9.19,9.19,0,0,0,40.58,41Z"/><path d="M38.18,38.42l-.2-.23A12.83,12.83,0,0,1,46.43,35c.36,0,.69,0,1,.06l0,.31c-.34,0-.67,0-1,0A12.5,12.5,0,0,0,38.18,38.42Z"/><path d="M55.71,46.91a9.16,9.16,0,0,0-8.55-8.13l0-.31A9.47,9.47,0,0,1,56,46.87Z"/><path d="M58.9,46.8A12.45,12.45,0,0,0,47.44,35.36l0-.31A12.75,12.75,0,0,1,59.21,46.78Z"/><path d="M46.43,60.66c-.39,0-.77,0-1.09-.06l0-.31c.32,0,.69.06,1.07.06a12.48,12.48,0,0,0,8.86-3.67l.22.22A12.79,12.79,0,0,1,46.43,60.66Z"/><path d="M46.58,57.45c-.32,0-.65,0-1-.05l0-.31a9.14,9.14,0,0,0,7.51-2.7l.22.21A9.41,9.41,0,0,1,46.58,57.45Z"/><path d="M41.49,45.46l-.28-.14a6.14,6.14,0,0,1,1.59-2l.2.24A5.77,5.77,0,0,0,41.49,45.46Z"/><path d="M38.33,43.9l-.28-.14a9.53,9.53,0,0,1,2.33-3l.2.23A9.19,9.19,0,0,0,38.33,43.9Z"/><path d="M37.41,47.48l-.31,0a9.47,9.47,0,0,1,.95-3.7l.28.14A9,9,0,0,0,37.41,47.48Z"/><path d="M40.92,47.38l-.3,0a6,6,0,0,1,.59-2l.28.14A6.19,6.19,0,0,0,40.92,47.38Z"/><path d="M52.49,47a5.87,5.87,0,0,0-5.61-4.81V41.9A6.18,6.18,0,0,1,52.8,47Z"/><path d="M55.71,46.91a9.16,9.16,0,0,0-8.55-8.13l0-.31A9.47,9.47,0,0,1,56,46.87Z"/><path d="M45.87,54.16a6.2,6.2,0,0,1-5.33-6.1,4.53,4.53,0,0,1,.05-.53l0-.19.3,0a1.5,1.5,0,0,1,0,.2,3.88,3.88,0,0,0,0,.48,5.87,5.87,0,0,0,5,5.79Z"/><path d="M45.6,57.4A9.48,9.48,0,0,1,37.07,48c0-.12,0-.23,0-.34v-.15l.31,0v.15c0,.1,0,.21,0,.32a9.16,9.16,0,0,0,8.25,9.14Z"/><path d="M46.12,50.92A2.82,2.82,0,0,1,44.2,47.2l.29.1a2.53,2.53,0,0,0,1.71,3.33Z"/><path d="M45.87,54.16a6.2,6.2,0,0,1-5.33-6.1,4.53,4.53,0,0,1,.05-.53l0-.19.3,0a1.5,1.5,0,0,1,0,.2,3.88,3.88,0,0,0,0,.48,5.87,5.87,0,0,0,5,5.79Z"/><path d="M52.49,47a5.87,5.87,0,0,0-5.61-4.81V41.9A6.18,6.18,0,0,1,52.8,47Z"/><path d="M49.2,47.16a2.54,2.54,0,0,0-2.33-1.52h-.26l0-.31h.29A2.84,2.84,0,0,1,49.48,47Z"/><path d="M46.73,54.25a6,6,0,0,1-.75-.07l-.11,0,0-.31.11,0a5.69,5.69,0,0,0,.71.07A5.81,5.81,0,0,0,51,52.09l.23.21A6.11,6.11,0,0,1,46.73,54.25Z"/><path d="M46.87,51a2.71,2.71,0,0,1-.75-.12l.08-.29a2.47,2.47,0,0,0,.67.1,2.57,2.57,0,0,0,2-.93l.23.2A2.84,2.84,0,0,1,46.87,51Z"/></g></g></svg>